<svg width="1057" height="178" viewBox="0 0 1057 178" fill="none" xmlns="http://www.w3.org/2000/svg">
<path d="M550.1 153C550 153 550 153 549.9 152.9L549 152C548.9 151.9 548.9 151.7 549 151.6C549.1 151.5 549.3 151.5 549.4 151.6L550.3 152.5C550.3 152.5 550.3 152.6 550.4 152.6V152.7V152.8C550.4 152.9 550.3 152.9 550.2 153H550.1ZM552.1 155C552 155 552 155 551.9 154.9L551 154C550.9 153.9 550.9 153.9 550.9 153.8C550.9 153.6 551 153.5 551.2 153.5C551.3 153.5 551.4 153.5 551.4 153.6L552.3 154.5C552.3 154.5 552.3 154.6 552.4 154.6V154.7V154.8C552.4 154.9 552.3 154.9 552.2 155C552.1 155 552.1 155 552.1 155ZM549.2 155C549.1 155 549.1 155 549 154.9C548.9 154.8 548.9 154.7 548.9 154.6C548.9 154.6 548.9 154.5 549 154.5L549.9 153.6C550 153.5 550.2 153.5 550.3 153.6C550.4 153.7 550.4 153.9 550.3 154L549.4 154.9C549.4 155 549.3 155 549.2 155ZM551.2 153C551 153 550.9 152.9 550.9 152.7C550.9 152.6 550.9 152.6 551 152.5L551.9 151.6C551.9 151.6 552 151.6 552 151.5C552.1 151.5 552.1 151.5 552.2 151.5C552.2 151.5 552.3 151.5 552.3 151.6C552.3 151.6 552.3 151.7 552.4 151.7C552.4 151.8 552.4 151.8 552.4 151.9C552.4 151.9 552.4 152 552.3 152L551.4 152.9C551.4 153 551.3 153 551.2 153ZM539.8 126.3C539.7 126.3 539.7 126.3 539.6 126.2L538.7 125.3C538.6 125.2 538.6 125 538.7 124.9C538.8 124.8 539 124.8 539.1 124.9L540 125.8C540.1 125.9 540.1 125.9 540.1 126C540.1 126.1 540 126.2 539.9 126.3C539.9 126.3 539.9 126.3 539.8 126.3ZM541.8 128.3C541.7 128.3 541.7 128.3 541.6 128.2L540.7 127.3C540.7 127.3 540.7 127.2 540.6 127.2C540.5 127.2 540.6 127.1 540.6 127.1V127C540.6 127 540.6 126.9 540.7 126.9C540.7 126.9 540.8 126.9 540.8 126.8H540.9H541C541 126.8 541.1 126.8 541.1 126.9L542 127.8C542.1 127.9 542.1 127.9 542.1 128C542.1 128.1 542 128.2 541.9 128.3C541.9 128.3 541.9 128.3 541.8 128.3ZM539 128.3C538.9 128.3 538.8 128.2 538.7 128.1C538.7 128 538.7 128 538.7 127.9C538.7 127.9 538.7 127.8 538.8 127.8L539.7 126.9C539.8 126.8 540 126.8 540.1 126.9C540.2 127 540.2 127 540.2 127.1C540.2 127.2 540.2 127.2 540.1 127.3L539.2 128.2C539.1 128.3 539.1 128.3 539 128.3ZM541 126.3C540.9 126.3 540.9 126.3 540.8 126.2C540.7 126.1 540.7 126.1 540.7 126C540.7 125.9 540.7 125.9 540.8 125.8L541.7 124.9C541.8 124.8 542 124.8 542.1 124.9C542.2 125 542.2 125.2 542.1 125.3L541.2 126.2C541.1 126.3 541.1 126.3 541 126.3ZM532.7 119.5C532.6 119.5 532.6 119.5 532.5 119.4L531.6 118.5C531.6 118.5 531.6 118.4 531.5 118.4C531.4 118.4 531.5 118.3 531.5 118.3V118.2C531.5 118.2 531.5 118.1 531.6 118.1C531.6 118.1 531.7 118.1 531.7 118H531.8H531.9C531.9 118 532 118 532 118.1L532.9 119C532.9 119 532.9 119.1 533 119.1V119.2V119.3C533 119.4 532.9 119.4 532.8 119.5C532.8 119.5 532.8 119.5 532.7 119.5ZM534.7 121.5C534.6 121.5 534.6 121.5 534.5 121.4L533.6 120.5C533.6 120.5 533.6 120.4 533.5 120.4V120.3V120.2C533.5 120.2 533.5 120.1 533.6 120.1C533.7 120 533.9 120 534 120.1L534.9 121C534.9 121 534.9 121.1 535 121.1V121.2V121.3C535 121.4 534.9 121.4 534.8 121.5C534.8 121.5 534.8 121.5 534.7 121.5ZM531.9 121.5C531.8 121.5 531.8 121.5 531.7 121.4C531.6 121.3 531.6 121.3 531.6 121.2C531.6 121.1 531.6 121.1 531.7 121L532.6 120.1C532.6 120.1 532.7 120.1 532.7 120H532.8H532.9C532.9 120 533 120 533 120.1C533.1 120.2 533.1 120.3 533.1 120.4C533.1 120.4 533.1 120.5 533 120.5L532.1 121.4C532 121.5 532 121.5 531.9 121.5ZM533.9 119.5C533.8 119.5 533.8 119.5 533.7 119.4C533.6 119.3 533.6 119.2 533.6 119.1C533.6 119.1 533.6 119 533.7 119L534.6 118.1C534.7 118 534.9 118 535 118.1C535.1 118.2 535.1 118.2 535.1 118.3C535.1 118.4 535.1 118.4 535 118.5L534.1 119.4C534 119.5 534 119.5 533.9 119.5ZM519.7 122.6C519.6 122.6 519.6 122.6 519.5 122.5L518.6 121.6C518.5 121.5 518.5 121.3 518.6 121.2C518.7 121.1 518.9 121.1 519 121.2L519.9 122.1C519.9 122.1 519.9 122.2 520 122.2V122.3V122.4C520 122.5 519.9 122.5 519.8 122.6C519.7 122.6 519.7 122.6 519.7 122.6ZM521.7 124.6C521.6 124.6 521.6 124.6 521.5 124.5L520.6 123.6C520.5 123.5 520.5 123.3 520.6 123.2C520.7 123.1 520.9 123.1 521 123.2L521.9 124.1C521.9 124.1 521.9 124.2 522 124.2V124.3V124.4C522 124.5 521.9 124.5 521.8 124.6C521.7 124.6 521.7 124.6 521.7 124.6ZM518.8 124.6C518.7 124.6 518.7 124.6 518.6 124.5C518.5 124.4 518.5 124.3 518.5 124.2C518.5 124.2 518.5 124.1 518.6 124.1L519.5 123.2C519.6 123.1 519.8 123.1 519.9 123.2C520 123.3 520 123.5 519.9 123.6L519 124.5C519 124.6 518.9 124.6 518.8 124.6ZM520.8 122.6C520.7 122.6 520.7 122.6 520.6 122.5C520.5 122.4 520.5 122.3 520.5 122.2C520.5 122.2 520.5 122.1 520.6 122.1L521.5 121.2C521.6 121.1 521.8 121.1 521.9 121.2C522 121.3 522 121.5 521.9 121.6L521 122.5C521 122.6 520.9 122.6 520.8 122.6ZM504.6 142C504.5 142 504.5 142 504.4 141.9L503.5 141C503.4 140.9 503.4 140.7 503.5 140.6C503.6 140.5 503.8 140.5 503.9 140.6L504.8 141.5C504.9 141.6 504.9 141.7 504.9 141.8C504.8 141.9 504.7 142 504.6 142ZM506.6 144C506.5 144 506.5 144 506.4 143.9L505.5 143C505.5 143 505.5 142.9 505.4 142.9C505.4 142.8 505.4 142.8 505.4 142.7C505.4 142.7 505.4 142.6 505.5 142.6C505.6 142.5 505.7 142.5 505.8 142.5C505.8 142.5 505.9 142.5 505.9 142.6L506.8 143.5C506.9 143.6 506.9 143.8 506.8 143.9C506.8 143.9 506.7 144 506.6 144ZM503.8 144C503.6 144 503.5 143.9 503.5 143.7C503.5 143.6 503.5 143.6 503.6 143.5L504.5 142.6C504.6 142.5 504.8 142.5 504.9 142.6C505 142.7 505 142.7 505 142.8C505 142.9 505 142.9 504.9 143L504 143.9C503.9 143.9 503.8 144 503.8 144ZM505.7 142C505.6 142 505.5 141.9 505.4 141.8C505.4 141.7 505.4 141.7 505.4 141.6C505.4 141.6 505.4 141.5 505.5 141.5L506.4 140.6C506.5 140.5 506.5 140.5 506.6 140.5C506.8 140.5 506.9 140.6 506.9 140.8C506.9 140.9 506.9 140.9 506.8 141L505.9 141.9C505.9 141.9 505.8 142 505.7 142Z" fill="#10335E"/>
<path d="M534.6 129.7H517.4C516.1 129.7 515 130.8 515 132.1V153.6C515 154.9 516.1 156 517.4 156H534.6C535.9 156 537 154.9 537 153.6V132.1C537 130.8 535.9 129.7 534.6 129.7Z" fill="#FBFCFD"/>
<path d="M534.6 129.5H517.4C516 129.5 514.9 130.6 514.8 132.1V143.1C514.8 143.2 514.9 143.3 515 143.3C515.1 143.3 515.2 143.2 515.2 143.1V132.1C515.2 130.9 516.2 129.9 517.4 129.9H534.6C535.8 129.9 536.8 130.9 536.8 132.1V153.6C536.8 154.8 535.8 155.8 534.6 155.8H517.4C516.2 155.8 515.2 154.8 515.2 153.6V145.1C515.2 145 515.1 144.9 515 144.9C514.9 144.9 514.8 145 514.8 145.1V153.6C514.8 155 515.9 156.1 517.4 156.2H534.6C536 156.2 537.1 155.1 537.2 153.6V132.1C537.2 130.7 536 129.5 534.6 129.5Z" fill="#10335E"/>
<path d="M534.6 129.7H517.4C516.1 129.7 515 130.8 515 132.1V133.4H537V132.1C537 130.8 535.9 129.7 534.6 129.7Z" fill="#A3C8F6"/>
<path d="M534.6 129.5H517.4C516 129.5 514.9 130.6 514.8 132.1V133.4C514.8 133.5 514.9 133.6 515 133.6H537C537.1 133.6 537.2 133.5 537.2 133.4V132.1C537.2 130.7 536 129.5 534.6 129.5ZM536.8 133.2H515.3V132.1C515.3 130.9 516.3 129.9 517.5 129.9H534.7C535.9 129.9 536.9 130.9 536.9 132.1V133.2H536.8Z" fill="#3A312A"/>
<path d="M534.4 135.9H524.6C524.3 135.9 524 136.2 524 136.5V138.2C524 138.5 524.3 138.8 524.6 138.8H534.4C534.7 138.8 535 138.5 535 138.2V136.5C535 136.2 534.7 135.9 534.4 135.9Z" fill="#A3C8F6"/>
<path d="M534.4 135.7H524.6C524.2 135.7 523.8 136.1 523.8 136.5V138.2C523.8 138.6 524.2 139 524.6 139H534.4C534.8 139 535.2 138.6 535.2 138.2V136.5C535.2 136.1 534.8 135.7 534.4 135.7ZM534.8 138.2C534.8 138.4 534.6 138.6 534.4 138.6H524.6C524.4 138.6 524.2 138.4 524.2 138.2V136.5C524.2 136.3 524.4 136.1 524.6 136.1H534.4C534.6 136.1 534.8 136.3 534.8 136.5V138.2ZM521.8 137.2H517.2C517.1 137.2 517 137.3 517 137.4C517 137.5 517.1 137.6 517.2 137.6H521.8C521.9 137.6 522 137.5 522 137.4C522 137.3 521.9 137.2 521.8 137.2ZM521.8 140.2H517.2C517.1 140.2 517 140.3 517 140.4C517 140.5 517.1 140.6 517.2 140.6H521.8C521.9 140.6 522 140.5 522 140.4C522 140.3 521.9 140.2 521.8 140.2ZM521.8 143.2H517.2C517.1 143.2 517 143.3 517 143.4C517 143.5 517.1 143.6 517.2 143.6H521.8C521.9 143.6 522 143.5 522 143.4C522 143.3 521.9 143.2 521.8 143.2Z" fill="#10335E"/>
<path d="M534.4 141.1H524.6C524.3 141.1 524 141.4 524 141.7V143.4C524 143.7 524.3 144 524.6 144H534.4C534.7 144 535 143.7 535 143.4V141.7C535 141.4 534.7 141.1 534.4 141.1Z" fill="#A3C8F6"/>
<path d="M534.4 140.9H524.6C524.2 140.9 523.8 141.3 523.8 141.7V143.4C523.8 143.8 524.2 144.2 524.6 144.2H534.4C534.8 144.2 535.2 143.8 535.2 143.4V141.7C535.2 141.3 534.8 140.9 534.4 140.9ZM534.8 143.5C534.8 143.7 534.6 143.9 534.4 143.9H524.6C524.4 143.9 524.2 143.7 524.2 143.5V141.8C524.2 141.6 524.4 141.4 524.6 141.4H534.4C534.6 141.4 534.8 141.6 534.8 141.8V143.5Z" fill="#10335E"/>
<path d="M534.4 146.1H524.6C524.3 146.1 524 146.4 524 146.7V152.2C524 152.5 524.3 152.8 524.6 152.8H534.4C534.7 152.8 535 152.5 535 152.2V146.7C535 146.3 534.7 146.1 534.4 146.1Z" fill="#A3C8F6"/>
<path d="M534.4 145.9H524.6C524.2 145.9 523.8 146.3 523.8 146.7V152.2C523.8 152.6 524.2 153 524.6 153H534.4C534.8 153 535.2 152.6 535.2 152.2V146.7C535.2 146.2 534.8 145.9 534.4 145.9ZM534.8 152.1C534.8 152.3 534.6 152.5 534.4 152.5H524.6C524.4 152.5 524.2 152.3 524.2 152.1V146.6C524.2 146.4 524.4 146.2 524.6 146.2H534.4C534.6 146.2 534.8 146.4 534.8 146.6V152.1Z" fill="#10335E"/>
<path d="M521.1 146.1H517.9C517.5 146.1 517.2 146.4 517.2 146.8V152.1C517.2 152.5 517.5 152.8 517.9 152.8H521.1C521.5 152.8 521.8 152.5 521.8 152.1V146.8C521.8 146.4 521.5 146.1 521.1 146.1Z" fill="#A3C8F6"/>
<path d="M521.1 145.9H517.9C517.4 145.9 517 146.3 517 146.8V152.1C517 152.6 517.4 153 517.9 153H521.1C521.6 153 522 152.6 522 152.1V146.8C522 146.2 521.6 145.9 521.1 145.9ZM521.6 152.1C521.6 152.4 521.4 152.6 521.1 152.6H517.9C517.6 152.6 517.4 152.4 517.4 152.1V146.8C517.4 146.5 517.6 146.3 517.9 146.3H521.1C521.4 146.3 521.6 146.5 521.6 146.8V152.1Z" fill="#10335E"/>
<path d="M529.3 128.3C529 128.3 528.7 128.4 528.5 128.5C528.2 127.2 526.8 126.4 525.4 126.7C524.5 126.9 523.8 127.6 523.6 128.5C522.8 128 521.8 128.3 521.3 129.1C520.8 129.9 521.1 130.9 521.9 131.4C522.2 131.5 522.4 131.6 522.7 131.6H529.2C530.1 131.6 530.9 130.9 530.9 129.9C530.9 128.9 530.3 128.3 529.3 128.3Z" fill="#FBFCFD"/>
<path d="M529.3 128.1C529.1 128.1 528.8 128.1 528.6 128.2C528.1 126.8 526.6 126.1 525.2 126.6C524.4 126.9 523.8 127.5 523.6 128.2C522.6 127.8 521.6 128.3 521.2 129.2C521.1 129.4 521.1 129.7 521.1 129.9C521.1 130.9 521.9 131.8 523 131.8H525.9C526 131.8 526.1 131.7 526.1 131.6C526.1 131.5 526 131.4 525.9 131.4H523C522.2 131.4 521.5 130.7 521.5 129.9C521.5 129.1 522.2 128.4 523 128.4C523.3 128.4 523.5 128.5 523.7 128.6C523.8 128.7 523.9 128.6 524 128.5C524 128.5 524 128.5 524 128.4C524.3 127.4 525.2 126.7 526.2 126.7C527.3 126.7 528.2 127.4 528.4 128.4C528.4 128.5 528.5 128.6 528.6 128.5C528.6 128.5 528.6 128.5 528.7 128.5C529.4 128.1 530.3 128.3 530.7 129.1C530.8 129.3 530.9 129.6 530.9 129.8C530.9 130.6 530.2 131.3 529.4 131.3H527.7C527.6 131.3 527.5 131.4 527.5 131.5C527.5 131.6 527.6 131.7 527.7 131.7H529.4C530.4 131.7 531.3 130.9 531.3 129.8C531.2 128.9 530.4 128.1 529.3 128.1Z" fill="#3A312A"/>
<path d="M532 152.9L541.2 136.4L543.4 137.6L534.2 154.1L532 152.9Z" fill="#E7F3FF"/>
<path d="M543.6 137.5C543.6 137.4 543.6 137.4 543.5 137.4L541.3 136.2H541.2C541.1 136.2 541.1 136.2 541.1 136.3L531.9 152.8V152.9C531.9 153 531.9 153 532 153L534.2 154.2H534.3C534.4 154.2 534.4 154.2 534.5 154.1L543.7 137.6C543.6 137.7 543.6 137.6 543.6 137.5ZM534.1 153.8L532.3 152.8L541.3 136.7L543.1 137.7L534.1 153.8Z" fill="#10335E"/>
<path d="M534.3 148.7L538.9 140.6L541.1 141.8L536.5 149.9L534.3 148.7Z" fill="#A3C8F6"/>
<path d="M541.3 141.7C541.3 141.6 541.3 141.6 541.2 141.6L539 140.4C538.9 140.3 538.8 140.4 538.7 140.5L534.1 148.6C534 148.7 534.1 148.8 534.2 148.9L536.4 150.1C536.5 150.2 536.6 150.1 536.7 150L541.3 141.9C541.3 141.8 541.3 141.8 541.3 141.7ZM536.4 149.6L534.6 148.6L539 140.8L540.8 141.8L536.4 149.6Z" fill="#10335E"/>
<path d="M543.4 135.1C542.8 134.8 542 135 541.7 135.6L541.3 136.4L543.5 137.6L543.9 136.8C544.2 136.2 544 135.5 543.4 135.1Z" fill="#A3C8F6"/>
<path d="M544.1 135.8C543.9 135 543.1 134.6 542.3 134.8C541.9 134.9 541.6 135.1 541.4 135.5L541 136.3V136.4C541 136.5 541 136.5 541.1 136.5L543.3 137.7C543.4 137.8 543.5 137.7 543.6 137.6L544 136.8C544.2 136.6 544.3 136.2 544.1 135.8ZM543.7 136.7L543.4 137.3L541.6 136.3L541.9 135.7C542.2 135.2 542.8 135 543.3 135.3C543.8 135.6 543.9 136.2 543.7 136.7Z" fill="#10335E"/>
<path d="M532 152.9L531.9 155C531.9 155.2 532 155.3 532.2 155.3C532.3 155.3 532.3 155.3 532.4 155.2L534.2 154L532 152.9Z" fill="#A3C8F6"/>
<path d="M534.3 153.9L532.1 152.7C532 152.7 532 152.7 531.9 152.7C531.8 152.7 531.8 152.8 531.8 152.9L531.7 155C531.7 155.3 531.9 155.5 532.2 155.6C532.3 155.6 532.4 155.6 532.5 155.5L534.3 154.3C534.4 154.2 534.4 154.1 534.3 153.9ZM532.3 155.1H532.2L532.1 155L532.2 153.2L533.8 154.1L532.3 155.1ZM543.5 137.4C543.4 137.3 543.3 137.4 543.2 137.5C543.1 137.6 543.2 137.7 543.3 137.8C543.9 138.1 544.1 138.9 543.8 139.4L539.9 146.3C539.8 146.4 539.9 146.5 540 146.6C540.1 146.7 540.2 146.6 540.3 146.5L544.2 139.6C544.5 138.8 544.3 137.9 543.5 137.4Z" fill="#10335E"/>
<path d="M534.6 129.9H532.8C534 129.9 535 130.9 535 132.1V133.2H536.8V132.1C536.8 130.9 535.8 129.9 534.6 129.9Z" fill="#78A6DF"/>
<path d="M534.4 146.3H533.7L530.2 152.6H532L534.2 148.6L534.9 147.4V146.7C534.8 146.4 534.6 146.3 534.4 146.3Z" fill="#78A6DF"/>
<path d="M530 152.9L529.9 154.9C529.9 155.2 530.1 155.4 530.4 155.5C530.5 155.5 530.6 155.5 530.7 155.4L531.7 154.7L531.8 152.9H530ZM535 133.6V136C535.1 136.1 535.2 136.3 535.2 136.5V138.2C535.2 138.4 535.1 138.6 535 138.7V141.1C535.1 141.2 535.2 141.4 535.2 141.6V143.3C535.2 143.6 535.1 143.8 534.9 144L534.7 144.4L533.9 145.7H534.4C534.8 145.7 535.2 146.1 535.2 146.5L536.4 144.3L536.8 143.6V133.3H535V133.6Z" fill="#78A6DF" fill-opacity="0.14"/>
<path d="M536.7 150L535 153V153.6C535 154.8 534 155.8 532.8 155.8H534.6C535.8 155.8 536.8 154.8 536.8 153.6V149.8L536.7 150Z" fill="#ECECEC"/>
</svg>
