<svg width="10" height="6" viewBox="0 0 10 6" fill="none" xmlns="http://www.w3.org/2000/svg">
<path d="M2.8506 2.67002L2.69851 1.06226L2.47832 0.772987C2.42633 0.75996 2.37306 0.752792 2.31666 0.758124L0.708905 0.910214C0.442518 0.935409 0.24701 1.17178 0.272205 1.43816L0.424295 3.04592C0.429647 3.10242 0.444491 3.15572 0.467108 3.20441L0.806151 3.35006L2.4139 3.19797C2.68029 3.17277 2.87582 2.93641 2.8506 2.67002Z" fill="#FF5F7A"/>
<path d="M4.806 3.92969L3.63184 5.6909H6.25004L4.806 3.92969Z" fill="#A3C8F6"/>
<path d="M4.80615 3.92977L5.98025 5.69098H6.3684L5.0002 3.63867L4.80615 3.92977Z" fill="#10335E"/>
<path d="M9.2798 2.06205L9.12771 0.454292L8.90931 0.162397C8.85732 0.14937 8.80226 0.1448 8.74586 0.150132L7.1381 0.302221C6.87172 0.327417 6.67621 0.563784 6.7014 0.830171L6.85349 2.43792C6.85885 2.49443 6.87369 2.54773 6.89631 2.59642L7.23535 2.74207L8.8431 2.58998C9.10949 2.5648 9.305 2.32843 9.2798 2.06205Z" fill="#B8EB7C"/>
<path d="M7.56575 1.39707L8.53045 1.30584C8.61815 1.29787 8.69793 1.36269 8.70629 1.4514C8.71481 1.54019 8.64952 1.61896 8.56073 1.6274L7.59602 1.71863C7.59098 1.7191 7.58577 1.71933 7.58073 1.71933C7.4984 1.71933 7.42807 1.65664 7.42018 1.57306C7.41166 1.48428 7.47696 1.40551 7.56575 1.39707Z" fill="white"/>
<path d="M9.83848 3.12895L0.19192 4.04147C0.103131 4.04987 0.0243419 3.98469 0.0159434 3.8959L0.000728576 3.73514C-0.00766986 3.64635 0.0575059 3.56756 0.146295 3.55917L9.63208 2.66186C9.72087 2.65346 9.79965 2.71864 9.80805 2.80743L9.83848 3.12895Z" fill="#10335E"/>
<path d="M3.06188 5.85227H6.93773C7.02699 5.85227 7.09922 5.77996 7.09922 5.69078C7.09922 5.6016 7.02699 5.5293 6.93773 5.5293H3.06188C2.97262 5.5293 2.90039 5.6016 2.90039 5.69078C2.90039 5.77994 2.97262 5.85227 3.06188 5.85227Z" fill="#10335E"/>
<path d="M2.09977 1.9144L1.77805 1.94483L1.74762 1.62327C1.73926 1.53456 1.66151 1.46981 1.57163 1.4777C1.48284 1.48614 1.4177 1.56491 1.42622 1.6537L1.45665 1.97522L1.13508 2.00563C1.04629 2.01407 0.981001 2.09284 0.989516 2.18163C0.997407 2.26522 1.06774 2.3279 1.15006 2.3279C1.1551 2.3279 1.16032 2.32766 1.16536 2.32719L1.48707 2.29676L1.5175 2.61833C1.5254 2.70192 1.59573 2.7646 1.67805 2.7646C1.68309 2.7646 1.68831 2.76436 1.69334 2.76389C1.78229 2.75546 1.84743 2.67669 1.83891 2.5879L1.80848 2.26637L2.13004 2.23596C2.21883 2.22753 2.28413 2.14876 2.27561 2.05997C2.26727 1.97124 2.187 1.90667 2.09977 1.9144Z" fill="white"/>
<path d="M9.42562 2.19479L9.27354 0.587031C9.25369 0.377324 9.10223 0.211367 8.90904 0.162598L9.10398 2.22521C9.11234 2.31385 9.04705 2.39285 8.95842 2.40121L6.896 2.59664C6.98012 2.77727 7.17145 2.89467 7.38115 2.87484L8.98891 2.72275C9.25531 2.69754 9.45082 2.46115 9.42562 2.19479Z" fill="#6BC745"/>
<path d="M2.99449 2.80309L2.8424 1.19533C2.82256 0.985625 2.67121 0.821738 2.47803 0.772949L2.67285 2.8335C2.68121 2.92213 2.61592 3.00113 2.52729 3.00949L0.466797 3.20439C0.550918 3.38502 0.740312 3.50295 0.950019 3.48312L2.55777 3.33104C2.82416 3.30584 3.01969 3.06947 2.99449 2.80309Z" fill="#DF1B2D"/>
<path d="M0.207305 4.20233L9.85387 3.28981C9.94268 3.28141 10.0078 3.20262 9.99943 3.11383L9.96902 2.79229C9.96062 2.70348 9.88184 2.63833 9.79305 2.64672L9.63225 2.66194C9.64904 2.83954 9.51871 2.99712 9.34111 3.01391L0.0161133 3.89598L0.0313281 4.05676C0.0397266 4.14555 0.118516 4.21073 0.207305 4.20233Z" fill="#A3C8F6"/>
</svg>
