<svg width="48" height="48" viewBox="0 0 48 48" fill="none" xmlns="http://www.w3.org/2000/svg">
<g clip-path="url(#clip0_10082_5582)">
<path d="M7.36782 47.4153C11.1134 47.4153 14.1497 44.379 14.1497 40.6334C14.1497 36.8879 11.1134 33.8516 7.36782 33.8516C3.62229 33.8516 0.585938 36.8879 0.585938 40.6334C0.585938 44.379 3.62229 47.4153 7.36782 47.4153Z" fill="white"/>
<path d="M7.36621 33.7656C11.1521 33.7656 14.2334 36.8469 14.2334 40.6328C14.2331 44.4185 11.1519 47.499 7.36621 47.499C3.58071 47.4988 0.500263 44.4183 0.5 40.6328C0.5 36.8471 3.58055 33.7659 7.36621 33.7656ZM7.36621 33.9355C3.67322 33.9358 0.669922 36.9397 0.669922 40.6328C0.670185 44.3257 3.67338 47.3289 7.36621 47.3291C11.0594 47.3291 14.0632 44.3258 14.0635 40.6328C14.0635 36.9396 11.0596 33.9355 7.36621 33.9355Z" fill="#202E40" stroke="#10335E"/>
<path d="M7.37082 41.7182C8.79236 41.7182 9.94475 40.5658 9.94475 39.1443C9.94475 37.7227 8.79236 36.5703 7.37082 36.5703C5.94927 36.5703 4.79688 37.7227 4.79688 39.1443C4.79688 40.5658 5.94927 41.7182 7.37082 41.7182Z" fill="#A3C8F6"/>
<path d="M7.36966 42.3018C5.62805 42.3018 4.21094 40.8848 4.21094 39.1431C4.21094 37.4014 5.62792 35.9844 7.36966 35.9844C9.11139 35.9844 10.5284 37.4014 10.5284 39.1431C10.5284 40.8848 9.11126 42.3018 7.36966 42.3018ZM7.36966 37.1539C6.27287 37.1539 5.3805 38.0463 5.3805 39.1431C5.3805 40.2399 6.27274 41.1323 7.36966 41.1323C8.46657 41.1323 9.35882 40.2399 9.35882 39.1431C9.35882 38.0463 8.46644 37.1539 7.36966 37.1539Z" fill="#10335E"/>
<path d="M9.5587 42.3203H5.18065C3.62916 42.3203 2.3637 43.4877 2.17969 44.9894C3.42371 46.4681 5.28591 47.4097 7.36967 47.4097C9.45344 47.4097 11.3156 46.4681 12.5597 44.9894C12.3756 43.4877 11.1102 42.3203 9.5587 42.3203Z" fill="#A3C8F6"/>
<path d="M7.36844 47.9933C5.19125 47.9933 3.13659 47.0352 1.73104 45.3647C1.62643 45.2405 1.57835 45.0783 1.5981 44.9171C1.82045 43.1026 3.36023 41.7344 5.17955 41.7344H9.5576C11.3769 41.7344 12.9166 43.1026 13.1389 44.9171C13.1585 45.0783 13.1105 45.2405 13.006 45.3647C11.6004 47.0352 9.54577 47.9933 7.36844 47.9933ZM2.80197 44.8121C3.97672 46.0938 5.62606 46.8238 7.36844 46.8238C9.11083 46.8238 10.7603 46.0938 11.9349 44.8123C11.6845 43.7083 10.703 42.9039 9.5576 42.9039H5.17955C4.03403 42.9038 3.05238 43.7082 2.80197 44.8121Z" fill="#10335E"/>
<path d="M40.6334 47.4153C44.379 47.4153 47.4153 44.379 47.4153 40.6334C47.4153 36.8879 44.379 33.8516 40.6334 33.8516C36.8879 33.8516 33.8516 36.8879 33.8516 40.6334C33.8516 44.379 36.8879 47.4153 40.6334 47.4153Z" fill="white"/>
<path d="M40.6328 33.7656C44.4184 33.7659 47.499 36.8471 47.499 40.6328C47.4988 44.4183 44.4183 47.4988 40.6328 47.499C36.8471 47.499 33.7659 44.4184 33.7656 40.6328C33.7656 36.847 36.8471 33.7656 40.6328 33.7656ZM40.6328 33.9355C36.9395 33.9355 33.9355 36.9396 33.9355 40.6328C33.9358 44.3258 36.9397 47.3291 40.6328 47.3291C44.3257 47.3288 47.3288 44.3257 47.3291 40.6328C47.3291 36.9397 44.3258 33.9358 40.6328 33.9355Z" fill="#202E40" stroke="#10335E"/>
<path d="M40.6364 41.7182C42.058 41.7182 43.2104 40.5658 43.2104 39.1443C43.2104 37.7227 42.058 36.5703 40.6364 36.5703C39.2149 36.5703 38.0625 37.7227 38.0625 39.1443C38.0625 40.5658 39.2149 41.7182 40.6364 41.7182Z" fill="#A3C8F6"/>
<path d="M40.6353 42.3018C38.8937 42.3018 37.4766 40.8848 37.4766 39.1431C37.4766 37.4014 38.8935 35.9844 40.6353 35.9844C42.377 35.9844 43.794 37.4014 43.794 39.1431C43.794 40.8848 42.3769 42.3018 40.6353 42.3018ZM40.6353 37.1539C39.5385 37.1539 38.6461 38.0463 38.6461 39.1431C38.6461 40.2399 39.5384 41.1323 40.6353 41.1323C41.7322 41.1323 42.6244 40.2399 42.6244 39.1431C42.6244 38.0463 41.7322 37.1539 40.6353 37.1539Z" fill="#10335E"/>
<path d="M42.8243 42.3203H38.4463C36.8948 42.3203 35.6293 43.4877 35.4453 44.9894C36.6893 46.4681 38.5515 47.4097 40.6353 47.4097C42.7191 47.4097 44.5813 46.4681 45.8253 44.9894C45.6411 43.4877 44.3758 42.3203 42.8243 42.3203Z" fill="#A3C8F6"/>
<path d="M40.6342 47.9935C38.4569 47.9935 36.4022 47.0353 34.9967 45.3648C34.8921 45.2406 34.844 45.0784 34.8637 44.9171C35.0862 43.1028 36.626 41.7344 38.4452 41.7344H42.8232C44.6425 41.7344 46.1823 43.1026 46.4047 44.9171C46.4243 45.0783 46.3762 45.2405 46.2717 45.3647C44.8662 47.0353 42.8114 47.9935 40.6342 47.9935ZM36.0676 44.8123C37.2423 46.094 38.8917 46.8238 40.6342 46.8238C42.3765 46.8238 44.0259 46.0938 45.2007 44.8121C44.9503 43.7083 43.9687 42.9038 42.8232 42.9038H38.4452C37.2998 42.9039 36.3181 43.7083 36.0676 44.8123Z" fill="#10335E"/>
<path d="M40.6334 14.1497C44.379 14.1497 47.4153 11.1134 47.4153 7.36782C47.4153 3.62229 44.379 0.585938 40.6334 0.585938C36.8879 0.585938 33.8516 3.62229 33.8516 7.36782C33.8516 11.1134 36.8879 14.1497 40.6334 14.1497Z" fill="white"/>
<path d="M40.6328 0.5C44.4182 0.500263 47.4988 3.58072 47.499 7.36621C47.499 11.1519 44.4185 14.2331 40.6328 14.2334C36.8469 14.2334 33.7656 11.1521 33.7656 7.36621C33.7659 3.58056 36.8472 0.5 40.6328 0.5ZM40.6328 0.669922C36.9396 0.669922 33.9358 3.67322 33.9355 7.36621C33.9355 11.0594 36.9396 14.0635 40.6328 14.0635C44.3258 14.0632 47.3291 11.0592 47.3291 7.36621C47.3289 3.67338 44.3257 0.670185 40.6328 0.669922Z" fill="#202E40" stroke="#10335E"/>
<path d="M40.6364 8.46038C42.058 8.46038 43.2104 7.30799 43.2104 5.88644C43.2104 4.46489 42.058 3.3125 40.6364 3.3125C39.2149 3.3125 38.0625 4.46489 38.0625 5.88644C38.0625 7.30799 39.2149 8.46038 40.6364 8.46038Z" fill="#A3C8F6"/>
<path d="M40.6357 3.22656C42.1011 3.22682 43.2939 4.42031 43.2939 5.88574C43.2937 7.35095 42.1008 8.54368 40.6357 8.54395C39.1704 8.54395 37.9768 7.35111 37.9766 5.88574C37.9766 4.42014 39.1701 3.22656 40.6357 3.22656ZM40.6357 3.39648C39.2628 3.39648 38.1465 4.5128 38.1465 5.88574C38.1467 7.25852 39.2628 8.375 40.6357 8.375C42.0085 8.37474 43.1238 7.25833 43.124 5.88574C43.124 4.51301 42.0086 3.39674 40.6357 3.39648Z" fill="#202E40" stroke="#10335E"/>
<path d="M42.8243 9.05469H38.4463C36.8948 9.05469 35.6293 10.222 35.4453 11.7238C36.6893 13.2025 38.5515 14.1441 40.6353 14.1441C42.7191 14.1441 44.5813 13.2025 45.8253 11.7238C45.6411 10.222 44.3758 9.05469 42.8243 9.05469Z" fill="#A3C8F6"/>
<path d="M38.4453 8.96875H42.8232C44.2905 8.96877 45.5497 10.0042 45.8594 11.4238L45.9082 11.7119C45.9097 11.7239 45.9087 11.7358 45.9053 11.7471L45.8887 11.7773C44.5779 13.3352 42.6628 14.2275 40.6338 14.2275C38.6047 14.2274 36.6896 13.3353 35.3789 11.7773H35.3799C35.3724 11.7684 35.3666 11.758 35.3633 11.7471L35.3604 11.7119C35.5525 10.1466 36.8807 8.96875 38.4453 8.96875ZM38.1885 9.14941C37.0023 9.25351 36.0039 10.0713 35.6465 11.1914L35.5801 11.4355L35.5225 11.6914L35.6992 11.8848C36.9681 13.269 38.7507 14.0585 40.6338 14.0586C42.5171 14.0586 44.3004 13.2692 45.5693 11.8848L45.7461 11.6914L45.6885 11.4355C45.3873 10.1088 44.2068 9.13869 42.8232 9.13867H38.4453L38.1885 9.14941Z" fill="#202E40" stroke="#10335E"/>
<path d="M7.36782 14.1497C11.1134 14.1497 14.1497 11.1134 14.1497 7.36782C14.1497 3.62229 11.1134 0.585938 7.36782 0.585938C3.62229 0.585938 0.585938 3.62229 0.585938 7.36782C0.585938 11.1134 3.62229 14.1497 7.36782 14.1497Z" fill="white"/>
<path d="M7.36621 0.5C11.152 0.5 14.2332 3.58055 14.2334 7.36621C14.2334 11.1521 11.1521 14.2334 7.36621 14.2334C3.58055 14.2332 0.5 11.152 0.5 7.36621C0.500244 3.5807 3.5807 0.500244 7.36621 0.5ZM7.36621 0.669922C3.67336 0.670165 0.670165 3.67336 0.669922 7.36621C0.669922 11.0592 3.67321 14.0632 7.36621 14.0635C11.0596 14.0635 14.0635 11.0594 14.0635 7.36621C14.0632 3.67322 11.0594 0.669922 7.36621 0.669922Z" fill="#202E40" stroke="#10335E"/>
<path d="M7.37082 8.46038C8.79236 8.46038 9.94475 7.30799 9.94475 5.88644C9.94475 4.46489 8.79236 3.3125 7.37082 3.3125C5.94927 3.3125 4.79688 4.46489 4.79688 5.88644C4.79688 7.30799 5.94927 8.46038 7.37082 8.46038Z" fill="#A3C8F6"/>
<path d="M7.37012 3.22656C8.8355 3.22681 10.0283 4.42031 10.0283 5.88574C10.0281 7.35095 8.83523 8.5437 7.37012 8.54395C5.90479 8.54395 4.71119 7.35111 4.71094 5.88574C4.71094 4.42015 5.90452 3.22656 7.37012 3.22656ZM7.37012 3.39648C5.99718 3.39648 4.88086 4.51281 4.88086 5.88574C4.88104 7.2585 5.99714 8.375 7.37012 8.375C8.74287 8.37475 9.85822 7.25835 9.8584 5.88574C9.8584 4.51296 8.74283 3.39673 7.37012 3.39648Z" fill="#202E40" stroke="#10335E"/>
<path d="M9.5587 9.05469H5.18065C3.62916 9.05469 2.3637 10.222 2.17969 11.7238C3.42371 13.2025 5.28591 14.1441 7.36967 14.1441C9.45344 14.1441 11.3156 13.2025 12.5597 11.7238C12.3756 10.222 11.1102 9.05469 9.5587 9.05469Z" fill="#A3C8F6"/>
<path d="M5.17969 8.96875H9.55762C11.0247 8.96876 12.2842 10.0042 12.5938 11.4238L12.6426 11.7119C12.644 11.7239 12.643 11.7359 12.6396 11.7471L12.623 11.7773C11.3124 13.3352 9.39737 14.2275 7.36816 14.2275C5.46591 14.2275 3.66406 13.4433 2.36621 12.0615L2.11328 11.7773C2.10584 11.7685 2.10094 11.758 2.09766 11.7471L2.09473 11.7119C2.28677 10.1466 3.61488 8.96875 5.17969 8.96875ZM4.92285 9.14941C3.73663 9.25349 2.73819 10.0713 2.38086 11.1914L2.31445 11.4355L2.25684 11.6914L2.43359 11.8848C3.70238 13.269 5.48504 14.0585 7.36816 14.0586C9.25149 14.0586 11.0349 13.2693 12.3037 11.8848L12.4805 11.6914L12.4229 11.4355C12.1217 10.1088 10.9412 9.13868 9.55762 9.13867H5.17969L4.92285 9.14941Z" fill="#202E40" stroke="#10335E"/>
<path d="M24.0044 37.5009C31.4626 37.5009 37.5088 31.4548 37.5088 23.9966C37.5088 16.5383 31.4626 10.4922 24.0044 10.4922C16.5461 10.4922 10.5 16.5383 10.5 23.9966C10.5 31.4548 16.5461 37.5009 24.0044 37.5009Z" fill="white"/>
<path d="M24.002 10.5C31.4911 10.5001 37.5859 16.5993 37.5859 24.0957L37.5811 24.4453C37.3946 31.7735 31.3744 37.6785 24.002 37.6787C16.5057 37.6787 10.4065 31.5846 10.4062 24.0957C10.4062 19.4694 12.6945 15.2508 16.5547 12.7188L16.9326 12.4795C16.9725 12.4552 17.0242 12.4672 17.0488 12.5059V12.5068C17.0671 12.5368 17.065 12.5737 17.0459 12.6006L17.0215 12.624C12.9875 15.0908 10.5762 19.3812 10.5762 24.0957C10.5764 31.4929 16.5992 37.5088 24.002 37.5088C31.3988 37.5086 37.4158 31.4923 37.416 24.0957C37.416 16.6928 31.3994 10.6701 24.002 10.6699C23.6609 10.6699 23.32 10.6829 22.9854 10.709L22.6523 10.7393H22.6514C22.6184 10.7427 22.5855 10.7243 22.5693 10.6953L22.5596 10.6641C22.5559 10.6293 22.5737 10.5971 22.6025 10.5811L22.6348 10.5703C23.0799 10.5235 23.54 10.5 24.002 10.5Z" fill="#202E40" stroke="#10335E"/>
<path d="M19.054 12.0249C18.8229 12.0249 18.604 11.8871 18.5118 11.6596C18.3903 11.3604 18.5347 11.0194 18.834 10.898C19.3092 10.7054 19.762 10.5491 20.2178 10.4206C20.5289 10.3328 20.8517 10.5137 20.9394 10.8246C21.0272 11.1354 20.8461 11.4585 20.5354 11.5462C20.1211 11.663 19.7084 11.8056 19.2733 11.9819C19.2015 12.0112 19.127 12.0249 19.054 12.0249Z" fill="#10335E"/>
<path d="M12.163 36.427C12.0134 36.427 11.8636 36.3699 11.7495 36.2557C11.521 36.0274 11.521 35.657 11.7495 35.4287L14.0382 33.14C14.2664 32.9117 14.6368 32.9117 14.865 33.14C15.0935 33.3683 15.0935 33.7387 14.865 33.967L12.5763 36.2557C12.4624 36.3699 12.3127 36.427 12.163 36.427Z" fill="#10335E"/>
<path d="M35.8423 36.427C35.6927 36.427 35.5429 36.3699 35.4288 36.2557L33.1401 33.967C32.9116 33.7387 32.9116 33.3683 33.1401 33.14C33.3683 32.9117 33.7388 32.9117 33.967 33.14L36.2557 35.4287C36.4841 35.657 36.4841 36.0274 36.2557 36.2557C36.1416 36.3699 35.9919 36.427 35.8423 36.427Z" fill="#10335E"/>
<path d="M33.5458 15.0363C33.3962 15.0363 33.2464 14.9793 33.1323 14.8651C32.9038 14.6367 32.9038 14.2664 33.1323 14.0381L35.421 11.7494C35.6492 11.521 36.0197 11.521 36.2478 11.7494C36.4763 11.9777 36.4763 12.3481 36.2478 12.5764L33.9593 14.8651C33.8452 14.9793 33.6955 15.0363 33.5458 15.0363Z" fill="#10335E"/>
<path d="M14.4517 15.0363C14.3021 15.0363 14.1523 14.9793 14.0382 14.8651L11.7495 12.5764C11.521 12.3481 11.521 11.9777 11.7495 11.7494C11.9777 11.521 12.3481 11.521 12.5763 11.7494L14.865 14.0381C15.0935 14.2664 15.0935 14.6367 14.865 14.8651C14.7509 14.9793 14.6012 15.0363 14.4517 15.0363Z" fill="#10335E"/>
<path d="M41.6006 24.9688H44.8252C44.8721 24.9688 44.9102 25.007 44.9102 25.0537C44.91 25.1004 44.872 25.1387 44.8252 25.1387H41.6006C41.5539 25.1387 41.5158 25.1004 41.5156 25.0537C41.5156 25.0071 41.5537 24.9688 41.6006 24.9688Z" fill="#202E40" stroke="#10335E"/>
<path d="M3.91309 19.8906H5.78711C5.83386 19.8906 5.87207 19.9288 5.87207 19.9756C5.87198 20.0224 5.83386 20.0605 5.78711 20.0605H3.91309C3.86639 20.0605 3.82821 20.0223 3.82812 19.9756C3.82812 19.9405 3.84952 19.9104 3.87988 19.8975L3.91309 19.8906Z" fill="#202E40" stroke="#10335E"/>
<path d="M19.2422 23.7451L22.4964 26.9979L29.0022 20.4922" stroke="#10335E" stroke-width="1.5" stroke-linecap="round" stroke-linejoin="round"/>
</g>
<defs>
<clipPath id="clip0_10082_5582">
<rect width="48" height="48" fill="white"/>
</clipPath>
</defs>
</svg>
