<svg width="40" height="40" viewBox="0 0 40 40" fill="none" xmlns="http://www.w3.org/2000/svg">
<mask id="mask0_10082_5749" style="mask-type:luminance" maskUnits="userSpaceOnUse" x="5" y="3" width="30" height="34">
<path d="M34.5 3.8999V36.3999H5.7998V3.8999H34.5Z" fill="white" stroke="white"/>
</mask>
<g mask="url(#mask0_10082_5749)">
<path d="M31.7002 12.4995C31.692 12.4995 31.695 12.4979 31.709 12.5044C31.7229 12.5109 31.741 12.5228 31.7588 12.5405C31.7765 12.5582 31.7883 12.5764 31.7949 12.5903C31.8014 12.6043 31.7998 12.6074 31.7998 12.5991V13.2993H29.0225L29.6445 12.4995H31.7002Z" fill="#A3C8F6" stroke="#10335E"/>
<path d="M7.6001 12.4995H11.6772L11.0552 13.2993H8.49951C8.06553 13.2994 7.63916 13.4536 7.24658 13.8462C6.99214 14.1006 6.69984 14.5199 6.69971 15.0991C6.69971 16.1018 7.55107 16.7993 8.3999 16.7993H33.3999C33.4731 16.7993 33.5294 16.8269 33.5649 16.8589C33.5981 16.8888 33.6004 16.9087 33.6001 16.9048V23.3999H32.0054C30.1125 23.2962 28.6997 24.8368 28.6997 26.4995C28.6997 28.2874 30.1356 29.6995 31.9995 29.6997H33.6997V36.1997C33.6997 36.2359 33.693 36.2509 33.6919 36.2534C33.6912 36.2549 33.6916 36.2564 33.688 36.2593C33.6769 36.2681 33.6233 36.2993 33.4995 36.2993H7.30029C6.47656 36.2993 5.90008 35.7236 5.8999 34.8999V14.0991C5.90012 13.2054 6.64549 12.4995 7.6001 12.4995Z" fill="#A3C8F6" stroke="#10335E"/>
<path d="M31.8999 24.7998H34.3999C34.4199 24.7998 34.4412 24.8038 34.4614 24.8105C34.4782 24.8161 34.4909 24.8233 34.4995 24.8291V28.0996C34.4995 28.0916 34.5011 28.0946 34.4946 28.1084C34.4881 28.1224 34.4764 28.1413 34.4585 28.1592C34.4407 28.1769 34.4226 28.1888 34.4087 28.1953C34.3947 28.2018 34.3917 28.2002 34.3999 28.2002H31.8999C30.9761 28.2002 30.1998 27.4238 30.1997 26.5C30.1997 25.5761 30.976 24.7998 31.8999 24.7998ZM31.8999 25.2002C31.0837 25.2002 30.6001 25.8657 30.6001 26.5C30.6002 27.3161 31.2657 27.7998 31.8999 27.7998C32.2501 27.7998 32.5885 27.6923 32.8403 27.4404C33.0922 27.1886 33.1997 26.8502 33.1997 26.5L33.1919 26.3506C33.1164 25.6251 32.4945 25.2003 31.8999 25.2002Z" fill="#A3C8F6" stroke="#10335E"/>
<path d="M26.5396 10.0337C26.3629 10.4191 26.3164 10.8322 26.4097 11.2983L26.4116 11.3101L26.4146 11.3208C26.506 11.6864 26.6656 12.0419 26.8843 12.3872L24.5503 15.4995H21.6187C21.4247 14.6829 20.9538 13.9056 20.2661 13.3315L20.1001 13.1997L20.0903 13.1929L19.7925 12.9985C18.3255 12.1243 16.4679 12.2071 15.4067 13.4653L15.2993 13.6001C14.8424 14.1595 14.6684 14.8444 14.7095 15.4995H12.1968L18.9673 6.41162C19.3168 6.53175 19.6978 6.58305 20.0972 6.48877L20.0981 6.48975C20.1034 6.48869 20.1085 6.48692 20.1138 6.48584C20.116 6.48529 20.1184 6.48542 20.1206 6.48486L20.1196 6.48389C20.4857 6.40837 20.8517 6.27375 21.146 6.05518L26.5396 10.0337ZM22.2368 8.1001C21.8422 8.10018 21.3906 8.22453 21.1099 8.58838L21.1089 8.5874C20.7819 8.99622 20.7581 9.48207 20.8999 9.90771C21.037 10.3189 21.3292 10.6922 21.6792 10.9839L21.6997 11.0015L21.7222 11.0161C22.1032 11.2702 22.5499 11.3999 22.9624 11.3999C23.3615 11.3999 23.8201 11.2732 24.1001 10.8999C24.3746 10.5337 24.3822 10.08 24.2671 9.68506C24.151 9.28713 23.8985 8.89167 23.5532 8.54639L23.5181 8.51123L23.4771 8.48389L23.3315 8.39404C22.9852 8.19897 22.5977 8.1001 22.2368 8.1001Z" fill="#A3C8F6" stroke="#10335E"/>
<path d="M28.7627 10.3726C28.9939 10.6176 29.0381 10.9506 28.876 11.231L28.3887 11.8813L28.2246 11.7173L28.1904 11.6929L28.1104 11.6294C27.7373 11.3046 27.674 10.7792 27.9893 10.3159C28.0167 10.2885 28.0357 10.2714 28.0537 10.2534C28.0787 10.2284 28.1033 10.2028 28.1533 10.1528L28.2842 10.021L28.7627 10.3726ZM19.7334 3.93213C19.8564 3.9146 19.9617 3.93161 20.0361 3.96338L20.0996 3.99951L20.1035 4.00244L20.7305 4.46338C20.6284 4.57101 20.5766 4.67837 20.5527 4.72607C20.5442 4.74323 20.5384 4.7521 20.5361 4.75635L20.5176 4.77588L20.4932 4.80908C20.1766 5.25232 19.6111 5.34643 19.1162 5.00928L19.0537 4.9458L18.8906 4.78369L19.4004 4.1001C19.4528 4.03019 19.5691 3.95559 19.7334 3.93213Z" fill="#A3C8F6" stroke="#10335E"/>
</g>
</svg>
