<svg width="12" height="18" viewBox="0 0 12 18" fill="none" xmlns="http://www.w3.org/2000/svg">
<path d="M7.75517 4.18311H4.36491L3.95123 4.68271V7.90204L3.71206 8.31787L3.36591 8.27452L1.00302 9.77819C0.834203 9.88563 0.731934 10.0719 0.731934 10.272V10.7577C0.731934 10.928 0.907926 11.0414 1.06296 10.9709L3.36595 9.92409L3.67775 9.50903L3.9513 9.65802V10.2433C3.9513 10.5666 4.21335 10.8287 4.53661 10.8287H7.75524L7.75517 4.18311Z" fill="#335C8E"/>
<path d="M6.20289 0.225914L5.64025 0.123047C5.60299 0.152156 5.5685 0.186469 5.53781 0.225914L4.44438 1.63174C4.12474 2.04272 3.95117 2.54851 3.95117 3.06918V4.68257H7.46314L7.78946 4.20585V3.06918C7.78946 2.54851 7.61589 2.04272 7.29625 1.63174L6.20289 0.225914Z" fill="#A3C8F6"/>
<path d="M5.99987 3.51194C6.32313 3.51194 6.58518 3.24989 6.58518 2.92663C6.58518 2.60336 6.32313 2.34131 5.99987 2.34131C5.67661 2.34131 5.41455 2.60336 5.41455 2.92663C5.41455 3.24989 5.67661 3.51194 5.99987 3.51194Z" fill="#CCEFFA"/>
<path d="M4.8291 10.8286V11.9992L5.18182 12.3048H6.8464V10.8286H4.8291Z" fill="#335C8E"/>
<path d="M6.87799 13.2197H5.1219C4.78092 13.3403 4.53662 13.6655 4.53662 14.0477V14.9257C4.53662 16.094 5.18455 17.1327 5.61813 17.6971L6.73589 16.9307L7.42383 13.7867C7.3416 13.5224 7.13787 13.3116 6.87799 13.2197Z" fill="#335C8E"/>
<path d="M6.87805 13.4626V13.2201C6.78609 13.1874 6.68856 13.1699 6.58538 13.1699H5.41475C5.31156 13.1699 5.21404 13.1874 5.12207 13.2201V13.4626C5.12207 13.9475 5.51515 14.3406 6.00006 14.3406C6.48497 14.3406 6.87805 13.9475 6.87805 13.4626Z" fill="#10335E"/>
<path d="M5.99971 13.7554C5.83806 13.7554 5.70703 13.8864 5.70703 14.048V15.2187C5.70703 15.3804 5.83806 15.5114 5.99971 15.5114C6.16136 15.5114 6.29238 15.3804 6.29238 15.2187V14.048C6.29238 13.8864 6.16136 13.7554 5.99971 13.7554Z" fill="white"/>
<path d="M1.85339 1.00842C1.7448 0.845502 1.47497 0.845502 1.36637 1.00842L0.195741 2.7644C0.105988 2.89887 0.142304 3.08063 0.276917 3.17024C0.411812 3.25972 0.593288 3.2234 0.682761 3.08907L1.31726 2.13735V7.60935C1.31726 7.77097 1.44815 7.90203 1.60994 7.90203C1.77169 7.90203 1.90261 7.771 1.90261 7.60935V2.13732L2.53711 3.08903C2.59343 3.17362 2.68632 3.21936 2.78092 3.21936C2.83664 3.21936 2.89296 3.2035 2.94296 3.17021C3.07757 3.0806 3.11385 2.89884 3.02413 2.76437L1.85339 1.00842Z" fill="#10335E"/>
<path d="M11.8038 2.7644L10.6332 1.00842C10.5246 0.845502 10.2548 0.845502 10.1462 1.00842L8.97553 2.7644C8.88577 2.89887 8.92209 3.08063 9.0567 3.17024C9.19132 3.25972 9.37307 3.2234 9.46255 3.08907L10.097 2.13735V7.60935C10.097 7.77097 10.2279 7.90203 10.3897 7.90203C10.5515 7.90203 10.6824 7.771 10.6824 7.60935V2.13732L11.3169 3.08903C11.3732 3.17362 11.4661 3.21936 11.5607 3.21936C11.6164 3.21936 11.6727 3.2035 11.7227 3.17021C11.8573 3.08063 11.8936 2.89887 11.8038 2.7644Z" fill="#10335E"/>
<path d="M10.9967 9.77797L8.63377 8.2743L8.31252 8.39018L8.04846 7.90182V4.6825L7.46314 4.23633V10.2431H3.95117V10.8284L6.58515 11.4138C6.58515 11.737 6.32309 11.9991 5.99983 11.9991H4.82913C4.82913 12.3223 5.09118 12.5844 5.41445 12.5844H6.58511C6.90838 12.5844 7.17043 12.3223 7.17043 11.9991V11.1123L8.04842 10.2431V9.65777L8.35066 9.48969L8.63377 9.92384L10.9367 10.9706C11.0917 11.0411 11.2677 10.9278 11.2677 10.7575V10.2718C11.2677 10.0717 11.1655 9.88541 10.9967 9.77797Z" fill="#10335E"/>
<path d="M4.53649 11.4138H7.46314C7.7864 11.4138 8.04846 11.1517 8.04846 10.8285V10.2432H7.46314C7.46314 10.5664 7.20109 10.8285 6.87782 10.8285H3.95117C3.95114 11.1517 4.21323 11.4138 4.53649 11.4138Z" fill="#10335E"/>
<path d="M7.5552 1.63174L6.46177 0.225914C6.25815 -0.0358942 5.88753 -0.0701012 5.64014 0.123047L7.09321 1.99114C7.33157 2.29781 7.46306 2.68066 7.46306 3.06921V4.68257H8.04837V3.06918C8.04841 2.54851 7.87484 2.04272 7.5552 1.63174Z" fill="#78A6DF"/>
<path d="M8.63366 9.9239V8.27434L8.04834 7.90186V9.65784L8.63366 9.9239Z" fill="#10335E"/>
<path d="M6.87799 14.6259V14.9261C6.87799 16.2828 5.81251 17.4888 5.61816 17.6975C5.6754 17.772 5.72933 17.8391 5.77711 17.8962C5.89302 18.0349 6.10698 18.0349 6.22285 17.8962C6.63246 17.4063 7.4633 16.2493 7.4633 14.9261V14.0481C7.4633 13.958 7.44917 13.8686 7.42386 13.7871C7.3456 14.1269 7.14746 14.422 6.87799 14.6259Z" fill="#10335E"/>
<path d="M3.36572 8.27434L3.95104 7.90186V9.65784L3.36572 9.9239V8.27434Z" fill="#10335E"/>
</svg>
