<svg width="10" height="12" viewBox="0 0 10 12" fill="none" xmlns="http://www.w3.org/2000/svg">
<path d="M9.06445 0H0.935434C0.721637 0 0.54834 0.17332 0.54834 0.387094V11.6129L0.935434 11.7988H7.51607L9.27028 9.95862V0.387094L9.06445 0Z" fill="#A3C8F6"/>
<path d="M3.64494 8.12891H2.48366C2.05609 8.12891 1.70947 8.47552 1.70947 8.90309V10.0644C1.70947 10.4919 2.05609 10.8386 2.48366 10.8386H3.64494C4.07251 10.8386 4.41913 10.4919 4.41913 10.0644V8.90309C4.41913 8.47552 4.07251 8.12891 3.64494 8.12891Z" fill="white"/>
<path d="M3.64513 11.0323H2.48385C1.95027 11.0323 1.51611 10.5981 1.51611 10.0646V8.90328C1.51611 8.3697 1.95027 7.93555 2.48385 7.93555H3.64513C4.17871 7.93555 4.61286 8.3697 4.61286 8.90328V10.0646C4.61286 10.5981 4.17871 11.0323 3.64513 11.0323ZM2.48382 8.32262C2.16364 8.32262 1.90318 8.58308 1.90318 8.90326V10.0645C1.90318 10.3847 2.16364 10.6452 2.48382 10.6452H3.64511C3.96528 10.6452 4.22575 10.3847 4.22575 10.0645V8.90326C4.22575 8.58308 3.96528 8.32262 3.64511 8.32262H2.48382Z" fill="#10335E"/>
<path d="M3.64494 1.16113H2.48366C2.05609 1.16113 1.70947 1.50775 1.70947 1.93532V3.0966C1.70947 3.52417 2.05609 3.87079 2.48366 3.87079H3.64494C4.07251 3.87079 4.41913 3.52417 4.41913 3.0966V1.93534C4.41913 1.50775 4.07251 1.16113 3.64494 1.16113Z" fill="white"/>
<path d="M3.64513 4.06452H2.48385C1.95027 4.06452 1.51611 3.63037 1.51611 3.09679V1.93551C1.51611 1.40193 1.95027 0.967773 2.48385 0.967773H3.64513C4.17871 0.967773 4.61286 1.40193 4.61286 1.93551V3.09679C4.61286 3.63037 4.17871 4.06452 3.64513 4.06452ZM2.48382 1.35484C2.16364 1.35484 1.90318 1.6153 1.90318 1.93548V3.09677C1.90318 3.41695 2.16364 3.67741 2.48382 3.67741H3.64511C3.96528 3.67741 4.22575 3.41695 4.22575 3.09677V1.93551C4.22575 1.61533 3.96528 1.35487 3.64511 1.35487L2.48382 1.35484Z" fill="#10335E"/>
<path d="M3.64536 2.32283H3.25826V1.93573C3.25826 1.82886 3.17168 1.74219 3.06471 1.74219C2.95775 1.74219 2.87117 1.82886 2.87117 1.93573V2.32283H2.48407C2.37708 2.32283 2.29053 2.4095 2.29053 2.51638C2.29053 2.62325 2.37711 2.70992 2.48407 2.70992H2.87117V3.09702C2.87117 3.20389 2.95775 3.29056 3.06471 3.29056C3.17168 3.29056 3.25826 3.20389 3.25826 3.09702V2.70992H3.64536C3.75235 2.70992 3.8389 2.62325 3.8389 2.51638C3.8389 2.40948 3.75232 2.32283 3.64536 2.32283Z" fill="#98DB7C"/>
<path d="M3.64536 9.67762H2.48407C2.37708 9.67762 2.29053 9.59095 2.29053 9.48407C2.29053 9.3772 2.37711 9.29053 2.48407 9.29053H3.64536C3.75235 9.29053 3.8389 9.3772 3.8389 9.48407C3.8389 9.59095 3.75232 9.67762 3.64536 9.67762Z" fill="#FF5F7A"/>
<path d="M8.29043 2.12928H5.58075C5.47376 2.12928 5.38721 2.04261 5.38721 1.93573C5.38721 1.82886 5.47379 1.74219 5.58075 1.74219H8.29043C8.39743 1.74219 8.48398 1.82886 8.48398 1.93573C8.48398 2.04261 8.39743 2.12928 8.29043 2.12928Z" fill="#10335E"/>
<path d="M7.51625 3.29041H5.58075C5.47376 3.29041 5.38721 3.20374 5.38721 3.09687C5.38721 2.98999 5.47379 2.90332 5.58075 2.90332H7.51625C7.62324 2.90332 7.70979 2.98999 7.70979 3.09687C7.70979 3.20377 7.62322 3.29041 7.51625 3.29041Z" fill="#10335E"/>
<path d="M8.29043 5.61268H5.58075C5.47376 5.61268 5.38721 5.52601 5.38721 5.41913C5.38721 5.31226 5.47379 5.22559 5.58075 5.22559H8.29043C8.39743 5.22559 8.48398 5.31226 8.48398 5.41913C8.48398 5.52601 8.39743 5.61268 8.29043 5.61268Z" fill="#10335E"/>
<path d="M7.51625 6.7743H5.58075C5.47376 6.7743 5.38721 6.68763 5.38721 6.58075C5.38721 6.47388 5.47379 6.38721 5.58075 6.38721H7.51625C7.62324 6.38721 7.70979 6.47388 7.70979 6.58075C7.70979 6.68763 7.62322 6.7743 7.51625 6.7743Z" fill="#10335E"/>
<path d="M8.29043 9.09657H5.58075C5.47376 9.09657 5.38721 9.00989 5.38721 8.90302C5.38721 8.79614 5.47379 8.70947 5.58075 8.70947H8.29043C8.39743 8.70947 8.48398 8.79614 8.48398 8.90302C8.48398 9.00989 8.39743 9.09657 8.29043 9.09657Z" fill="#10335E"/>
<path d="M6.74204 10.2582H5.58075C5.47376 10.2582 5.38721 10.1715 5.38721 10.0646C5.38721 9.95777 5.47379 9.87109 5.58075 9.87109H6.74204C6.84903 9.87109 6.93558 9.95777 6.93558 10.0646C6.93558 10.1715 6.849 10.2582 6.74204 10.2582Z" fill="#10335E"/>
<path d="M9.06445 0V9.82406C9.06445 9.87541 9.04406 9.92463 9.00775 9.96094C8.94143 10.0273 8.85147 10.0645 8.75768 10.0645H7.90317C7.68937 10.0645 7.51607 10.2378 7.51607 10.4516V11.306C7.51607 11.3998 7.47881 11.4898 7.41246 11.5561L7.41229 11.5563C7.37604 11.5925 7.32689 11.6129 7.27561 11.6129H0.54834C0.54834 11.8267 0.72166 12 0.935434 12H7.27558C7.42957 12 7.57725 11.9388 7.68614 11.8299L9.2815 10.2345C9.39039 10.1257 9.45157 9.97795 9.45157 9.82395V0.387094C9.45154 0.173297 9.27825 0 9.06445 0Z" fill="#78A6DF"/>
<path d="M3.64494 4.64502H2.48366C2.05609 4.64502 1.70947 4.99164 1.70947 5.41921V6.58049C1.70947 7.00806 2.05609 7.35468 2.48366 7.35468H3.64494C4.07251 7.35468 4.41913 7.00806 4.41913 6.58049V5.41921C4.41913 4.99164 4.07251 4.64502 3.64494 4.64502Z" fill="white"/>
<path d="M3.64513 7.54841H2.48385C1.95027 7.54841 1.51611 7.11425 1.51611 6.58068V5.41939C1.51611 4.88582 1.95027 4.45166 2.48385 4.45166H3.64513C4.17871 4.45166 4.61286 4.88582 4.61286 5.41939V6.58068C4.61286 7.11423 4.17871 7.54841 3.64513 7.54841ZM2.48382 4.83873C2.16364 4.83873 1.90318 5.09919 1.90318 5.41937V6.58065C1.90318 6.90083 2.16364 7.16129 2.48382 7.16129H3.64511C3.96528 7.16129 4.22575 6.90083 4.22575 6.58065V5.41937C4.22575 5.09919 3.96528 4.83873 3.64511 4.83873H2.48382Z" fill="#10335E"/>
<path d="M3.64536 5.80623H3.25826V5.41913C3.25826 5.31226 3.17168 5.22559 3.06471 5.22559C2.95775 5.22559 2.87117 5.31226 2.87117 5.41913V5.80623H2.48407C2.37708 5.80623 2.29053 5.8929 2.29053 5.99977C2.29053 6.10665 2.37711 6.19332 2.48407 6.19332H2.87117V6.58041C2.87117 6.68729 2.95775 6.77396 3.06471 6.77396C3.17168 6.77396 3.25826 6.68729 3.25826 6.58041V6.19332H3.64536C3.75235 6.19332 3.8389 6.10665 3.8389 5.99977C3.8389 5.8929 3.75232 5.80623 3.64536 5.80623Z" fill="#98DB7C"/>
</svg>
