<svg width="53" height="48" viewBox="0 0 53 48" fill="none" xmlns="http://www.w3.org/2000/svg">
<g clip-path="url(#clip0_10082_5556)">
<path d="M26.0808 43.509C25.7299 43.509 25.4453 43.2245 25.4453 42.8736V38.9402C25.4453 38.5892 25.7299 38.3047 26.0808 38.3047C26.4317 38.3047 26.7163 38.5892 26.7163 38.9402V42.8736C26.7163 43.2245 26.4317 43.509 26.0808 43.509Z" fill="#202E40"/>
<path d="M26.0814 47.358C27.4898 47.358 28.6314 46.2162 28.6314 44.8079C28.6314 43.3995 27.4898 42.2578 26.0814 42.2578C24.6731 42.2578 23.5312 43.3995 23.5312 44.8079C23.5312 46.2162 24.6731 47.358 26.0814 47.358Z" fill="#A3C8F6"/>
<path d="M26.0762 47.9961C24.3197 47.9961 22.8906 46.5671 22.8906 44.8105C22.8906 43.054 24.3196 41.625 26.0762 41.625C27.8327 41.625 29.2617 43.054 29.2617 44.8105C29.2617 46.5671 27.8326 47.9961 26.0762 47.9961ZM26.0762 42.8959C25.0204 42.8959 24.1616 43.7548 24.1616 44.8105C24.1616 45.8663 25.0204 46.7251 26.0762 46.7251C27.1319 46.7251 27.9908 45.8663 27.9908 44.8105C27.9908 43.7548 27.1319 42.8959 26.0762 42.8959Z" fill="#10335E"/>
<path d="M49.7467 4.5H2.41406V37.8684C2.41406 38.9127 3.26065 39.7591 4.3048 39.7591H47.8558C48.9001 39.7591 49.7465 38.9125 49.7465 37.8684L49.7467 4.5Z" fill="white"/>
<path d="M47.8611 40.392H4.29955C2.91097 40.392 1.78125 39.2623 1.78125 37.8737V18.5992C1.78125 18.2483 2.0658 17.9637 2.41672 17.9637C2.76764 17.9637 3.05219 18.2483 3.05219 18.5992V37.8737C3.05219 38.5616 3.61183 39.1211 4.29955 39.1211H47.8613C48.5491 39.1211 49.1088 38.5614 49.1088 37.8737V5.13813H3.05219V12.0979C3.05219 12.4489 2.76764 12.7334 2.41672 12.7334C2.0658 12.7334 1.78125 12.4489 1.78125 12.0979V4.50266C1.78125 4.15174 2.0658 3.86719 2.41672 3.86719H49.7443C50.0952 3.86719 50.3797 4.15174 50.3797 4.50266V37.8737C50.3796 39.2623 49.2499 40.392 47.8611 40.392Z" fill="#10335E"/>
<path d="M2.41672 16.7458C2.0658 16.7458 1.78125 16.4613 1.78125 16.1104V14.5964C1.78125 14.2455 2.0658 13.9609 2.41672 13.9609C2.76764 13.9609 3.05219 14.2455 3.05219 14.5964V16.1104C3.05219 16.4613 2.76764 16.7458 2.41672 16.7458Z" fill="#10335E"/>
<path d="M50.2942 7.24932H1.86125C1.18285 7.24932 0.632812 6.69929 0.632812 6.02089V1.86125C0.632812 1.18285 1.18285 0.632812 1.86125 0.632812H50.2942C50.9726 0.632812 51.5226 1.18285 51.5226 1.86125V6.02075C51.5226 6.69929 50.9726 7.24932 50.2942 7.24932Z" fill="#A3C8F6"/>
<path d="M50.2966 7.88731H1.8639C0.836137 7.88731 0 7.05117 0 6.02341V1.8639C0 0.836137 0.836137 0 1.8639 0H50.2967C51.3245 0 52.1606 0.836137 52.1606 1.8639V6.02355C52.1606 7.05131 51.3245 7.88731 50.2966 7.88731ZM1.8639 1.27094C1.53699 1.27094 1.27094 1.53699 1.27094 1.8639V6.02355C1.27094 6.35046 1.53699 6.61651 1.8639 6.61651H50.2967C50.6236 6.61651 50.8897 6.3506 50.8897 6.02355V1.8639C50.8897 1.53699 50.6236 1.27094 50.2967 1.27094H1.8639Z" fill="#10335E"/>
<path d="M13.779 17.9766C10.0006 17.9766 6.9375 21.0397 6.9375 24.818C6.9375 28.5964 10.0006 31.6595 13.779 31.6595C17.5575 31.6595 20.6204 28.5964 20.6204 24.818H13.779V17.9766Z" fill="#A3C8F6"/>
<path d="M13.7738 32.2976C9.65103 32.2976 6.29688 28.9434 6.29688 24.8207C6.29688 20.6979 9.65103 17.3438 13.7738 17.3438C14.1247 17.3438 14.4093 17.6283 14.4093 17.9792V24.1852H20.6153C20.9662 24.1852 21.2507 24.4698 21.2507 24.8207C21.2509 28.9434 17.8967 32.2976 13.7738 32.2976ZM13.1383 18.6469C10.0137 18.9662 7.56781 21.6133 7.56781 24.8207C7.56781 28.2426 10.3519 31.0266 13.7738 31.0266C16.9814 31.0266 19.6283 28.5807 19.9476 25.4562H13.7738C13.4229 25.4562 13.1383 25.1716 13.1383 24.8207V18.6469Z" fill="#10335E"/>
<path d="M16.2891 15.4531V22.2946H23.1305C23.1305 18.5161 20.0676 15.4531 16.2891 15.4531Z" fill="#EBF0F5"/>
<path d="M23.1332 22.9327H16.2917C15.9408 22.9327 15.6562 22.6482 15.6562 22.2973V15.4558C15.6562 15.1049 15.9408 14.8203 16.2917 14.8203C20.4145 14.8203 23.7687 18.1745 23.7687 22.2973C23.7687 22.6482 23.4841 22.9327 23.1332 22.9327ZM16.9272 21.6618H22.4655C22.1677 18.7461 19.8431 16.4214 16.9272 16.1234V21.6618Z" fill="#10335E"/>
<path d="M45.2342 35.0265H25.9323C25.5814 35.0265 25.2969 34.742 25.2969 34.391V24.198C25.2969 23.847 25.5814 23.5625 25.9323 23.5625C26.2833 23.5625 26.5678 23.847 26.5678 24.198V33.7556H45.2342C45.5852 33.7556 45.8697 34.0401 45.8697 34.391C45.8697 34.742 45.5852 35.0265 45.2342 35.0265Z" fill="#10335E"/>
<path d="M28.4844 30.375H32.0628V34.383H28.4844V30.375Z" fill="#EBF0F5"/>
<path d="M32.0578 35.0211H28.4792C28.1283 35.0211 27.8438 34.7366 27.8438 34.3856V30.3777C27.8438 30.0267 28.1283 29.7422 28.4792 29.7422H32.0578C32.4087 29.7422 32.6931 30.0267 32.6931 30.3777V34.3856C32.6931 34.7366 32.4087 35.0211 32.0578 35.0211ZM29.1147 33.7502H31.4223V31.0131H29.1147V33.7502Z" fill="#10335E"/>
<path d="M33.7891 28.0859H37.3675V34.3909H33.7891V28.0859Z" fill="#EBF0F5"/>
<path d="M37.3701 35.0289H33.7917C33.4408 35.0289 33.1562 34.7444 33.1562 34.3934V28.0886C33.1562 27.7377 33.4408 27.4531 33.7917 27.4531H37.3701C37.721 27.4531 38.0056 27.7377 38.0056 28.0886V34.3934C38.0056 34.7444 37.721 35.0289 37.3701 35.0289ZM34.4272 33.758H36.7346V28.7241H34.4272V33.758Z" fill="#10335E"/>
<path d="M39.1016 24.375H42.68V34.3812H39.1016V24.375Z" fill="#EBF0F5"/>
<path d="M42.6825 35.0194H39.1041C38.7532 35.0194 38.4688 34.7348 38.4688 34.3839V24.3777C38.4688 24.0267 38.7532 23.7422 39.1041 23.7422H42.6825C43.0334 23.7422 43.3181 24.0267 43.3181 24.3777V34.3839C43.3181 34.7348 43.0336 35.0194 42.6825 35.0194ZM39.7397 33.7484H42.0472V25.0131H39.7397V33.7484Z" fill="#10335E"/>
<path d="M45.2342 13.3881H25.9323C25.5814 13.3881 25.2969 13.1036 25.2969 12.7527C25.2969 12.4017 25.5814 12.1172 25.9323 12.1172H45.2342C45.5852 12.1172 45.8697 12.4017 45.8697 12.7527C45.8697 13.1036 45.5852 13.3881 45.2342 13.3881Z" fill="#10335E"/>
<path d="M45.2342 16.3413H25.9323C25.5814 16.3413 25.2969 16.0567 25.2969 15.7058C25.2969 15.3549 25.5814 15.0703 25.9323 15.0703H45.2342C45.5852 15.0703 45.8697 15.3549 45.8697 15.7058C45.8697 16.0567 45.5852 16.3413 45.2342 16.3413Z" fill="#10335E"/>
<path d="M45.2395 19.3022H35.5886C35.2377 19.3022 34.9531 19.0176 34.9531 18.6667C34.9531 18.3158 35.2377 18.0312 35.5886 18.0312H45.2395C45.5905 18.0312 45.875 18.3158 45.875 18.6667C45.875 19.0176 45.5905 19.3022 45.2395 19.3022Z" fill="#10335E"/>
<path d="M9.14295 3.59907H7.08078C6.72986 3.59907 6.44531 3.31452 6.44531 2.96359C6.44531 2.61267 6.72986 2.32812 7.08078 2.32812H9.14295C9.49387 2.32812 9.77842 2.61267 9.77842 2.96359C9.77842 3.31452 9.49387 3.59907 9.14295 3.59907Z" fill="#10335E"/>
<path d="M41.0073 44.1616H37.5027C37.1517 44.1616 36.8672 43.877 36.8672 43.5261C36.8672 43.1752 37.1517 42.8906 37.5027 42.8906H41.0073C41.3583 42.8906 41.6428 43.1752 41.6428 43.5261C41.6428 43.877 41.3584 44.1616 41.0073 44.1616Z" fill="#10335E"/>
<path d="M10.704 42.2944H8.66672C8.3158 42.2944 8.03125 42.0098 8.03125 41.6589C8.03125 41.308 8.3158 41.0234 8.66672 41.0234H10.704C11.055 41.0234 11.3395 41.308 11.3395 41.6589C11.3395 42.0098 11.055 42.2944 10.704 42.2944Z" fill="#10335E"/>
</g>
<defs>
<clipPath id="clip0_10082_5556">
<rect width="53" height="48" fill="white"/>
</clipPath>
</defs>
</svg>
