<svg width="15" height="14" viewBox="0 0 15 14" fill="none" xmlns="http://www.w3.org/2000/svg">
<path d="M4.73487 15.0588H3.70547L3.51074 14.9151L3.29369 15.0588H2.2643L1.85254 14.647V12.3823H5.14662V14.647L4.73487 15.0588Z" fill="#DBD8DB"/>
<path d="M3.29443 12.5879H3.70619V15.0585H3.29443V12.5879Z" fill="#C9C5C9"/>
<path d="M5.55486 12.7397L6.51049 13.174C6.80789 13.3062 6.81379 13.4189 6.81379 13.6341V14.6467L6.5878 15.0584H4.73486L5.08175 12.8037L5.55486 12.7397Z" fill="#615260"/>
<path d="M6.99983 14.647V13.741C6.99983 13.4156 6.80817 13.1207 6.51077 12.9885L5.1469 12.3823L5.08203 12.804L6.34358 13.3649C6.49217 13.4308 6.58805 13.5784 6.58805 13.7411V15.0588C6.81547 15.0588 6.99983 14.8744 6.99983 14.647Z" fill="#4E3D4D"/>
<path d="M4.16978 6H2.67653C1.88059 6 1.23535 6.64523 1.23535 7.44118V9.08821H5.36636V7.21787C5.36636 6.64935 4.97049 6 4.16978 6Z" fill="#7A4646"/>
<path d="M4.73545 6H4.16992C4.60045 6.0269 4.94133 6.38441 4.94133 6.82172V9.08821H5.76485V7.02939C5.76485 6.46087 5.30397 6 4.73545 6Z" fill="#70393C"/>
<path d="M2.4707 11.3096H4.31267V12.5882H2.4707V11.3096Z" fill="#E29A6C"/>
<path d="M4.52951 12.5876V10.5288H2.4707V11.309C2.7798 11.4672 3.12903 11.5582 3.5001 11.5582C3.55437 11.5582 3.60815 11.5562 3.6614 11.5522C3.9058 11.5341 4.11773 11.7164 4.11773 11.9615V12.5876H4.52951V12.5876Z" fill="#D48C64"/>
<path d="M5.20586 8.9748C5.20586 8.9748 4.94102 8.76905 4.94102 8.2645C4.94102 8.02823 4.7673 7.82791 4.5334 7.7945L2.52869 7.50812C2.28063 7.47269 2.05869 7.66516 2.05869 7.91574V8.2645C2.05869 8.49191 1.87433 8.67625 1.64693 8.67625H1.46309C1.25799 8.67625 1.06787 8.81641 1.03493 9.01885C0.992973 9.27681 1.19097 9.49977 1.44105 9.49977H1.659C1.75409 10.3589 2.43592 11.0412 3.29518 11.1356C3.29518 11.1356 3.43066 11.1326 3.49984 11.1326C4.45352 11.1326 5.09793 10.4261 5.20042 9.49974L5.20586 8.9748Z" fill="#F4AA73"/>
<path d="M4.32355 9.29391C4.20975 9.29391 4.11768 9.20181 4.11768 9.08803V8.88215C4.11768 8.76834 4.20977 8.67627 4.32355 8.67627C4.43734 8.67627 4.52943 8.76836 4.52943 8.88215V9.08803C4.52943 9.20184 4.43734 9.29391 4.32355 9.29391Z" fill="#7A4646"/>
<path d="M2.67658 9.29391C2.56277 9.29391 2.4707 9.20181 2.4707 9.08803V8.88215C2.4707 8.76834 2.5628 8.67627 2.67658 8.67627C2.79037 8.67627 2.88246 8.76836 2.88246 8.88215V9.08803C2.88246 9.20184 2.79039 9.29391 2.67658 9.29391Z" fill="#7A4646"/>
<path d="M3.5 12.5658L4.39414 11.9858C4.58324 11.8631 4.83582 11.9153 4.96085 12.1028L5.14705 12.3821L4.77501 13.0022C4.64562 13.2178 4.35485 13.2681 4.16054 13.1085L3.5 12.5658Z" fill="#ECEAEC"/>
<path d="M3.49959 12.5658L2.60545 11.9858C2.41635 11.8631 2.16378 11.9153 2.03875 12.1028L1.85254 12.3821L2.22458 13.0022C2.35397 13.2178 2.64474 13.2681 2.83905 13.1085L3.49959 12.5658Z" fill="#ECEAEC"/>
<path d="M1.85293 12.3823L0.489068 12.9885C0.191668 13.1207 0 13.4156 0 13.741V14.647C0 14.8744 0.184363 15.0588 0.411757 15.0588H2.26469L1.85293 12.3823Z" fill="#615260"/>
<path d="M3.49975 10.2897C3.31479 10.2897 3.13544 10.2433 2.96696 10.1514C2.86703 10.0971 2.83004 9.97204 2.88453 9.87232C2.93861 9.77239 3.06389 9.7352 3.16361 9.7899C3.37874 9.9065 3.62082 9.9065 3.83594 9.7899C3.93567 9.7352 4.06092 9.77239 4.11502 9.87232C4.16949 9.97204 4.13252 10.0971 4.0326 10.1514C3.86407 10.2433 3.68474 10.2897 3.49975 10.2897Z" fill="#D48C64"/>
<path d="M5.96498 9.01852C5.93204 8.81608 5.74192 8.67592 5.53681 8.67592H5.35298C5.12558 8.67592 4.94122 8.49155 4.94122 8.26416V9.29355C4.94122 10.2468 4.22109 11.0322 3.29541 11.1353C3.36267 11.1427 3.43081 11.1465 3.50007 11.1465C4.45375 11.1465 5.23839 10.4258 5.34091 9.49941H5.55885C5.80893 9.49943 6.00694 9.2765 5.96498 9.01852Z" fill="#E29A6C"/>
<path d="M11.9118 5H11.0883C9.95123 5 9.02945 5.92176 9.02945 7.05884V8.50004C9.02945 9.07902 8.72417 9.65797 8.54287 9.95079C8.4517 10.098 8.4587 10.2857 8.56513 10.4223C8.68966 10.5822 8.90066 10.7542 9.23533 10.7648C9.23533 10.7648 9.50279 11.3512 10.2364 11.3596L11.5001 12.0001L13.5589 9.84381V7.05882C13.5589 6.02861 13.0489 5 11.9118 5Z" fill="#FFAA5A"/>
<path d="M11.9648 5.00133C11.9475 5.00044 11.9301 5 11.9126 5C11.9301 5 11.9474 5.00088 11.9648 5.00133Z" fill="#FF8B57"/>
<path d="M14.458 9.95039C14.2767 9.65757 13.9714 9.07862 13.9714 8.49964V7.05847C13.9714 5.93916 13.0781 5.02917 11.9656 5.00098C12.5095 5.02855 12.942 5.47828 12.942 6.02906V6.64671C12.942 6.7604 12.8498 6.85259 12.7361 6.85259H11.9126V11.791L12.7645 11.3592C13.4981 11.3509 13.7656 10.7644 13.7656 10.7644C14.1002 10.7538 14.3112 10.5817 14.4358 10.4219C14.5422 10.2853 14.5492 10.0976 14.458 9.95039Z" fill="#FF8B57"/>
<path d="M12.1273 12.2059H10.6763V10.8066L12.1273 10.7129V12.2059Z" fill="#FFD18D"/>
<path d="M12.3233 12.2058V10.147H10.6763V10.8065C10.9159 10.9042 11.1738 10.9633 11.4441 10.9698C11.463 10.9702 11.5043 10.9705 11.5059 10.9705C11.7279 10.97 11.9116 11.1413 11.9116 11.3634V12.2058H12.3233Z" fill="#FBBD80"/>
<path d="M12.3011 6.85303H11.434C10.4471 6.85303 9.64697 7.65312 9.64697 8.64009V8.64039C9.64697 9.60391 10.3571 10.4417 11.2965 10.5476C11.2965 10.5476 11.401 10.5449 11.4541 10.5449C12.4286 10.5449 13.1671 9.57584 13.2321 8.61741L12.3011 6.85303Z" fill="#FFE09C"/>
<path d="M13.1468 11.7939L11.4997 11.9776L9.85268 11.7939L9.44092 12.8234L10.2644 14.4704H12.7351L13.5586 12.8234L13.1468 11.7939Z" fill="#DBD8DB"/>
<path d="M14.4063 12.5525L13.44 12.123L13.0817 12.2158L12.7349 14.4705H14.5878L14.7912 14.1648V13.1448C14.7912 12.8887 14.6404 12.6565 14.4063 12.5525Z" fill="#FFAA5A"/>
<path d="M8.48905 12.4001L9.85294 11.7939L10.2647 14.4704H8.41176C8.18434 14.4704 8 14.2861 8 14.0587V13.1527C7.99998 12.8272 8.19165 12.5323 8.48905 12.4001Z" fill="#FFAA5A"/>
<path d="M11.5003 11.978L11.2944 11.9551V12.6179C11.2944 12.7316 11.3865 12.8238 11.5003 12.8238C11.6141 12.8238 11.7062 12.7316 11.7062 12.6179V11.9551L11.5003 11.978Z" fill="#C9C5C9"/>
<path d="M11.5 11.9781L12.3898 11.4009L12.8017 11.7122L12.9127 12.1851L12.7751 12.4145C12.6457 12.6302 12.3549 12.6804 12.1606 12.5208L11.5 11.9781Z" fill="#ECEAEC"/>
<path d="M11.5001 11.9775L10.6059 11.3974C10.4168 11.2748 10.1643 11.3269 10.0392 11.5145L9.85303 11.7938L10.2251 12.4138C10.3545 12.6295 10.6452 12.6798 10.8396 12.5201L11.5001 11.9775Z" fill="#ECEAEC"/>
<path d="M11.4998 13.6466C11.6135 13.6466 11.7057 13.5545 11.7057 13.4407C11.7057 13.327 11.6135 13.2349 11.4998 13.2349C11.3861 13.2349 11.2939 13.327 11.2939 13.4407C11.2939 13.5545 11.3861 13.6466 11.4998 13.6466Z" fill="#ECEAEC"/>
<path d="M13.9653 8.43092C13.932 8.22654 13.7385 8.08563 13.5312 8.08837C13.2938 8.09148 13.09 7.91632 13.015 7.69109L12.7356 6.85303H12.3015L12.8493 8.49614C12.9222 8.71496 12.938 8.95141 12.8799 9.17462C12.6895 9.90523 12.0642 10.4613 11.2969 10.5476C11.3486 10.5534 11.4015 10.5571 11.4545 10.5584C12.4288 10.5819 13.237 9.853 13.3412 8.91185H13.5591C13.8092 8.91185 14.0072 8.68891 13.9653 8.43092Z" fill="#FFD18D"/>
<path d="M14.9999 14.0587V13.1526C14.9999 12.8272 14.8082 12.5323 14.5108 12.4001L13.1469 11.7939L13.082 12.2157L14.3436 12.7764C14.4922 12.8425 14.5881 12.9901 14.5881 13.1527V14.4704C14.8155 14.4704 14.9999 14.2861 14.9999 14.0587Z" fill="#FF8B57"/>
<path d="M12.394 11.3974L12.3896 11.4002L12.9125 12.1845L13.1469 11.7938L12.9607 11.5145C12.8356 11.3269 12.5831 11.2748 12.394 11.3974Z" fill="#DBD8DB"/>
<path d="M12.3236 8.70554C12.2097 8.70554 12.1177 8.61334 12.1177 8.49965V8.29377C12.1177 8.18009 12.2098 8.08789 12.3236 8.08789C12.4373 8.08789 12.5294 8.18009 12.5294 8.29377V8.49965C12.5294 8.61337 12.4373 8.70554 12.3236 8.70554Z" fill="#AF6E4D"/>
<path d="M10.6766 8.70554C10.5628 8.70554 10.4707 8.61334 10.4707 8.49965V8.29377C10.4707 8.18009 10.5628 8.08789 10.6766 8.08789C10.7904 8.08789 10.8825 8.18009 10.8825 8.29377V8.49965C10.8825 8.61337 10.7904 8.70554 10.6766 8.70554Z" fill="#AF6E4D"/>
<path d="M11.5002 9.70134C11.3153 9.70134 11.1359 9.65489 10.9674 9.56302C10.8675 9.50874 10.8305 9.38366 10.885 9.28394C10.9391 9.18402 11.0644 9.14682 11.1641 9.20152C11.3792 9.31812 11.6213 9.31812 11.8364 9.20152C11.9362 9.14682 12.0614 9.18402 12.1155 9.28394C12.17 9.38366 12.133 9.50872 12.0331 9.56302C11.8646 9.65489 11.6852 9.70134 11.5002 9.70134Z" fill="#FBBD80"/>
<path d="M2.15909 1.53267V1.09091H4.48011V1.53267H3.58097V4H3.05824V1.53267H2.15909ZM5.47433 4.04261C5.25558 4.04261 5.06666 3.99716 4.90757 3.90625C4.74943 3.81439 4.62774 3.68466 4.54251 3.51705C4.45729 3.34848 4.41467 3.15009 4.41467 2.92188C4.41467 2.69744 4.45729 2.50047 4.54251 2.33097C4.62869 2.16051 4.74895 2.02794 4.90331 1.93324C5.05767 1.83759 5.23901 1.78977 5.44734 1.78977C5.58181 1.78977 5.70871 1.81155 5.82803 1.85511C5.94829 1.89773 6.05435 1.96402 6.14621 2.05398C6.23901 2.14394 6.31193 2.25852 6.36496 2.39773C6.41799 2.53598 6.4445 2.70076 6.4445 2.89205V3.04972H4.65615V2.70312H5.95161C5.95066 2.60464 5.92935 2.51705 5.88768 2.44034C5.84602 2.36269 5.78778 2.30161 5.71297 2.2571C5.63911 2.21259 5.55293 2.19034 5.45445 2.19034C5.34933 2.19034 5.257 2.21591 5.17746 2.26705C5.09791 2.31723 5.03589 2.38352 4.99138 2.46591C4.94782 2.54735 4.92556 2.63684 4.92462 2.73438V3.03693C4.92462 3.16383 4.94782 3.27273 4.99422 3.36364C5.04062 3.4536 5.10549 3.52273 5.18882 3.57102C5.27215 3.61837 5.36969 3.64205 5.48143 3.64205C5.55625 3.64205 5.62395 3.63163 5.68456 3.6108C5.74517 3.58902 5.79772 3.55729 5.84223 3.51562C5.88674 3.47396 5.92036 3.42235 5.94308 3.3608L6.4232 3.41477C6.39289 3.54167 6.33513 3.65246 6.2499 3.74716C6.16562 3.84091 6.05767 3.91383 5.92604 3.96591C5.79441 4.01705 5.64384 4.04261 5.47433 4.04261ZM7.42736 4.04403C7.2891 4.04403 7.16457 4.01941 7.05378 3.97017C6.94393 3.91998 6.85681 3.84612 6.79241 3.74858C6.72897 3.65104 6.69724 3.53078 6.69724 3.38778C6.69724 3.26468 6.71997 3.16288 6.76543 3.08239C6.81088 3.00189 6.87291 2.9375 6.95151 2.8892C7.0301 2.84091 7.11865 2.80445 7.21713 2.77983C7.31656 2.75426 7.41931 2.7358 7.52537 2.72443C7.65321 2.71117 7.7569 2.69934 7.83645 2.68892C7.91599 2.67756 7.97376 2.66051 8.00974 2.63778C8.04668 2.61411 8.06514 2.57765 8.06514 2.52841V2.51989C8.06514 2.41288 8.03342 2.33002 7.96997 2.27131C7.90652 2.21259 7.81514 2.18324 7.69582 2.18324C7.56988 2.18324 7.46997 2.2107 7.39611 2.26562C7.32319 2.32055 7.27395 2.38542 7.24838 2.46023L6.76827 2.39205C6.80615 2.25947 6.86865 2.14867 6.95577 2.05966C7.04289 1.9697 7.14942 1.90246 7.27537 1.85795C7.40132 1.8125 7.54052 1.78977 7.69298 1.78977C7.7981 1.78977 7.90274 1.80208 8.0069 1.8267C8.11107 1.85133 8.20624 1.89205 8.29242 1.94886C8.37859 2.00473 8.44772 2.08097 8.4998 2.17756C8.55283 2.27415 8.57935 2.39489 8.57935 2.53977V4H8.08503V3.70028H8.06798C8.03673 3.76089 7.9927 3.81771 7.93588 3.87074C7.88001 3.92282 7.80946 3.96496 7.72423 3.99716C7.63995 4.02841 7.54099 4.04403 7.42736 4.04403ZM7.56088 3.66619C7.6641 3.66619 7.75359 3.64583 7.82935 3.60511C7.9051 3.56345 7.96334 3.50852 8.00406 3.44034C8.04573 3.37216 8.06656 3.29782 8.06656 3.21733V2.96023C8.05046 2.97348 8.023 2.9858 7.98418 2.99716C7.9463 3.00852 7.90368 3.01847 7.85634 3.02699C7.80899 3.03551 7.76211 3.04309 7.71571 3.04972C7.66931 3.05634 7.62906 3.06203 7.59497 3.06676C7.51827 3.07718 7.44961 3.09422 7.38901 3.1179C7.3284 3.14157 7.28058 3.17472 7.24554 3.21733C7.2105 3.259 7.19298 3.31297 7.19298 3.37926C7.19298 3.47396 7.22755 3.54545 7.29668 3.59375C7.36581 3.64205 7.45387 3.66619 7.56088 3.66619ZM9.01639 4V1.81818H9.50787V2.18892H9.53344C9.57889 2.06392 9.65418 1.96638 9.75929 1.89631C9.8644 1.82528 9.98988 1.78977 10.1357 1.78977C10.2834 1.78977 10.408 1.82576 10.5093 1.89773C10.6116 1.96875 10.6835 2.06581 10.7252 2.18892H10.7479C10.7962 2.06771 10.8777 1.97112 10.9922 1.89915C11.1078 1.82623 11.2446 1.78977 11.4028 1.78977C11.6035 1.78977 11.7673 1.85322 11.8942 1.98011C12.0211 2.10701 12.0846 2.29214 12.0846 2.53551V4H11.5689V2.61506C11.5689 2.47964 11.533 2.38068 11.461 2.31818C11.389 2.25473 11.301 2.22301 11.1968 2.22301C11.0727 2.22301 10.9757 2.26184 10.9056 2.33949C10.8365 2.41619 10.8019 2.5161 10.8019 2.6392V4H10.2976V2.59375C10.2976 2.48106 10.2636 2.3911 10.1954 2.32386C10.1281 2.25663 10.0401 2.22301 9.93116 2.22301C9.8573 2.22301 9.79007 2.24195 9.72946 2.27983C9.66885 2.31676 9.62056 2.36932 9.58457 2.4375C9.54859 2.50473 9.5306 2.58333 9.5306 2.6733V4H9.01639Z" fill="#10335E"/>
</svg>
