<svg width="52" height="57" viewBox="0 0 52 57" fill="none" xmlns="http://www.w3.org/2000/svg">
<g clip-path="url(#clip0_10082_5617)">
<g filter="url(#filter0_d_10082_5617)">
<path d="M5.50744 38.9989C5.35366 38.9989 5.19987 38.9402 5.0827 38.8229L4.17597 37.916C3.94134 37.6814 3.94134 37.301 4.17597 37.0665C4.41032 36.8321 4.79111 36.8319 5.02546 37.0665L5.93218 37.9734C6.16681 38.208 6.16681 38.5884 5.93218 38.8229C5.81501 38.9402 5.66122 38.9989 5.50744 38.9989Z" fill="#10335E"/>
<path d="M4.60072 41.6474C4.44693 41.6474 4.29329 41.5887 4.17597 41.4714C3.94134 41.2368 3.94134 40.8564 4.17597 40.6219L5.0827 39.715C5.31705 39.4804 5.69755 39.4804 5.93218 39.715C6.16681 39.9497 6.16681 40.33 5.93218 40.5645L5.02546 41.4714C4.90828 41.5887 4.7545 41.6474 4.60072 41.6474Z" fill="#10335E"/>
<path d="M8.16369 41.6473C8.00991 41.6473 7.85612 41.5886 7.73895 41.4713L6.83222 40.5645C6.59759 40.3298 6.59759 39.9495 6.83222 39.715C7.06657 39.4805 7.44736 39.4804 7.68171 39.715L8.58843 40.6218C8.82306 40.8565 8.82306 41.2368 8.58843 41.4713C8.47126 41.5886 8.31747 41.6473 8.16369 41.6473Z" fill="#10335E"/>
<path d="M7.25697 38.9989C7.10318 38.9989 6.94954 38.9403 6.83222 38.823C6.59759 38.5883 6.59759 38.208 6.83222 37.9735L7.73895 37.0666C7.9733 36.832 8.3538 36.832 8.58843 37.0666C8.82306 37.3012 8.82306 37.6816 8.58843 37.9161L7.68171 38.823C7.56453 38.9403 7.41075 38.9989 7.25697 38.9989Z" fill="#10335E"/>
<path d="M43.7887 3.13168C43.6349 3.13168 43.4811 3.07302 43.364 2.95571L42.4572 2.04884C42.2226 1.81421 42.2226 1.43385 42.4572 1.19936C42.6916 0.964868 43.0724 0.964726 43.3067 1.19936L44.2134 2.10623C44.4481 2.34086 44.4481 2.72122 44.2134 2.95571C44.0963 3.07302 43.9425 3.13168 43.7887 3.13168Z" fill="#10335E"/>
<path d="M42.882 5.78017C42.7282 5.78017 42.5745 5.72151 42.4572 5.6042C42.2226 5.36956 42.2226 4.98921 42.4572 4.75472L43.364 3.84785C43.5983 3.61322 43.9788 3.61322 44.2134 3.84785C44.4481 4.08248 44.4481 4.46284 44.2134 4.69733L43.3067 5.6042C43.1895 5.72151 43.0357 5.78017 42.882 5.78017Z" fill="#10335E"/>
<path d="M46.4449 5.78012C46.2912 5.78012 46.1374 5.72146 46.0202 5.60414L45.1135 4.69728C44.8788 4.46264 44.8788 4.08229 45.1135 3.8478C45.3478 3.61331 45.7286 3.61316 45.963 3.8478L46.8697 4.75466C47.1043 4.9893 47.1043 5.36965 46.8697 5.60414C46.7525 5.72146 46.5987 5.78012 46.4449 5.78012Z" fill="#10335E"/>
<path d="M45.5382 3.13173C45.3844 3.13173 45.2308 3.07307 45.1135 2.95576C44.8788 2.72113 44.8788 2.34077 45.1135 2.10628L46.0202 1.19941C46.2546 0.96478 46.6351 0.96478 46.8697 1.19941C47.1043 1.43404 47.1043 1.8144 46.8697 2.04889L45.963 2.95576C45.8458 3.07307 45.692 3.13173 45.5382 3.13173Z" fill="#10335E"/>
<path d="M35.7498 26.1797H15.2031V47.4072L25.4765 43.9398L35.7498 47.4072V26.1797Z" fill="white"/>
<path d="M15.2023 48.007C15.0782 48.007 14.9553 47.9685 14.8519 47.8943C14.6947 47.7815 14.6016 47.5999 14.6016 47.4063V26.1788C14.6016 25.8471 14.8704 25.5781 15.2023 25.5781H35.749C36.0809 25.5781 36.3497 25.8471 36.3497 26.1788V47.4063C36.3497 47.5998 36.2565 47.7814 36.0994 47.8943C35.9423 48.0071 35.7401 48.0375 35.5569 47.9754L25.4756 44.5729L15.3945 47.9754C15.3317 47.9966 15.2669 48.007 15.2023 48.007ZM25.4756 43.3382C25.5405 43.3382 25.6054 43.3487 25.6677 43.3697L35.1483 46.5696V26.7796H15.803V46.5695L25.2834 43.3696C25.3459 43.3487 25.4107 43.3382 25.4756 43.3382Z" fill="#10335E"/>
<path d="M27.5125 1.51716C28.3262 2.4294 29.6458 2.69187 30.7466 2.16042C32.2198 1.44931 33.9838 2.17992 34.5227 3.72454C34.9254 4.87862 36.0442 5.62619 37.2645 5.5565C38.8978 5.46322 40.2479 6.81334 40.1546 8.44658C40.0849 9.66695 40.8325 10.7857 41.9866 11.1884C43.5312 11.7272 44.262 13.4913 43.5507 14.9645C43.0194 16.0653 43.2819 17.3851 44.194 18.1986C45.4148 19.2876 45.4148 21.197 44.194 22.2859C43.2817 23.0996 43.0192 24.4192 43.5507 25.52C44.2618 26.9933 43.5312 28.7572 41.9866 29.2962C40.8325 29.6989 40.0849 30.8176 40.1546 32.038C40.2479 33.6712 38.8978 35.0213 37.2645 34.9281C36.0442 34.8584 34.9254 35.6059 34.5227 36.76C33.9839 38.3046 32.2198 39.0352 30.7466 38.3241C29.6458 37.7928 28.3261 38.0553 27.5125 38.9674C26.4236 40.1882 24.5141 40.1882 23.4252 38.9674C22.6115 38.0552 21.2919 37.7927 20.1911 38.3241C18.7179 39.0352 16.9539 38.3046 16.4149 36.76C16.0123 35.6059 14.8935 34.8584 13.6731 34.9281C12.0399 35.0213 10.6898 33.6712 10.7831 32.038C10.8527 30.8176 10.1052 29.6989 8.9511 29.2962C7.40648 28.7574 6.67587 26.9933 7.38698 25.52C7.91829 24.4192 7.65582 23.0995 6.74372 22.2859C5.52293 21.197 5.52293 19.2876 6.74372 18.1986C7.65596 17.3849 7.91844 16.0653 7.38698 14.9645C6.67587 13.4913 7.40648 11.7273 8.9511 11.1884C10.1052 10.7857 10.8527 9.66695 10.7831 8.44658C10.6898 6.81334 12.0399 5.46322 13.6731 5.5565C14.8935 5.62619 16.0123 4.87862 16.4149 3.72454C16.9537 2.17992 18.7179 1.44931 20.1911 2.16042C21.2919 2.69173 22.6116 2.42925 23.4252 1.51716C24.5141 0.296363 26.4234 0.296363 27.5125 1.51716Z" fill="#A3C8F6"/>
<path d="M25.4758 40.4832C24.5249 40.4832 23.6168 40.0763 22.9839 39.3667C22.5786 38.9125 21.9969 38.6518 21.3875 38.6518C21.0638 38.6518 20.7515 38.7233 20.4592 38.8645C20.0014 39.0855 19.5137 39.1975 19.0097 39.1975C17.5902 39.1975 16.3222 38.2973 15.8547 36.9572C15.5422 36.0614 14.6728 35.4731 13.7143 35.5271C12.7263 35.5832 11.7686 35.1978 11.0961 34.4857C10.459 33.8113 10.1375 32.9295 10.1903 32.003C10.2443 31.0554 9.65633 30.1752 8.76021 29.8626C7.86253 29.5495 7.13899 28.8661 6.77517 27.9876C6.41135 27.1093 6.43962 26.1144 6.85305 25.2581C7.26564 24.4034 7.05913 23.3653 6.35071 22.7334C5.64116 22.1005 5.23438 21.1922 5.23438 20.2415C5.23438 19.2909 5.64131 18.3826 6.35071 17.7496C7.05913 17.1178 7.26564 16.0796 6.85305 15.2249C6.43962 14.3687 6.41135 13.3737 6.77517 12.4954C7.13899 11.617 7.86253 10.9336 8.76021 10.6205C9.65633 10.3078 10.2443 9.42769 10.1903 8.48011C10.1375 7.5536 10.459 6.67203 11.0961 5.99754C11.7245 5.33208 12.6083 4.95059 13.5207 4.95059C13.5849 4.95059 13.6493 4.95243 13.7143 4.95611C14.6691 5.0101 15.5421 4.42211 15.8547 3.52598C16.3223 2.18604 17.59 1.28567 19.0097 1.28567C19.5136 1.28567 20.0014 1.39762 20.4592 1.61868C20.7515 1.75988 21.0638 1.8314 21.3875 1.8314C21.9967 1.8314 22.5786 1.57076 22.9839 1.11648C23.6168 0.406931 24.5249 0 25.4758 0C26.4267 0 27.3349 0.406931 27.9678 1.11648C28.3729 1.57076 28.9547 1.8314 29.564 1.8314C29.8877 1.8314 30.2001 1.75988 30.4924 1.61868C30.9502 1.39762 31.4378 1.28567 31.9419 1.28567C33.3615 1.28567 34.6294 2.18604 35.0968 3.52598C35.4093 4.42197 36.2793 5.0101 37.2372 4.95611C38.2238 4.89886 39.1828 5.28544 39.8555 5.99739C40.4925 6.67175 40.8142 7.5536 40.7613 8.48025C40.7072 9.42783 41.2952 10.308 42.1915 10.6206C43.0891 10.9339 43.8127 11.6173 44.1765 12.4957C44.5403 13.374 44.5119 14.369 44.0986 15.2252C43.686 16.0799 43.8925 17.1181 44.6008 17.7499C45.3104 18.3827 45.7173 19.291 45.7173 20.2418C45.7173 21.1926 45.3102 22.1009 44.6008 22.7337C43.8925 23.3655 43.686 24.4037 44.0985 25.2584C44.5119 26.1145 44.5403 27.1093 44.1765 27.9878C43.8127 28.8662 43.0891 29.5496 42.1915 29.8629C41.2952 30.1755 40.7072 31.0557 40.7613 32.0032C40.8142 32.9298 40.4925 33.8113 39.8556 34.4858C39.2272 35.1511 38.3434 35.5328 37.4308 35.5329C37.3667 35.5329 37.3022 35.5311 37.2372 35.5274C36.2823 35.4734 35.4093 36.0615 35.0968 36.9575C34.6292 38.2975 33.3615 39.1978 31.9419 39.1978C31.438 39.1978 30.9502 39.0859 30.4924 38.8648C30.2001 38.7236 29.8877 38.6521 29.564 38.6521C28.9547 38.6521 28.3729 38.9127 27.9678 39.367C27.3349 40.0763 26.4266 40.4832 25.4758 40.4832ZM21.3875 37.4504C22.3388 37.4504 23.2475 37.8573 23.8806 38.567C24.2856 39.0213 24.8671 39.2818 25.4758 39.2818C26.0845 39.2818 26.666 39.0213 27.0711 38.567C27.7041 37.8575 28.6126 37.4504 29.564 37.4504C30.0628 37.4504 30.5646 37.5653 31.0148 37.7827C31.3084 37.9243 31.6203 37.9963 31.942 37.9963C32.8513 37.9963 33.6633 37.4197 33.9627 36.5616C34.4507 35.1624 35.8119 34.2421 37.3057 34.3278C37.3477 34.3302 37.3891 34.3313 37.4306 34.3313C38.0225 34.3313 38.5739 34.0932 38.9824 33.6608C39.3902 33.2291 39.596 32.6647 39.5622 32.0717C39.4776 30.5916 40.3961 29.2168 41.796 28.7284C42.3707 28.528 42.834 28.0904 43.067 27.528C43.2997 26.9656 43.2818 26.3288 43.0171 25.7807C42.3725 24.4457 42.6951 22.824 43.8014 21.8372C44.2557 21.4319 44.5163 20.8505 44.5163 20.2418C44.5163 19.6332 44.2557 19.0517 43.8014 18.6465C42.6952 17.6596 42.3725 16.0379 43.0169 14.7029C43.2815 14.1548 43.2997 13.5179 43.067 12.9555C42.834 12.3931 42.3707 11.9556 41.796 11.7551C40.3962 11.2667 39.4778 9.892 39.5622 8.41198C39.596 7.81876 39.3902 7.25423 38.9824 6.82256C38.5453 6.36008 37.9477 6.11852 37.3059 6.1557C35.815 6.24164 34.451 5.32134 33.9628 3.92189C33.6634 3.06379 32.8514 2.48724 31.9421 2.48724C31.6206 2.48724 31.3086 2.55904 31.0149 2.70081C30.5584 2.92117 30.0702 3.03297 29.5642 3.03297C28.6129 3.03297 27.7042 2.6259 27.0713 1.91635C26.6662 1.46221 26.0847 1.20157 25.4759 1.20157C24.8673 1.20157 24.2858 1.46207 23.8807 1.91635C23.2476 2.6259 22.3391 3.03297 21.3878 3.03297C20.8816 3.03297 20.3934 2.92117 19.9369 2.70067C19.6433 2.55904 19.3314 2.4871 19.0097 2.4871C18.1004 2.4871 17.2884 3.06364 16.989 3.92175C16.5008 5.32106 15.1398 6.24079 13.6459 6.15556C13.0047 6.11923 12.4065 6.3598 11.9696 6.82242C11.5618 7.25409 11.3559 7.81848 11.3898 8.4117C11.4742 9.89186 10.5556 11.2666 9.15598 11.7548C8.58127 11.9552 8.11795 12.3928 7.885 12.9552C7.65222 13.5176 7.67017 14.1544 7.9349 14.7027C8.57958 16.0378 8.25689 17.6595 7.15044 18.6463C6.69616 19.0514 6.43566 19.6329 6.43566 20.2417C6.43566 20.8505 6.69616 21.4318 7.15044 21.837C8.25675 22.8239 8.57944 24.4456 7.9349 25.7806C7.67031 26.3287 7.65222 26.9656 7.885 27.528C8.11795 28.0904 8.58127 28.5279 9.15584 28.7284C10.5554 29.2168 11.474 30.5915 11.3898 32.0715C11.3559 32.6649 11.5618 33.2293 11.9694 33.6609C12.4065 34.1234 13.0042 34.365 13.6459 34.3278C15.1399 34.242 16.501 35.1623 16.989 36.5616C17.2884 37.4197 18.1004 37.9963 19.0097 37.9963C19.3312 37.9963 19.6432 37.9245 19.9369 37.7827C20.3934 37.5622 20.8815 37.4504 21.3875 37.4504Z" fill="#10335E"/>
<path d="M39.6405 21.7388C37.7674 34.7316 22.0778 38.9356 13.9593 28.62C11.7708 25.8393 10.8062 22.2388 11.3111 18.7366C13.1842 5.74378 28.8737 1.53977 36.9922 11.8554C39.1807 14.6361 40.1454 18.2365 39.6405 21.7388Z" fill="white"/>
<path d="M25.4615 35.0048C20.7915 35.0048 16.5386 32.869 13.4862 28.9906C11.1973 26.082 10.1874 22.3131 10.7154 18.65C11.2834 14.711 13.0954 11.3546 15.9559 8.94385C18.6149 6.70297 22.0001 5.46875 25.4879 5.46875C30.158 5.46875 34.411 7.60461 37.4634 11.483C39.7522 14.3914 40.7622 18.1604 40.234 21.8236C39.6661 25.7626 37.854 29.1188 34.9936 31.5297C32.3345 33.7706 28.9495 35.0048 25.4615 35.0048ZM25.4881 6.67018C19.7896 6.67018 13.1083 10.4726 11.9046 18.8214C11.4233 22.1606 12.3437 25.5962 14.4304 28.2476C17.25 31.8302 21.1676 33.8034 25.4615 33.8034C31.16 33.8034 37.8413 30.0009 39.045 21.6521C39.5263 18.3129 38.6058 14.8771 36.5193 12.226C33.6995 8.64321 29.782 6.67018 25.4881 6.67018Z" fill="#10335E"/>
<path d="M20.8925 29.1816C20.7226 29.1816 20.5503 29.1385 20.3921 29.0475C19.9124 28.7704 19.7485 28.1576 20.0249 27.6777L28.7822 12.51C29.0588 12.0303 29.6713 11.8648 30.152 12.1428C30.6317 12.4198 30.7957 13.0327 30.5192 13.5126L21.7619 28.6803C21.5759 29.002 21.2391 29.1816 20.8925 29.1816Z" fill="#EBF0F5"/>
<path d="M20.8908 29.7813C20.6108 29.7813 20.3342 29.7074 20.0908 29.5672C19.325 29.1249 19.0617 28.1424 19.5031 27.3769L28.2605 12.2088C28.5458 11.714 29.0781 11.4062 29.6494 11.4062C29.9299 11.4062 30.2071 11.4809 30.4512 11.6219C31.2159 12.0636 31.4792 13.0461 31.0381 13.8117L22.2805 28.9798C21.9943 29.4743 21.462 29.7813 20.8908 29.7813ZM29.6492 12.6077C29.5061 12.6077 29.3726 12.6849 29.3011 12.8091L20.5435 27.9772C20.433 28.169 20.499 28.4156 20.691 28.5264C20.7524 28.5618 20.8199 28.58 20.8907 28.58C21.0365 28.58 21.1673 28.5046 21.2402 28.3785L29.9972 13.2112C30.1078 13.0194 30.0416 12.7729 29.8498 12.6621C29.7873 12.6259 29.7199 12.6077 29.6492 12.6077Z" fill="#10335E"/>
<path d="M21.1053 17.8144C20.5036 17.8144 19.9094 17.6543 19.3865 17.3528C18.5901 16.8932 18.0207 16.151 17.7829 15.2625C17.545 14.375 17.6668 13.4473 18.1265 12.6508C18.7399 11.5891 19.8829 10.9297 21.1097 10.9297C21.7108 10.9297 22.3052 11.0893 22.8284 11.3909C23.6245 11.8505 24.1942 12.5932 24.4321 13.4812C24.67 14.3693 24.5482 15.297 24.0885 16.0929C23.4755 17.1545 22.3324 17.8144 21.1053 17.8144ZM21.1097 12.9347C20.5966 12.9347 20.1194 13.2097 19.8633 13.6533C19.6714 13.9857 19.62 14.3728 19.7194 14.7439C19.8188 15.1145 20.0567 15.4239 20.3891 15.6157C21.0574 16.001 21.9713 15.7498 22.3517 15.0899C22.5436 14.7574 22.5945 14.3703 22.4951 13.9997C22.3958 13.6291 22.1583 13.3193 21.826 13.1273C21.6075 13.0012 21.3599 12.9347 21.1097 12.9347Z" fill="#EBF0F5"/>
<path d="M21.1048 18.4143C20.3989 18.4143 19.7006 18.2269 19.0859 17.8724C18.1504 17.3323 17.4812 16.4604 17.2021 15.4171C16.9225 14.3745 17.0658 13.2852 17.6056 12.3498C18.3261 11.1027 19.6686 10.3281 21.1091 10.3281C21.8153 10.3281 22.5134 10.5154 23.1278 10.8696C24.0635 11.41 24.7325 12.2819 25.0118 13.3249C25.2914 14.3682 25.1481 15.4575 24.6083 16.3924C23.8881 17.6395 22.5456 18.4143 21.1048 18.4143ZM21.1091 11.5294C20.0961 11.5294 19.1524 12.0739 18.6459 12.9504C18.2667 13.6075 18.1659 14.3731 18.3625 15.106C18.5589 15.8394 19.029 16.4522 19.6862 16.8315C20.1186 17.0809 20.6091 17.2127 21.1046 17.2127C22.1178 17.2127 23.0615 16.6681 23.5677 15.7914C23.9471 15.1344 24.0477 14.3689 23.8512 13.6356C23.6549 12.9024 23.1848 12.2897 22.5275 11.9101C22.0956 11.6611 21.605 11.5294 21.1091 11.5294ZM21.0824 16.3976C20.7295 16.3976 20.3857 16.307 20.0883 16.1356C19.6167 15.8632 19.2794 15.424 19.1387 14.8988C18.9977 14.373 19.0702 13.8237 19.3423 13.3522C19.7052 12.7236 20.3821 12.3331 21.109 12.3331C21.465 12.3331 21.8167 12.4277 22.126 12.6069C22.5964 12.8783 22.9336 13.3177 23.0745 13.8436C23.2156 14.3693 23.1432 14.9184 22.871 15.3898C22.513 16.0112 21.8275 16.3976 21.0824 16.3976ZM21.1091 13.5345C20.8102 13.5345 20.5319 13.6948 20.3829 13.9528C20.2711 14.1465 20.2413 14.372 20.2991 14.5877C20.3568 14.8028 20.4953 14.983 20.6888 15.0947C20.8037 15.161 20.9398 15.196 21.0824 15.196C21.3944 15.196 21.6881 15.0365 21.8304 14.7892C21.9425 14.5953 21.972 14.3702 21.9144 14.1546C21.8564 13.9386 21.7181 13.7584 21.525 13.6469C21.3976 13.5734 21.254 13.5345 21.1091 13.5345Z" fill="#10335E"/>
<path d="M29.8531 29.5488C29.2514 29.5488 28.6572 29.3892 28.134 29.0872C26.4906 28.1379 25.9257 26.0291 26.8744 24.3852C27.4879 23.3234 28.6309 22.6641 29.8577 22.6641C30.4588 22.6641 31.0532 22.8236 31.576 23.1253C32.3725 23.5849 32.9418 24.3275 33.1797 25.2156C33.4176 26.1037 33.2957 27.0313 32.8361 27.8272C32.2229 28.8889 31.0799 29.5488 29.8531 29.5488ZM29.8575 24.669C29.3444 24.669 28.8673 24.9441 28.6111 25.3876C28.2151 26.074 28.4506 26.9542 29.1364 27.3502C29.8037 27.7355 30.718 27.4838 31.099 26.8244C31.2909 26.492 31.3422 26.1048 31.2428 25.7342C31.1435 25.3636 30.9056 25.0538 30.5732 24.8618C30.3549 24.7356 30.1071 24.669 29.8575 24.669Z" fill="#EBF0F5"/>
<path d="M29.8521 30.1487C29.1454 30.1487 28.4472 29.9613 27.8327 29.6068C25.9027 28.492 25.2389 26.0145 26.353 24.0842C27.0734 22.8371 28.4159 22.0625 29.8565 22.0625C30.5627 22.0625 31.2606 22.2498 31.8748 22.604C32.8101 23.1439 33.4792 24.0157 33.7588 25.0593C34.0382 26.1027 33.8947 27.192 33.3551 28.1269C32.6352 29.3738 31.2929 30.1487 29.8521 30.1487ZM29.8565 23.2639C28.8435 23.2639 27.8997 23.8084 27.3933 24.6849C26.6104 26.0415 27.077 27.7827 28.4333 28.5662C28.8651 28.8154 29.3557 28.9473 29.852 28.9473C30.8649 28.9473 31.8085 28.4027 32.3145 27.526C32.6939 26.8691 32.7945 26.1034 32.5982 25.3701C32.4016 24.6368 31.9315 24.0239 31.2743 23.6446C30.8428 23.3955 30.3524 23.2639 29.8565 23.2639ZM29.8287 28.1318C29.4757 28.1318 29.1321 28.0411 28.8352 27.8696C27.8627 27.3082 27.5284 26.0597 28.0898 25.0867C28.4528 24.458 29.1297 24.0676 29.8567 24.0676C30.2123 24.0676 30.5637 24.1622 30.8731 24.3411C31.344 24.6132 31.6813 25.0525 31.8222 25.5779C31.963 26.1034 31.8905 26.6525 31.6184 27.1239C31.2592 27.7457 30.5734 28.1318 29.8287 28.1318ZM29.8565 25.269C29.5576 25.269 29.2793 25.4293 29.1303 25.6873C28.8999 26.0866 29.0369 26.599 29.4357 26.8292C29.5505 26.8955 29.6862 26.9304 29.8285 26.9304C30.1408 26.9304 30.4348 26.7707 30.5777 26.5232C30.6895 26.3296 30.7193 26.1042 30.6616 25.8888C30.6039 25.6734 30.4653 25.4931 30.2718 25.3814C30.1446 25.3078 30.0013 25.269 29.8565 25.269Z" fill="#10335E"/>
</g>
</g>
<defs>
<filter id="filter0_d_10082_5617" x="0" y="0" width="51.0459" height="56.0073" filterUnits="userSpaceOnUse" color-interpolation-filters="sRGB">
<feFlood flood-opacity="0" result="BackgroundImageFix"/>
<feColorMatrix in="SourceAlpha" type="matrix" values="0 0 0 0 0 0 0 0 0 0 0 0 0 0 0 0 0 0 127 0" result="hardAlpha"/>
<feOffset dy="4"/>
<feGaussianBlur stdDeviation="2"/>
<feComposite in2="hardAlpha" operator="out"/>
<feColorMatrix type="matrix" values="0 0 0 0 0 0 0 0 0 0 0 0 0 0 0 0 0 0 0.25 0"/>
<feBlend mode="normal" in2="BackgroundImageFix" result="effect1_dropShadow_10082_5617"/>
<feBlend mode="normal" in="SourceGraphic" in2="effect1_dropShadow_10082_5617" result="shape"/>
</filter>
<clipPath id="clip0_10082_5617">
<rect width="52" height="57" fill="white"/>
</clipPath>
</defs>
</svg>
