<svg width="49" height="49" viewBox="0 0 49 49" fill="none" xmlns="http://www.w3.org/2000/svg">
<g clip-path="url(#clip0_10082_5639)">
<path d="M29.2942 46.752C29.6659 46.2957 29.773 45.7152 29.648 45.1836C30.3895 45.5401 31.3037 45.3625 31.8468 44.6968C32.2607 44.1887 32.35 43.5264 32.1502 42.9494C32.8523 43.1927 33.66 42.9947 34.1568 42.3854C34.6585 41.7699 34.6846 40.9286 34.2927 40.2874C34.8599 40.3235 35.4355 40.0985 35.8221 39.6244C36.4575 38.8445 36.3408 37.6972 35.5613 37.0613L35.4785 36.9937C35.9301 34.6126 26.5114 25.3031 24.447 23.1065C23.4887 22.7125 19.8196 23.4658 17.4879 23.1656C16.688 23.0626 14.2245 21.8428 13.3874 21.4247C13.2497 21.3559 12.666 21.2042 12.3058 21.6541C10.9271 23.3762 9.02631 29.1464 8.00954 31.5537C7.83049 31.9777 8.19212 32.5236 8.35094 32.603C9.07603 32.9651 9.81978 33.3548 10.296 33.7894C11.7244 35.0933 12.1912 36.6403 12.6491 37.9323C12.8074 38.3791 13.2418 38.868 13.8648 39.3771C13.8688 39.3673 13.87 39.3569 13.8742 39.3471C13.8742 39.3471 25.853 46.3293 25.6919 46.4882C26.3454 46.8065 26.788 47.0785 26.9751 47.1806L26.9786 47.1762C27.7387 47.6128 28.7222 47.4533 29.2942 46.752Z" fill="white"/>
<path d="M27.89 48.0071C27.4986 48.0071 27.1121 47.9114 26.7666 47.7298C26.7424 47.7206 26.7186 47.7097 26.6955 47.697C26.6487 47.6714 26.5868 47.6359 26.5104 47.5921C26.2746 47.4566 25.9182 47.2517 25.4364 47.0171C25.3525 46.9762 25.2808 46.9166 25.2259 46.8444C24.4753 46.2626 17.9171 42.3848 13.7481 39.9533C13.6564 39.9344 13.5694 39.8937 13.495 39.8329C12.7429 39.2185 12.2857 38.6611 12.0974 38.1294L11.9984 37.8476C11.5862 36.6701 11.1193 35.3354 9.90194 34.2241C9.47831 33.8375 8.74474 33.4563 8.09039 33.1293C7.69887 32.9338 7.15232 32.0795 7.47049 31.3264C7.74794 30.6692 8.10448 29.7259 8.48191 28.7271C9.51238 25.9998 10.7949 22.6054 11.8493 21.2883C12.1233 20.9461 12.5251 20.7578 12.9808 20.7578C13.2648 20.7578 13.5137 20.8315 13.6517 20.9006C16.5242 22.3355 17.3451 22.5562 17.5647 22.5844C17.9191 22.63 18.3259 22.6522 18.8081 22.6522C19.6652 22.6522 20.5791 22.5824 21.463 22.5148C22.2111 22.4576 22.9176 22.4036 23.4847 22.4036C24.035 22.4036 24.4012 22.4532 24.6721 22.5645C24.7497 22.5964 24.8194 22.6444 24.8768 22.7055C25.1413 22.9871 25.5232 23.3818 26.0067 23.8812C31.9437 30.0168 35.9449 34.5796 36.0774 36.7336C36.9761 37.5925 37.0777 39.0168 36.2794 39.9965C35.9713 40.3743 35.5624 40.6436 35.1058 40.7793C35.2403 41.4675 35.0719 42.1959 34.6139 42.7578C34.1757 43.2953 33.5336 43.6128 32.8415 43.6376C32.8247 44.1537 32.6412 44.6551 32.3038 45.069C31.809 45.6759 31.049 46.0038 30.2654 45.9458C30.2062 46.3736 30.0319 46.7799 29.7514 47.1242C29.2932 47.6851 28.615 48.0071 27.89 48.0071ZM27.1951 46.6306C27.2216 46.641 27.2475 46.6534 27.2729 46.668C27.4603 46.7756 27.6735 46.8324 27.89 46.8325C28.2605 46.8325 28.6071 46.6682 28.8408 46.3818C29.081 46.087 29.1675 45.6995 29.078 45.3191C29.0262 45.0988 29.1054 44.8684 29.2819 44.7267C29.4583 44.585 29.7004 44.557 29.9042 44.6552C30.0705 44.7352 30.2563 44.7775 30.4415 44.7775C30.8128 44.7775 31.1597 44.6132 31.3934 44.3264C31.6631 43.9956 31.7393 43.5529 31.5972 43.1424C31.5236 42.9299 31.5778 42.6939 31.7369 42.5349C31.896 42.3758 32.1318 42.3217 32.3444 42.3954C32.4762 42.441 32.6141 42.4643 32.754 42.4643C33.1247 42.4643 33.471 42.3006 33.7035 42.0152C34.0311 41.6132 34.0672 41.0423 33.7934 40.5944C33.6792 40.4074 33.6786 40.1723 33.7917 39.9847C33.905 39.797 34.1137 39.688 34.332 39.702C34.7333 39.727 35.1186 39.5609 35.3689 39.254C35.7986 38.7266 35.7193 37.9473 35.1921 37.5171L35.1092 37.4495C34.9423 37.3133 34.8632 37.0966 34.9034 36.8849C34.9509 36.6345 34.841 35.5049 31.4336 31.4861C29.3236 28.9975 26.7189 26.3057 25.1626 24.6974C24.7369 24.2574 24.3895 23.8983 24.1279 23.6227C24.0226 23.6007 23.8293 23.5774 23.4847 23.5774C22.9625 23.5774 22.2776 23.6297 21.5525 23.6852C20.689 23.7512 19.7101 23.826 18.8083 23.826C18.2753 23.826 17.8194 23.8007 17.4147 23.7486C17.1856 23.719 16.4887 23.6295 13.1363 21.9552C13.115 21.9478 13.0536 21.9316 12.9808 21.9316C12.8383 21.9316 12.7896 21.9924 12.7663 22.0216C11.8279 23.1937 10.529 26.6315 9.58063 29.1416C9.18259 30.1951 8.83884 31.1048 8.55264 31.7828C8.53189 31.8376 8.60014 32.0183 8.67036 32.1055C9.41163 32.4769 10.172 32.8797 10.694 33.3562C12.1301 34.6671 12.6719 36.2153 13.1071 37.4591L13.2046 37.7366C13.2768 37.9404 13.4912 38.2863 14.0939 38.8021C14.1207 38.8128 14.1466 38.8255 14.1718 38.8403C14.2013 38.8573 17.154 40.5788 20.0727 42.3107C24.2018 44.7605 25.5618 45.5961 26.0243 45.9968C26.506 46.2344 26.8726 46.4452 27.0959 46.5735C27.1326 46.595 27.1658 46.6141 27.1951 46.6306Z" fill="#10335E"/>
<path d="M29.5724 31.4498C32.3901 32.7258 34.2399 35.6312 35.5707 37.0609C36.3682 36.1656 36.9066 33.934 38.2405 33.3828C38.2617 33.3761 38.2788 33.3751 38.3016 33.366L40.0439 32.5526C40.4658 32.3812 35.2457 21.3163 34.6886 21.5425L31.2709 22.9523C29.9607 23.4844 28.4431 23.1123 27.1747 22.8584C26.0926 22.6417 24.3828 23.1138 23.9041 23.2569C23.8252 23.2806 23.749 23.3073 23.6727 23.3385C23.0193 23.6058 22.2771 23.9435 21.6971 24.215C21.0444 24.5205 20.477 24.9793 20.0413 25.5534C18.7933 27.1978 16.1645 30.6762 15.8309 31.2381C14.9778 32.675 17.7512 33.5793 19.5247 32.3988C20.4658 31.7724 22.2342 30.0726 23.2607 29.0071C23.7091 28.5418 24.4207 28.4568 24.968 28.8003C26.0374 29.4715 27.4428 30.4855 29.5724 31.4498Z" fill="white"/>
<path d="M35.5651 37.6495C35.4021 37.6495 35.2464 37.5817 35.1352 37.4623C34.8158 37.1191 34.4691 36.6961 34.1022 36.2482C32.8839 34.7614 31.3677 32.9112 29.3246 31.9859C27.5655 31.1893 26.3105 30.3737 25.3021 29.7181C25.0707 29.5677 24.8543 29.4271 24.6503 29.2991C24.5253 29.2206 24.3819 29.1793 24.2353 29.1793C24.0231 29.1793 23.8251 29.2633 23.678 29.416C22.8219 30.3046 20.9189 32.1741 19.8444 32.8892C19.2223 33.3031 18.4436 33.5312 17.6514 33.5312C16.5577 33.5312 15.6426 33.1174 15.2634 32.4513C14.9981 31.9851 15.0182 31.4482 15.3203 30.9397C15.6435 30.3953 17.8086 27.5178 19.5679 25.1998C20.0591 24.5526 20.7073 24.0286 21.4425 23.6845C21.9769 23.4343 22.7581 23.0772 23.4448 22.7964C23.5375 22.7584 23.6308 22.7255 23.73 22.6958C24.2117 22.5517 25.4483 22.2165 26.5284 22.2165C26.8065 22.2165 27.061 22.2393 27.2843 22.2839L27.5667 22.3412C28.2808 22.4868 29.0192 22.6376 29.7371 22.6376C30.2392 22.6376 30.6669 22.563 31.0443 22.4096L34.459 21.0009C34.538 20.9688 34.6186 20.9531 34.7013 20.9531C35.0919 20.9531 35.4957 20.9531 38.0223 26.1586C39.1596 28.502 40.4592 31.4104 40.625 32.2585C40.7324 32.8084 40.4378 33.0177 40.282 33.0884L38.5446 33.8995C38.5353 33.9038 38.5259 33.9079 38.5165 33.9117C38.4804 33.9263 38.4484 33.9359 38.4239 33.9423C37.7922 34.2298 37.3209 35.1541 36.9044 35.9712C36.616 36.537 36.3433 37.0716 36.0038 37.4528C35.8937 37.5763 35.7369 37.6476 35.5717 37.6493C35.5694 37.6495 35.5672 37.6495 35.5651 37.6495ZM24.2353 28.0046C24.6029 28.0046 24.9622 28.1081 25.2745 28.3041C25.4835 28.4351 25.7051 28.5792 25.9421 28.7333C26.9173 29.3672 28.131 30.1562 29.8091 30.916C32.1022 31.9545 33.7832 34.0059 35.0106 35.5037C35.1814 35.7121 35.3477 35.9151 35.5069 36.1047C35.6218 35.9007 35.7382 35.6722 35.8577 35.4377C36.3744 34.4242 36.9601 33.2754 38.0105 32.8413C38.025 32.8354 38.0398 32.8299 38.0546 32.8251C38.0677 32.8209 38.0802 32.8172 38.0925 32.814L39.3964 32.2052C39.1479 31.445 38.3427 29.5435 37.2027 27.1632C35.8268 24.2904 34.9474 22.7504 34.5718 22.2248L31.4891 23.4965C30.9655 23.7091 30.3933 23.812 29.737 23.812C28.9005 23.812 28.0671 23.6419 27.3317 23.492L27.0536 23.4356C26.906 23.406 26.7291 23.3911 26.5282 23.3911C25.5772 23.3911 24.4037 23.7201 24.0666 23.821C24.0047 23.8395 23.9468 23.86 23.8895 23.8835C23.2247 24.1553 22.4625 24.5038 21.9401 24.7484C21.3766 25.0121 20.8797 25.4138 20.5031 25.91C18.1134 29.0586 16.5534 31.163 16.3298 31.5395C16.2101 31.741 16.2599 31.8284 16.2837 31.8704C16.4179 32.1062 16.9428 32.3568 17.651 32.3568C18.2142 32.3568 18.7619 32.1986 19.1934 31.9115C20.1119 31.3002 21.8725 29.5969 22.8318 28.6011C23.1974 28.222 23.7088 28.0046 24.2353 28.0046Z" fill="#10335E"/>
<path d="M25.7276 46.5083L27.3464 43.6861C27.825 42.8512 27.5364 41.7864 26.7018 41.3073C25.9976 40.9035 25.1337 41.0507 24.5918 41.6059C24.9827 40.7905 24.6918 39.8013 23.895 39.3438C23.1791 38.9333 22.2965 39.0903 21.7567 39.6688L21.9261 39.3736C22.4048 38.5391 22.1164 37.474 21.2818 36.9949C20.447 36.5158 19.3819 36.8045 18.9031 37.6392L18.5668 38.2255C18.8164 37.4579 18.5046 36.5943 17.7763 36.1766C16.9416 35.6978 15.8764 35.9863 15.3977 36.8214L13.8718 39.4819C13.6325 39.8991 13.585 40.3742 13.7015 40.8046C13.8182 41.235 14.099 41.621 14.5165 41.8605C15.2442 42.2779 16.1464 42.1115 16.6832 41.5089L16.6729 41.5268C16.4334 41.9443 16.3858 42.4192 16.5024 42.8497C16.6191 43.2801 16.9 43.6662 17.3172 43.9055C18.0985 44.3538 19.0752 44.1233 19.5905 43.4086C19.4688 43.7498 19.4563 44.1117 19.5473 44.4471C19.6639 44.8775 19.9448 45.2636 20.3621 45.5032C21.1029 45.9278 22.0224 45.7464 22.5554 45.1178C22.4532 45.4414 22.4483 45.7811 22.5339 46.0971C22.6505 46.5275 22.9314 46.9135 23.3487 47.1531C24.1837 47.6317 25.2485 47.3432 25.7276 46.5083Z" fill="white"/>
<path d="M24.2166 47.973C24.2165 47.973 24.2165 47.973 24.2166 47.973C23.8118 47.973 23.4115 47.8661 23.0589 47.6639C22.5188 47.354 22.132 46.8526 21.9693 46.252C21.9651 46.2366 21.9611 46.2211 21.9572 46.2056C21.7243 46.2822 21.4782 46.3224 21.2268 46.3224C20.8233 46.3224 20.4241 46.2157 20.0723 46.014C19.5322 45.704 19.1454 45.2026 18.9827 44.602C18.9807 44.5951 18.9789 44.5882 18.9771 44.5812C18.7236 44.6742 18.453 44.7238 18.1772 44.7238C17.7754 44.7238 17.3778 44.6174 17.0272 44.4163C16.4875 44.1068 16.1006 43.6055 15.9379 43.0048C15.9042 42.8805 15.8808 42.755 15.8679 42.6293C15.3206 42.7456 14.7219 42.6555 14.2265 42.3713C13.6865 42.0615 13.2996 41.5602 13.1368 40.9595C12.9741 40.3589 13.0549 39.7309 13.3644 39.191L14.8904 36.5305C15.3045 35.8082 16.0796 35.3594 16.9131 35.3594C17.3178 35.3594 17.7181 35.4663 18.0707 35.6685C18.4824 35.9048 18.7993 36.2546 18.9986 36.6601C19.3999 36.3527 19.8978 36.1775 20.4184 36.1775C20.8232 36.1775 21.2236 36.2845 21.5763 36.4869C22.3365 36.9234 22.7578 37.7262 22.7458 38.5461C23.2381 38.4839 23.7529 38.5856 24.1893 38.8358C24.8349 39.2064 25.2387 39.8527 25.3311 40.55C25.8878 40.4231 26.4939 40.5112 26.9961 40.7991C28.1102 41.4387 28.4968 42.8654 27.8581 43.9795L26.2392 46.8018C25.8248 47.5243 25.0497 47.973 24.2166 47.973ZM22.558 44.5318C22.6547 44.5318 22.7522 44.5557 22.8416 44.605C23.0864 44.7402 23.2019 45.0293 23.1177 45.2959C23.0507 45.5084 23.0456 45.7327 23.103 45.9448C23.1838 46.2427 23.3756 46.4914 23.6434 46.6451C23.8182 46.7453 24.0165 46.7984 24.2166 46.7984C24.6303 46.7984 25.015 46.5758 25.2207 46.2176L26.8395 43.3954C27.1562 42.8428 26.9645 42.1351 26.412 41.818C26.2392 41.7188 26.0433 41.6663 25.8458 41.6663C25.5354 41.6663 25.2324 41.7942 25.0146 42.0174C24.8137 42.223 24.4934 42.2532 24.2578 42.0885C24.0221 41.9238 23.9404 41.6127 24.0648 41.3534C24.3252 40.8103 24.1233 40.1519 23.6052 39.8545C23.4316 39.7549 23.2349 39.7022 23.0366 39.7022C22.7163 39.7022 22.4073 39.8365 22.1887 40.0708C21.9852 40.2888 21.6507 40.3198 21.4106 40.1427C21.1706 39.9656 21.1016 39.6367 21.2499 39.3779L21.4193 39.0827C21.7362 38.5303 21.5445 37.8227 20.9921 37.5055C20.8172 37.405 20.6189 37.3521 20.4189 37.3521C20.0053 37.3521 19.6206 37.5746 19.4152 37.9327L19.0787 38.519C18.929 38.7801 18.6063 38.8856 18.3311 38.7636C18.0561 38.6416 17.9177 38.3314 18.0108 38.0452C18.1786 37.5288 17.9582 36.9577 17.4867 36.6873C17.3117 36.5869 17.1134 36.5338 16.9135 36.5338C16.4998 36.5338 16.1152 36.7564 15.9098 37.1147L14.3838 39.7752C14.2303 40.0428 14.1903 40.3543 14.2709 40.652C14.3517 40.95 14.5435 41.1986 14.8113 41.3522C14.9859 41.4524 15.1839 41.5054 15.3836 41.5054C15.714 41.5054 16.0287 41.3647 16.2473 41.1194C16.4475 40.8948 16.785 40.8578 17.0289 41.0334C17.2731 41.2092 17.3448 41.5409 17.1954 41.8019L17.1851 41.8198C17.0314 42.088 16.9912 42.3995 17.0718 42.6973C17.1526 42.9951 17.3443 43.2437 17.612 43.3972C17.785 43.4965 17.9805 43.549 18.1775 43.549C18.5476 43.549 18.8988 43.3685 19.1167 43.0661C19.2878 42.829 19.6071 42.7536 19.8662 42.8897C20.1251 43.0257 20.2445 43.3313 20.1463 43.6068C20.066 43.8321 20.0557 44.0698 20.1166 44.2946C20.1974 44.5925 20.3893 44.8411 20.6571 44.995C20.831 45.0947 21.0282 45.1475 21.2271 45.1475C21.5681 45.1475 21.8899 44.9986 22.11 44.7391C22.2246 44.604 22.3899 44.5318 22.558 44.5318Z" fill="#10335E"/>
<path d="M39.381 35.4892L34.0967 21.9325C33.8582 21.321 34.164 20.6324 34.7775 20.3991L42.8148 17.3433C43.4904 17.0865 44.2361 17.491 44.3892 18.1973L47.4916 32.5119C47.6144 33.0786 47.3131 33.6468 46.7721 33.8552C44.9133 34.5709 42.3539 35.5861 40.9136 36.1597C40.3043 36.4024 39.6191 36.1003 39.381 35.4892Z" fill="#A3C8F6"/>
<path d="M40.4731 36.8319C39.7408 36.8319 39.0951 36.389 38.8279 35.7036L33.5436 22.1471C33.3711 21.7043 33.3822 21.2213 33.5751 20.787C33.768 20.3526 34.1188 20.0204 34.563 19.8516L42.6003 16.7957C42.8029 16.7187 43.0143 16.6797 43.229 16.6797C44.0555 16.6797 44.7824 17.2663 44.9575 18.0744L48.0599 32.389C48.2452 33.2442 47.79 34.092 46.9775 34.4047C45.1058 35.1252 42.5075 36.1563 41.1254 36.7067C40.9159 36.7897 40.6965 36.8319 40.4731 36.8319ZM43.2288 17.8541C43.1573 17.8541 43.0862 17.8674 43.0176 17.8935L34.9802 20.9493C34.8311 21.0061 34.7132 21.1177 34.6484 21.2636C34.5836 21.4095 34.5799 21.5718 34.6378 21.7205L39.9221 35.277C40.0121 35.5081 40.2284 35.6574 40.473 35.6574C40.547 35.6574 40.62 35.6432 40.6905 35.6152C42.075 35.0639 44.6781 34.031 46.5552 33.3083C46.8236 33.2049 46.9736 32.9229 46.9117 32.6375L43.8093 18.3229C43.7506 18.0513 43.5064 17.8541 43.2288 17.8541Z" fill="#10335E"/>
<path d="M38.6422 21.7501C38.4055 21.7501 38.1823 21.6059 38.0932 21.3713C37.9779 21.0682 38.1302 20.729 38.4334 20.6138L40.4394 19.8511C40.7428 19.7356 41.0817 19.8882 41.197 20.1913C41.3122 20.4945 41.1599 20.8337 40.8568 20.9489L38.8508 21.7116C38.782 21.7377 38.7115 21.7501 38.6422 21.7501Z" fill="#10335E"/>
<path d="M42.2687 32.9983C43.2024 32.9983 43.9593 32.2414 43.9593 31.3078C43.9593 30.3741 43.2024 29.6172 42.2687 29.6172C41.335 29.6172 40.5781 30.3741 40.5781 31.3078C40.5781 32.2414 41.335 32.9983 42.2687 32.9983Z" fill="white"/>
<path d="M42.2622 33.5869C41.0062 33.5869 39.9844 32.5651 39.9844 31.3091C39.9844 30.0531 41.0062 29.0312 42.2622 29.0312C43.5182 29.0312 44.5401 30.0531 44.5401 31.3091C44.5401 32.5651 43.5182 33.5869 42.2622 33.5869ZM42.2622 30.2059C41.6538 30.2059 41.1589 30.7008 41.1589 31.3092C41.1589 31.9176 41.6538 32.4125 42.2622 32.4125C42.8705 32.4125 43.3655 31.9176 43.3655 31.3092C43.3655 30.7008 42.8705 30.2059 42.2622 30.2059Z" fill="#10335E"/>
<path d="M16.6806 42.1167C16.5815 42.1167 16.481 42.0917 16.3889 42.0387C16.1075 41.8772 16.0103 41.5183 16.1717 41.237L18.0655 37.9358C18.2268 37.6545 18.5858 37.5571 18.8672 37.7187C19.1486 37.8801 19.2458 38.239 19.0844 38.5204L17.1906 41.8215C17.082 42.0107 16.884 42.1167 16.6806 42.1167Z" fill="#10335E"/>
<path d="M19.5946 43.9925C19.4948 43.9925 19.3935 43.9669 19.3009 43.9133C19.0201 43.7506 18.9245 43.3914 19.087 43.1108L21.2532 39.3711C21.4158 39.0906 21.775 38.9948 22.0557 39.1572C22.3364 39.3199 22.4321 39.6791 22.2696 39.9597L20.1033 43.6994C19.9945 43.8873 19.7973 43.9925 19.5946 43.9925Z" fill="#10335E"/>
<path d="M22.5633 45.7099C22.4634 45.7099 22.3621 45.6843 22.2693 45.6306C21.9887 45.4678 21.8932 45.1085 22.0559 44.828L24.0923 41.3162C24.2551 41.0356 24.6144 40.9401 24.8949 41.1028C25.1755 41.2655 25.2711 41.6248 25.1083 41.9054L23.0719 45.4172C22.9631 45.605 22.766 45.7099 22.5633 45.7099Z" fill="#10335E"/>
<path d="M8.73179 35.4892L14.0161 21.9325C14.2545 21.321 13.9487 20.6324 13.3352 20.3991L5.29793 17.3433C4.6223 17.0865 3.87659 17.491 3.72351 18.1973L0.621006 32.5121C0.4982 33.0787 0.799537 33.6469 1.34048 33.8554C3.19927 34.5711 5.75874 35.5863 7.199 36.1598C7.80833 36.4024 8.49348 36.1003 8.73179 35.4892Z" fill="#A3C8F6"/>
<path d="M2.16607 25.9566C2.12536 25.9566 2.08425 25.9523 2.04275 25.9436C1.72562 25.8757 1.52347 25.5637 1.5912 25.2465L1.8851 23.8709C1.95283 23.5536 2.26435 23.3516 2.58213 23.4193C2.89925 23.4872 3.10141 23.7992 3.03367 24.1164L2.73978 25.492C2.68092 25.7678 2.43726 25.9566 2.16607 25.9566Z" fill="#10335E"/>
<path d="M7.62875 36.8339C7.41354 36.8339 7.1939 36.7947 6.97909 36.712C5.58934 36.1539 3.02412 35.1413 1.12305 34.4072C0.302563 34.0863 -0.149768 33.2373 0.0449455 32.3877L1.11352 27.4794C1.18256 27.1624 1.49564 26.9613 1.81225 27.0305C2.12925 27.0995 2.33023 27.4124 2.26119 27.7292L1.19131 32.6438C1.12631 32.9276 1.27718 33.2061 1.54863 33.3124C3.45179 34.0471 6.02353 35.0625 7.40871 35.6188C7.71423 35.7361 8.05929 35.5862 8.18561 35.2736L13.4621 21.724C13.5811 21.4147 13.4265 21.0642 13.1165 20.9449L5.08794 17.8887C4.92533 17.8299 4.74405 17.8432 4.58719 17.9301C4.43567 18.0137 4.33205 18.1531 4.29538 18.3225L3.53127 21.861C3.46288 22.178 3.15032 22.3797 2.83332 22.3112C2.5162 22.2428 2.3147 21.9302 2.38321 21.6132L3.14745 18.0742C3.25551 17.5756 3.57316 17.1486 4.01897 16.9021C4.47025 16.6526 5.00885 16.6109 5.49694 16.7876L13.5363 19.8479C14.4526 20.2004 14.9098 21.2317 14.5575 22.1478L9.27742 35.7068C8.99292 36.4116 8.33426 36.8339 7.62875 36.8339Z" fill="#10335E"/>
<path d="M9.46045 21.75C9.39115 21.75 9.32054 21.7376 9.2519 21.7115L7.2459 20.9488C6.94273 20.8336 6.79043 20.4944 6.90567 20.1913C7.02091 19.8881 7.35996 19.7357 7.66325 19.851L9.66925 20.6137C9.97242 20.7289 10.1247 21.0681 10.0095 21.3713C9.92034 21.6058 9.69718 21.75 9.46045 21.75Z" fill="#10335E"/>
<path d="M5.83901 32.9983C6.77268 32.9983 7.52957 32.2414 7.52957 31.3078C7.52957 30.3741 6.77268 29.6172 5.83901 29.6172C4.90533 29.6172 4.14844 30.3741 4.14844 31.3078C4.14844 32.2414 4.90533 32.9983 5.83901 32.9983Z" fill="white"/>
<path d="M5.84034 33.5869C4.58436 33.5869 3.5625 32.5651 3.5625 31.3091C3.5625 30.0531 4.58436 29.0312 5.84034 29.0312C7.09633 29.0312 8.11818 30.0531 8.11818 31.3091C8.11818 32.5651 7.09633 33.5869 5.84034 33.5869ZM5.84034 30.2059C5.23206 30.2059 4.73705 30.7008 4.73705 31.3092C4.73705 31.9176 5.23193 32.4125 5.84034 32.4125C6.44876 32.4125 6.94364 31.9176 6.94364 31.3092C6.94364 30.7008 6.44876 30.2059 5.84034 30.2059Z" fill="#10335E"/>
<path d="M24.0525 19.9723C28.146 19.9723 31.4645 16.6539 31.4645 12.5604C31.4645 8.46687 28.146 5.14844 24.0525 5.14844C19.9591 5.14844 16.6406 8.46687 16.6406 12.5604C16.6406 16.6539 19.9591 19.9723 24.0525 19.9723Z" fill="#EBF0F5"/>
<path d="M24.0461 20.5609C19.6354 20.5609 16.0469 16.9724 16.0469 12.5617C16.0469 8.15101 19.6354 4.5625 24.0461 4.5625C28.4569 4.5625 32.0453 8.15101 32.0453 12.5617C32.0453 16.9724 28.4569 20.5609 24.0461 20.5609ZM24.0461 5.73692C20.2829 5.73692 17.2214 8.79845 17.2214 12.5616C17.2214 16.3247 20.2829 19.3862 24.0461 19.3862C27.8092 19.3862 30.8707 16.3247 30.8707 12.5616C30.8707 8.79845 27.8092 5.73692 24.0461 5.73692Z" fill="#10335E"/>
<path d="M24.5951 3.75321C24.2708 3.75321 24.0078 3.49024 24.0078 3.16593V0.587274C24.0078 0.262968 24.2708 0 24.5951 0C24.9194 0 25.1824 0.262968 25.1824 0.587274V3.16593C25.1824 3.49024 24.9195 3.75321 24.5951 3.75321Z" fill="#10335E"/>
<path d="M18.5248 5.74483C18.2005 5.74483 17.9375 5.48186 17.9375 5.15755V3.74352C17.9375 3.41922 18.2005 3.15625 18.5248 3.15625C18.8491 3.15625 19.112 3.41922 19.112 3.74352V5.15755C19.112 5.48199 18.8492 5.74483 18.5248 5.74483Z" fill="#10335E"/>
<path d="M43.8887 41.4714H40.6498C40.3255 41.4714 40.0625 41.2085 40.0625 40.8841C40.0625 40.5598 40.3255 40.2969 40.6498 40.2969H43.8887C44.213 40.2969 44.4759 40.5598 44.4759 40.8841C44.4759 41.2085 44.213 41.4714 43.8887 41.4714Z" fill="#10335E"/>
<path d="M9.49338 42.0261H7.61071C7.28641 42.0261 7.02344 41.7631 7.02344 41.4388C7.02344 41.1145 7.28641 40.8516 7.61071 40.8516H9.49338C9.81769 40.8516 10.0807 41.1145 10.0807 41.4388C10.0807 41.7631 9.81769 42.0261 9.49338 42.0261Z" fill="#10335E"/>
<path d="M21.7173 16V8.72727H24.5014C25.027 8.72727 25.4638 8.81013 25.8118 8.97585C26.1622 9.1392 26.4238 9.36293 26.5966 9.64702C26.7718 9.93111 26.8594 10.2531 26.8594 10.6129C26.8594 10.9089 26.8026 11.1622 26.6889 11.3729C26.5753 11.5812 26.4226 11.7505 26.2308 11.8807C26.0391 12.0109 25.8248 12.1044 25.5881 12.1612V12.2322C25.8461 12.2464 26.0935 12.3258 26.3303 12.4702C26.5694 12.6122 26.7647 12.8134 26.9162 13.0739C27.0677 13.3343 27.1435 13.6491 27.1435 14.0185C27.1435 14.3949 27.0523 14.7334 26.87 15.0341C26.6877 15.3324 26.4131 15.5679 26.0462 15.7408C25.6792 15.9136 25.2176 16 24.6612 16H21.7173ZM23.0348 14.8991H24.4517C24.9299 14.8991 25.2744 14.808 25.4851 14.6257C25.6982 14.4411 25.8047 14.2043 25.8047 13.9155C25.8047 13.7 25.7514 13.5059 25.6449 13.3331C25.5384 13.1579 25.3868 13.0206 25.1903 12.9212C24.9938 12.8194 24.7595 12.7685 24.4872 12.7685H23.0348V14.8991ZM23.0348 11.8203H24.3381C24.5653 11.8203 24.7701 11.7789 24.9524 11.696C25.1347 11.6108 25.2779 11.4912 25.3821 11.3374C25.4886 11.1811 25.5419 10.9964 25.5419 10.7834C25.5419 10.5017 25.4425 10.2696 25.2436 10.0874C25.0471 9.90507 24.7547 9.81392 24.3665 9.81392H23.0348V11.8203Z" fill="#10335E"/>
</g>
<defs>
<clipPath id="clip0_10082_5639">
<rect width="49" height="49" fill="white"/>
</clipPath>
</defs>
</svg>
