<svg width="52" height="43" viewBox="0 0 52 43" fill="none" xmlns="http://www.w3.org/2000/svg">
<path d="M49.0998 35C48.9998 35 48.9998 35 48.8998 34.9L47.9998 34C47.8998 33.9 47.8998 33.7 47.9998 33.6C48.0998 33.5 48.2998 33.5 48.3998 33.6L49.2998 34.5C49.2998 34.5 49.2998 34.6 49.3998 34.6V34.7V34.8C49.3998 34.9 49.2998 34.9 49.1998 35H49.0998ZM51.0998 37C50.9998 37 50.9998 37 50.8998 36.9L49.9998 36C49.8998 35.9 49.8998 35.9 49.8998 35.8C49.8998 35.6 49.9998 35.5 50.1998 35.5C50.2998 35.5 50.3998 35.5 50.3998 35.6L51.2998 36.5C51.2998 36.5 51.2998 36.6 51.3998 36.6V36.7V36.8C51.3998 36.9 51.2998 36.9 51.1998 37C51.0998 37 51.0998 37 51.0998 37ZM48.1998 37C48.0998 37 48.0998 37 47.9998 36.9C47.8998 36.8 47.8998 36.7 47.8998 36.6C47.8998 36.6 47.8998 36.5 47.9998 36.5L48.8998 35.6C48.9998 35.5 49.1998 35.5 49.2998 35.6C49.3998 35.7 49.3998 35.9 49.2998 36L48.3998 36.9C48.3998 37 48.2998 37 48.1998 37ZM50.1998 35C49.9998 35 49.8998 34.9 49.8998 34.7C49.8998 34.6 49.8998 34.6 49.9998 34.5L50.8998 33.6C50.8998 33.6 50.9998 33.6 50.9998 33.5C51.0998 33.5 51.0998 33.5 51.1998 33.5C51.1998 33.5 51.2998 33.5 51.2998 33.6C51.2998 33.6 51.2998 33.7 51.3998 33.7C51.3998 33.8 51.3998 33.8 51.3998 33.9C51.3998 33.9 51.3998 34 51.2998 34L50.3998 34.9C50.3998 35 50.2998 35 50.1998 35ZM38.7998 8.3C38.6998 8.3 38.6998 8.3 38.5998 8.2L37.6998 7.3C37.5998 7.2 37.5998 7 37.6998 6.9C37.7998 6.8 37.9998 6.8 38.0998 6.9L38.9998 7.8C39.0998 7.9 39.0998 7.9 39.0998 8C39.0998 8.1 38.9998 8.2 38.8998 8.3C38.8998 8.3 38.8998 8.3 38.7998 8.3ZM40.7998 10.3C40.6998 10.3 40.6998 10.3 40.5998 10.2L39.6998 9.3C39.6998 9.3 39.6998 9.2 39.5998 9.2C39.4998 9.2 39.5998 9.10001 39.5998 9.10001V9C39.5998 9 39.5998 8.9 39.6998 8.9C39.6998 8.9 39.7998 8.9 39.7998 8.8H39.8998H39.9998C39.9998 8.8 40.0998 8.8 40.0998 8.9L40.9998 9.8C41.0998 9.9 41.0998 9.9 41.0998 10C41.0998 10.1 40.9998 10.2 40.8998 10.3C40.8998 10.3 40.8998 10.3 40.7998 10.3ZM37.9998 10.3C37.8998 10.3 37.7998 10.2 37.6998 10.1C37.6998 10 37.6998 10 37.6998 9.90001C37.6998 9.90001 37.6998 9.8 37.7998 9.8L38.6998 8.9C38.7998 8.8 38.9998 8.8 39.0998 8.9C39.1998 9 39.1998 9.00001 39.1998 9.10001C39.1998 9.20001 39.1998 9.2 39.0998 9.3L38.1998 10.2C38.0998 10.3 38.0998 10.3 37.9998 10.3ZM39.9998 8.3C39.8998 8.3 39.8998 8.3 39.7998 8.2C39.6998 8.1 39.6998 8.1 39.6998 8C39.6998 7.9 39.6998 7.9 39.7998 7.8L40.6998 6.9C40.7998 6.8 40.9998 6.8 41.0998 6.9C41.1998 7 41.1998 7.2 41.0998 7.3L40.1998 8.2C40.0998 8.3 40.0998 8.3 39.9998 8.3ZM31.6998 1.5C31.5998 1.5 31.5998 1.5 31.4998 1.4L30.5998 0.5C30.5998 0.5 30.5998 0.400002 30.4998 0.400002C30.3998 0.400002 30.4998 0.300003 30.4998 0.300003V0.200005C30.4998 0.200005 30.4998 0.100006 30.5998 0.100006C30.5998 0.100006 30.6998 0.1 30.6998 0H30.7998H30.8998C30.8998 0 30.9998 6.10203e-06 30.9998 0.100006L31.8998 1C31.8998 1 31.8998 1.10001 31.9998 1.10001V1.2V1.3C31.9998 1.4 31.8998 1.4 31.7998 1.5C31.7998 1.5 31.7998 1.5 31.6998 1.5ZM33.6998 3.5C33.5998 3.5 33.5998 3.5 33.4998 3.4L32.5998 2.5C32.5998 2.5 32.5998 2.4 32.4998 2.4V2.3V2.2C32.4998 2.2 32.4998 2.10001 32.5998 2.10001C32.6998 2.00001 32.8998 2.00001 32.9998 2.10001L33.8998 3C33.8998 3 33.8998 3.10001 33.9998 3.10001V3.2V3.3C33.9998 3.4 33.8998 3.4 33.7998 3.5C33.7998 3.5 33.7998 3.5 33.6998 3.5ZM30.8998 3.5C30.7998 3.5 30.7998 3.5 30.6998 3.4C30.5998 3.3 30.5998 3.3 30.5998 3.2C30.5998 3.1 30.5998 3.1 30.6998 3L31.5998 2.10001C31.5998 2.10001 31.6998 2.1 31.6998 2H31.7998H31.8998C31.8998 2 31.9998 2.00001 31.9998 2.10001C32.0998 2.20001 32.0998 2.3 32.0998 2.4C32.0998 2.4 32.0998 2.5 31.9998 2.5L31.0998 3.4C30.9998 3.5 30.9998 3.5 30.8998 3.5ZM32.8998 1.5C32.7998 1.5 32.7998 1.5 32.6998 1.4C32.5998 1.3 32.5998 1.20001 32.5998 1.10001C32.5998 1.10001 32.5998 1 32.6998 1L33.5998 0.100006C33.6998 6.10203e-06 33.8998 6.10203e-06 33.9998 0.100006C34.0998 0.200006 34.0998 0.200003 34.0998 0.300003C34.0998 0.400003 34.0998 0.4 33.9998 0.5L33.0998 1.4C32.9998 1.5 32.9998 1.5 32.8998 1.5ZM18.6998 4.60001C18.5998 4.60001 18.5998 4.6 18.4998 4.5L17.5998 3.60001C17.4998 3.50001 17.4998 3.3 17.5998 3.2C17.6998 3.1 17.8998 3.1 17.9998 3.2L18.8998 4.10001C18.8998 4.10001 18.8998 4.2 18.9998 4.2V4.3V4.4C18.9998 4.5 18.8998 4.50001 18.7998 4.60001C18.6998 4.60001 18.6998 4.60001 18.6998 4.60001ZM20.6998 6.60001C20.5998 6.60001 20.5998 6.6 20.4998 6.5L19.5998 5.60001C19.4998 5.50001 19.4998 5.3 19.5998 5.2C19.6998 5.1 19.8998 5.1 19.9998 5.2L20.8998 6.10001C20.8998 6.10001 20.8998 6.2 20.9998 6.2V6.3V6.4C20.9998 6.5 20.8998 6.50001 20.7998 6.60001C20.6998 6.60001 20.6998 6.60001 20.6998 6.60001ZM17.7998 6.60001C17.6998 6.60001 17.6998 6.6 17.5998 6.5C17.4998 6.4 17.4998 6.3 17.4998 6.2C17.4998 6.2 17.4998 6.10001 17.5998 6.10001L18.4998 5.2C18.5998 5.1 18.7998 5.1 18.8998 5.2C18.9998 5.3 18.9998 5.50001 18.8998 5.60001L17.9998 6.5C17.9998 6.6 17.8998 6.60001 17.7998 6.60001ZM19.7998 4.60001C19.6998 4.60001 19.6998 4.6 19.5998 4.5C19.4998 4.4 19.4998 4.3 19.4998 4.2C19.4998 4.2 19.4998 4.10001 19.5998 4.10001L20.4998 3.2C20.5998 3.1 20.7998 3.1 20.8998 3.2C20.9998 3.3 20.9998 3.50001 20.8998 3.60001L19.9998 4.5C19.9998 4.6 19.8998 4.60001 19.7998 4.60001ZM3.59981 24C3.49981 24 3.4998 24 3.3998 23.9L2.4998 23C2.3998 22.9 2.3998 22.7 2.4998 22.6C2.5998 22.5 2.7998 22.5 2.8998 22.6L3.79979 23.5C3.89979 23.6 3.8998 23.7 3.8998 23.8C3.7998 23.9 3.69981 24 3.59981 24ZM5.59981 26C5.49981 26 5.4998 26 5.3998 25.9L4.4998 25C4.4998 25 4.4998 24.9 4.3998 24.9C4.3998 24.8 4.3998 24.8 4.3998 24.7C4.3998 24.7 4.3998 24.6 4.4998 24.6C4.5998 24.5 4.69979 24.5 4.79979 24.5C4.79979 24.5 4.8998 24.5 4.8998 24.6L5.79979 25.5C5.89979 25.6 5.89979 25.8 5.79979 25.9C5.79979 25.9 5.69981 26 5.59981 26ZM2.79979 26C2.59979 26 2.4998 25.9 2.4998 25.7C2.4998 25.6 2.49981 25.6 2.59981 25.5L3.4998 24.6C3.5998 24.5 3.7998 24.5 3.8998 24.6C3.9998 24.7 3.9998 24.7 3.9998 24.8C3.9998 24.9 3.9998 24.9 3.8998 25L2.9998 25.9C2.8998 25.9 2.79979 26 2.79979 26ZM4.69982 24C4.59982 24 4.4998 23.9 4.3998 23.8C4.3998 23.7 4.3998 23.7 4.3998 23.6C4.3998 23.6 4.3998 23.5 4.4998 23.5L5.3998 22.6C5.4998 22.5 5.49981 22.5 5.59981 22.5C5.79981 22.5 5.8998 22.6 5.8998 22.8C5.8998 22.9 5.89979 22.9 5.79979 23L4.8998 23.9C4.8998 23.9 4.79982 24 4.69982 24Z" fill="#10335E"/>
<path d="M33.6 11.7002H16.4C15.1 11.7002 14 12.8002 14 14.1002V35.6002C14 36.9002 15.1 38.0002 16.4 38.0002H33.6C34.9 38.0002 36 36.9002 36 35.6002V14.1002C36 12.8002 34.9 11.7002 33.6 11.7002Z" fill="#FBFCFD"/>
<path d="M33.5998 11.5H16.3998C14.9998 11.5 13.8998 12.6 13.7998 14.1V25.1C13.7998 25.2 13.8998 25.3 13.9998 25.3C14.0998 25.3 14.1998 25.2 14.1998 25.1V14.1C14.1998 12.9 15.1998 11.9 16.3998 11.9H33.5998C34.7998 11.9 35.7998 12.9 35.7998 14.1V35.6C35.7998 36.8 34.7998 37.8 33.5998 37.8H16.3998C15.1998 37.8 14.1998 36.8 14.1998 35.6V27.1C14.1998 27 14.0998 26.9 13.9998 26.9C13.8998 26.9 13.7998 27 13.7998 27.1V35.6C13.7998 37 14.8998 38.1 16.3998 38.2H33.5998C34.9998 38.2 36.0998 37.1 36.1998 35.6V14.1C36.1998 12.7 34.9998 11.5 33.5998 11.5Z" fill="#10335E"/>
<path d="M33.6 11.7002H16.4C15.1 11.7002 14 12.8002 14 14.1002V15.4002H36V14.1002C36 12.8002 34.9 11.7002 33.6 11.7002Z" fill="#A3C8F6"/>
<path d="M33.5998 11.5H16.3998C14.9998 11.5 13.8998 12.6 13.7998 14.1V15.4C13.7998 15.5 13.8998 15.6 13.9998 15.6H35.9998C36.0998 15.6 36.1998 15.5 36.1998 15.4V14.1C36.1998 12.7 34.9998 11.5 33.5998 11.5ZM35.7998 15.2H14.2998V14.1C14.2998 12.9 15.2998 11.9 16.4998 11.9H33.6998C34.8998 11.9 35.8998 12.9 35.8998 14.1V15.2H35.7998Z" fill="#3A312A"/>
<path d="M33.4 17.8999H23.6C23.3 17.8999 23 18.1999 23 18.4999V20.1999C23 20.4999 23.3 20.7999 23.6 20.7999H33.4C33.7 20.7999 34 20.4999 34 20.1999V18.4999C34 18.1999 33.7 17.8999 33.4 17.8999Z" fill="#A3C8F6"/>
<path d="M33.4 17.7002H23.6C23.2 17.7002 22.8 18.1002 22.8 18.5002V20.2002C22.8 20.6002 23.2 21.0002 23.6 21.0002H33.4C33.8 21.0002 34.2 20.6002 34.2 20.2002V18.5002C34.2 18.1002 33.8 17.7002 33.4 17.7002ZM33.8 20.2002C33.8 20.4002 33.6 20.6002 33.4 20.6002H23.6C23.4 20.6002 23.2 20.4002 23.2 20.2002V18.5002C23.2 18.3002 23.4 18.1002 23.6 18.1002H33.4C33.6 18.1002 33.8 18.3002 33.8 18.5002V20.2002ZM20.8 19.2002H16.2C16.1 19.2002 16 19.3002 16 19.4002C16 19.5002 16.1 19.6002 16.2 19.6002H20.8C20.9 19.6002 21 19.5002 21 19.4002C21 19.3002 20.9 19.2002 20.8 19.2002ZM20.8 22.2002H16.2C16.1 22.2002 16 22.3002 16 22.4002C16 22.5002 16.1 22.6002 16.2 22.6002H20.8C20.9 22.6002 21 22.5002 21 22.4002C21 22.3002 20.9 22.2002 20.8 22.2002ZM20.8 25.2002H16.2C16.1 25.2002 16 25.3002 16 25.4002C16 25.5002 16.1 25.6002 16.2 25.6002H20.8C20.9 25.6002 21 25.5002 21 25.4002C21 25.3002 20.9 25.2002 20.8 25.2002Z" fill="#10335E"/>
<path d="M33.4 23.1001H23.6C23.3 23.1001 23 23.4001 23 23.7001V25.4001C23 25.7001 23.3 26.0001 23.6 26.0001H33.4C33.7 26.0001 34 25.7001 34 25.4001V23.7001C34 23.4001 33.7 23.1001 33.4 23.1001Z" fill="#A3C8F6"/>
<path d="M33.3998 22.8999H23.5998C23.1998 22.8999 22.7998 23.2999 22.7998 23.6999V25.3999C22.7998 25.7999 23.1998 26.1999 23.5998 26.1999H33.3998C33.7998 26.1999 34.1998 25.7999 34.1998 25.3999V23.6999C34.1998 23.2999 33.7998 22.8999 33.3998 22.8999ZM33.7998 25.4999C33.7998 25.6999 33.5998 25.8999 33.3998 25.8999H23.5998C23.3998 25.8999 23.1998 25.6999 23.1998 25.4999V23.7999C23.1998 23.5999 23.3998 23.3999 23.5998 23.3999H33.3998C33.5998 23.3999 33.7998 23.5999 33.7998 23.7999V25.4999Z" fill="#10335E"/>
<path d="M33.4 28.1001H23.6C23.3 28.1001 23 28.4001 23 28.7001V34.2001C23 34.5001 23.3 34.8001 23.6 34.8001H33.4C33.7 34.8001 34 34.5001 34 34.2001V28.7001C34 28.3001 33.7 28.1001 33.4 28.1001Z" fill="#A3C8F6"/>
<path d="M33.3998 27.8999H23.5998C23.1998 27.8999 22.7998 28.2999 22.7998 28.6999V34.1999C22.7998 34.5999 23.1998 34.9999 23.5998 34.9999H33.3998C33.7998 34.9999 34.1998 34.5999 34.1998 34.1999V28.6999C34.1998 28.1999 33.7998 27.8999 33.3998 27.8999ZM33.7998 34.0999C33.7998 34.2999 33.5998 34.4999 33.3998 34.4999H23.5998C23.3998 34.4999 23.1998 34.2999 23.1998 34.0999V28.5999C23.1998 28.3999 23.3998 28.1999 23.5998 28.1999H33.3998C33.5998 28.1999 33.7998 28.3999 33.7998 28.5999V34.0999Z" fill="#10335E"/>
<path d="M20.1002 28.1001H16.9002C16.5002 28.1001 16.2002 28.4001 16.2002 28.8001V34.1001C16.2002 34.5001 16.5002 34.8001 16.9002 34.8001H20.1002C20.5002 34.8001 20.8002 34.5001 20.8002 34.1001V28.8001C20.8002 28.4001 20.5002 28.1001 20.1002 28.1001Z" fill="#A3C8F6"/>
<path d="M20.1 27.8999H16.9C16.4 27.8999 16 28.2999 16 28.7999V34.0999C16 34.5999 16.4 34.9999 16.9 34.9999H20.1C20.6 34.9999 21 34.5999 21 34.0999V28.7999C21 28.1999 20.6 27.8999 20.1 27.8999ZM20.6 34.0999C20.6 34.3999 20.4 34.5999 20.1 34.5999H16.9C16.6 34.5999 16.4 34.3999 16.4 34.0999V28.7999C16.4 28.4999 16.6 28.2999 16.9 28.2999H20.1C20.4 28.2999 20.6 28.4999 20.6 28.7999V34.0999Z" fill="#10335E"/>
<path d="M28.3001 10.3002C28.0001 10.3002 27.7001 10.4002 27.5001 10.5002C27.2001 9.20019 25.8001 8.40018 24.4001 8.70018C23.5001 8.90018 22.8001 9.60019 22.6001 10.5002C21.8001 10.0002 20.8001 10.3002 20.3001 11.1002C19.8001 11.9002 20.1001 12.9002 20.9001 13.4002C21.2001 13.5002 21.4001 13.6002 21.7001 13.6002H28.2001C29.1001 13.6002 29.9001 12.9002 29.9001 11.9002C29.9001 10.9002 29.3001 10.3002 28.3001 10.3002Z" fill="#FBFCFD"/>
<path d="M28.3001 10.1001C28.1001 10.1001 27.8001 10.1001 27.6001 10.2001C27.1001 8.80006 25.6001 8.10006 24.2001 8.60006C23.4001 8.90006 22.8001 9.50006 22.6001 10.2001C21.6001 9.80006 20.6001 10.3001 20.2001 11.2001C20.1001 11.4001 20.1001 11.7001 20.1001 11.9001C20.1001 12.9001 20.9001 13.8001 22.0001 13.8001H24.9001C25.0001 13.8001 25.1001 13.7001 25.1001 13.6001C25.1001 13.5001 25.0001 13.4001 24.9001 13.4001H22.0001C21.2001 13.4001 20.5001 12.7001 20.5001 11.9001C20.5001 11.1001 21.2001 10.4001 22.0001 10.4001C22.3001 10.4001 22.5001 10.5001 22.7001 10.6001C22.8001 10.7001 22.9001 10.6001 23.0001 10.5001C23.0001 10.5001 23.0001 10.5001 23.0001 10.4001C23.3001 9.40005 24.2001 8.70006 25.2001 8.70006C26.3001 8.70006 27.2001 9.40005 27.4001 10.4001C27.4001 10.5001 27.5001 10.6001 27.6001 10.5001C27.6001 10.5001 27.6001 10.5001 27.7001 10.5001C28.4001 10.1001 29.3001 10.3001 29.7001 11.1001C29.8001 11.3001 29.9001 11.6001 29.9001 11.8001C29.9001 12.6001 29.2001 13.3001 28.4001 13.3001H26.7001C26.6001 13.3001 26.5001 13.4001 26.5001 13.5001C26.5001 13.6001 26.6001 13.7001 26.7001 13.7001H28.4001C29.4001 13.7001 30.3001 12.9001 30.3001 11.8001C30.2001 10.9001 29.4001 10.1001 28.3001 10.1001Z" fill="#3A312A"/>
<path d="M31 34.8999L40.2 18.3999L42.4 19.5999L33.2 36.0999L31 34.8999Z" fill="#E7F3FF"/>
<path d="M42.5999 19.5002C42.5999 19.4002 42.5999 19.4002 42.4999 19.4002L40.2999 18.2002H40.1999C40.0999 18.2002 40.0999 18.2002 40.0999 18.3002L30.8999 34.8002V34.9002C30.8999 35.0002 30.8999 35.0002 30.9999 35.0002L33.1999 36.2002H33.2999C33.3999 36.2002 33.3999 36.2002 33.4999 36.1002L42.6999 19.6002C42.5999 19.7002 42.5999 19.6002 42.5999 19.5002ZM33.0999 35.8002L31.2999 34.8002L40.2999 18.7002L42.0999 19.7002L33.0999 35.8002Z" fill="#10335E"/>
<path d="M33.2998 30.7001L37.8998 22.6001L40.0998 23.8001L35.4998 31.9001L33.2998 30.7001Z" fill="#A3C8F6"/>
<path d="M40.3 23.6998C40.3 23.5998 40.3 23.5998 40.2 23.5998L38 22.3998C37.9 22.2998 37.8 22.3998 37.7 22.4998L33.1 30.5998C33 30.6998 33.1 30.7998 33.2 30.8998L35.4001 32.0998C35.5001 32.1998 35.6 32.0998 35.7 31.9998L40.3 23.8998C40.3 23.7998 40.3 23.7998 40.3 23.6998ZM35.4001 31.5998L33.6 30.5998L38 22.7998L39.8 23.7998L35.4001 31.5998Z" fill="#10335E"/>
<path d="M42.3998 17.1002C41.7998 16.8002 40.9998 17.0002 40.6998 17.6002L40.2998 18.4002L42.4998 19.6002L42.8998 18.8002C43.1998 18.2002 42.9998 17.5002 42.3998 17.1002Z" fill="#A3C8F6"/>
<path d="M43.1 17.8C42.9 17 42.1 16.6 41.3 16.8C40.9 16.9 40.6 17.1 40.4 17.5L40 18.3V18.4C40 18.5 40 18.5 40.1 18.5L42.3 19.7C42.4 19.8 42.5 19.7 42.6 19.6L43 18.8C43.2 18.6 43.3 18.2 43.1 17.8ZM42.7 18.7L42.4 19.3L40.6 18.3L40.9 17.7C41.2 17.2 41.8 17 42.3 17.3C42.8 17.6 42.9 18.2 42.7 18.7Z" fill="#10335E"/>
<path d="M30.9999 34.8999L30.8999 36.9999C30.8999 37.1999 30.9999 37.2999 31.1999 37.2999C31.2999 37.2999 31.2999 37.2999 31.3999 37.1999L33.1999 35.9999L30.9999 34.8999Z" fill="#A3C8F6"/>
<path d="M33.3002 35.8998L31.1002 34.6998C31.0002 34.6998 31.0002 34.6998 30.9002 34.6998C30.8002 34.6998 30.8002 34.7998 30.8002 34.8998L30.7002 36.9998C30.7002 37.2998 30.9002 37.4998 31.2002 37.5998C31.3002 37.5998 31.4002 37.5998 31.5002 37.4998L33.3002 36.2998C33.4002 36.1998 33.4002 36.0998 33.3002 35.8998ZM31.3002 37.0998H31.2002L31.1002 36.9998L31.2002 35.1998L32.8002 36.0998L31.3002 37.0998ZM42.5002 19.3998C42.4002 19.2998 42.3002 19.3998 42.2002 19.4998C42.1002 19.5998 42.2002 19.6998 42.3002 19.7998C42.9002 20.0998 43.1002 20.8998 42.8002 21.3998L38.9002 28.2998C38.8002 28.3998 38.9002 28.4998 39.0002 28.5998C39.1002 28.6998 39.2002 28.5998 39.3002 28.4998L43.2002 21.5998C43.5002 20.7998 43.3002 19.8998 42.5002 19.3998Z" fill="#10335E"/>
<path d="M33.5998 11.8999H31.7998C32.9998 11.8999 33.9998 12.8999 33.9998 14.0999V15.1999H35.7998V14.0999C35.7998 12.8999 34.7998 11.8999 33.5998 11.8999Z" fill="#78A6DF"/>
<path d="M33.4002 28.2998H32.7002L29.2002 34.5998H31.0002L33.2002 30.5998L33.9002 29.3998V28.6998C33.8002 28.3998 33.6002 28.2998 33.4002 28.2998Z" fill="#78A6DF"/>
<path d="M28.9999 34.8998L28.8999 36.8998C28.8999 37.1998 29.0999 37.3998 29.3999 37.4998C29.4999 37.4998 29.5999 37.4998 29.6999 37.3998L30.6999 36.6998L30.7999 34.8998H28.9999ZM33.9999 15.5998V17.9998C34.0999 18.0998 34.1999 18.2998 34.1999 18.4998V20.1998C34.1999 20.3998 34.0999 20.5998 33.9999 20.6998V23.0998C34.0999 23.1998 34.1999 23.3998 34.1999 23.5998V25.2998C34.1999 25.5998 34.0999 25.7998 33.8999 25.9998L33.6999 26.3998L32.8999 27.6998H33.3999C33.7999 27.6998 34.1999 28.0998 34.1999 28.4998L35.3999 26.2998L35.7999 25.5998V15.2998H33.9999V15.5998Z" fill="#78A6DF" fill-opacity="0.14"/>
<path d="M35.6998 31.9998L33.9998 34.9998V35.5998C33.9998 36.7998 32.9998 37.7998 31.7998 37.7998H33.5998C34.7998 37.7998 35.7998 36.7998 35.7998 35.5998V31.7998L35.6998 31.9998Z" fill="#ECECEC"/>
</svg>
