<svg width="17" height="16" viewBox="0 0 17 16" fill="none" xmlns="http://www.w3.org/2000/svg">
<path d="M12.7706 2.60785C11.352 3.95185 9.23465 5.96785 6.41865 8.65585C6.34398 8.71985 6.25865 8.75185 6.16265 8.75185C6.06665 8.75185 5.98665 8.71452 5.92265 8.63985L3.68265 6.28785C3.61865 6.21319 3.53865 6.17319 3.44265 6.16785C3.34665 6.16252 3.26131 6.19185 3.18665 6.25585C2.87731 6.52252 2.41865 6.92785 1.81065 7.47185L1.20265 7.99985C1.12798 8.06385 1.08798 8.14119 1.08265 8.23185C1.07731 8.32252 1.10665 8.40519 1.17065 8.47985L5.61865 13.3759C5.68265 13.4399 5.76265 13.4745 5.85865 13.4799C5.95465 13.4852 6.03998 13.4559 6.11465 13.3919C8.08798 11.5465 11.0373 8.79985 14.9626 5.15185C15.0373 5.07719 15.0773 4.99185 15.0826 4.89585C15.088 4.79985 15.0586 4.71452 14.9946 4.63985C14.6 4.19185 14.0186 3.51985 13.2506 2.62385C13.1866 2.54919 13.1093 2.50919 13.0186 2.50385C12.928 2.49852 12.8453 2.53319 12.7706 2.60785Z" fill="#DF0000"/>
</svg>
