<svg width="21" height="21" viewBox="0 0 21 21" fill="none" xmlns="http://www.w3.org/2000/svg">
<path d="M18.7725 9.39066C18.7592 9.09733 18.7192 8.79066 18.6525 8.47066H11.7925V1.61066L10.9125 1.47066C10.5658 1.444 10.2992 1.43066 10.1125 1.43066C9.92583 1.43066 9.64583 1.444 9.2725 1.47066C9.08583 1.484 8.77917 1.53066 8.3525 1.61066V8.47066H1.4925L1.4725 8.57066C1.40583 8.93066 1.36583 9.19066 1.3525 9.35066V9.41066C1.32583 9.71733 1.3125 9.95066 1.3125 10.1107C1.3125 10.324 1.32583 10.6173 1.3525 10.9907C1.36583 11.164 1.40583 11.4307 1.4725 11.7907L1.4925 11.8907H8.3525V18.7707L8.4525 18.7907C8.8125 18.8573 9.07583 18.8973 9.2425 18.9107C9.40917 18.924 9.66583 18.9307 10.0125 18.9307C10.3992 18.9307 10.6858 18.924 10.8725 18.9107C11.0325 18.8973 11.2858 18.8573 11.6325 18.7907L11.7925 18.7707V11.8907H18.6525C18.7192 11.5707 18.7592 11.284 18.7725 11.0307C18.7992 10.8573 18.8125 10.5973 18.8125 10.2507C18.8258 9.984 18.8125 9.69733 18.7725 9.39066Z" fill="#839BC0"/>
</svg>
