<svg width="188" height="39" viewBox="0 0 188 39" fill="none" xmlns="http://www.w3.org/2000/svg">
<path d="M119.821 27.2339C119.821 33.3036 116.935 38.9897 110.204 38.9897C107.67 38.9897 105.888 38.1152 104.681 36.9066L104.129 38.9897H100.851V9H105.009V27.5185C105.009 31.2701 105.907 35.335 110.355 35.3124C114.668 35.2917 115.616 31.0534 115.616 27.5185C115.616 23.9834 114.666 19.7721 110.353 19.7534C109.447 19.7637 108.55 19.9334 107.702 20.2547V16.835C108.851 16.3721 110.072 16.1193 111.309 16.0885C117.204 16.0885 119.821 21.9808 119.821 27.2339ZM82.1331 38.9897H86.2939V9H82.1331V38.9897ZM156.551 16.0968C155.315 16.1276 154.094 16.3804 152.946 16.8434V20.2628C153.793 19.9414 154.69 19.7718 155.596 19.7617C159.908 19.7802 160.859 23.9938 160.859 27.5267C160.859 31.0597 159.907 35.2939 155.587 35.3124C151.139 35.335 150.242 31.2701 150.242 27.5185V9H146.084V38.9917H149.362L149.912 36.9086C151.12 38.1173 152.903 38.9917 155.437 38.9917C162.163 38.9917 165.054 33.3036 165.054 27.2359C165.054 21.9808 162.437 16.0885 156.551 16.0885V16.0968ZM186.111 33.0746V25.2148C186.111 19.0275 182.168 16.1071 177.623 16.1071C172.823 16.1071 169.449 19.2626 169.449 19.2626L171.434 22.1335C171.884 21.7705 174.269 19.9638 177.395 19.9638C180.064 19.9638 182.226 21.2013 182.226 25.3489V30.2347C182.226 33.8872 178.557 35.4546 176.083 35.4546C173.883 35.4546 172.266 34.5637 172.266 32.594C172.266 29.2591 176.793 28.2631 179.524 28.4033V25.188C173.536 24.8766 168.168 27.3948 168.168 32.8457C168.168 36.6365 171.074 38.9835 175.428 38.9835C178.69 38.9835 181.509 37.711 182.887 36.3209C183.625 38.2308 185.629 38.9835 187.185 38.9835L188 35.9064C186.692 35.6176 186.117 34.9845 186.117 33.0665L186.111 33.0746ZM140.877 33.0746V25.2148C140.877 19.0275 136.935 16.1071 132.391 16.1071C127.59 16.1071 124.217 19.2626 124.217 19.2626L126.204 22.1335C126.651 21.7705 129.036 19.9638 132.163 19.9638C134.831 19.9638 136.996 21.2013 136.996 25.3489V30.2347C136.996 33.8872 133.327 35.4546 130.85 35.4546C128.65 35.4546 127.034 34.5637 127.034 32.594C127.034 29.2591 131.559 28.2631 134.291 28.4033V25.188C128.304 24.8766 122.934 27.3948 122.934 32.8457C122.934 36.6365 125.841 38.9835 130.196 38.9835C133.457 38.9835 136.276 37.711 137.654 36.3209C138.392 38.2308 140.396 38.9835 141.952 38.9835L142.767 35.9064C141.458 35.6176 140.884 34.9845 140.884 33.0665L140.877 33.0746ZM76.9288 33.0746V25.2148C76.9288 19.0275 72.9863 16.1071 68.4425 16.1071C63.6417 16.1071 60.268 19.2626 60.268 19.2626L62.2617 22.1335C62.7081 21.7705 65.0952 19.9638 68.2203 19.9638C70.8907 19.9638 73.0536 21.2013 73.0536 25.3489V30.2347C73.0536 33.8872 69.3842 35.4546 66.9074 35.4546C64.7099 35.4546 63.0933 34.5637 63.0933 32.594C63.0933 29.2591 67.6168 28.2631 70.3504 28.4033V25.188C64.3612 24.8847 59 27.4029 59 32.854C59 36.6447 61.907 38.9917 66.2613 38.9917C69.5228 38.9917 72.34 37.7192 73.7181 36.3291C74.4582 38.2389 76.46 38.9917 78.0175 38.9917L78.8328 35.9146C77.5098 35.6176 76.939 34.9845 76.939 33.0665L76.9288 33.0746ZM91.4859 39H95.6445V16.7856H91.4859V39ZM91.4859 13.2197H95.6445V9H91.4859V13.2197Z" fill="black"/>
<path d="M38.8809 36.7836C38.6756 37.1554 38.1805 37.3239 37.741 37.4491L32.7314 38.8644C32.2918 38.9877 31.7434 39.0884 31.3757 38.8789C31.008 38.6694 30.8252 38.1496 30.7081 37.712C23.433 10.5727 22.4285 4.72243 19.5017 4.72243C16.5747 4.72243 15.5786 10.5727 8.29522 37.712C8.17815 38.1496 7.99123 38.6694 7.62768 38.8789C7.26413 39.0884 6.70955 38.9877 6.27 38.8644L1.26036 37.4491C0.820806 37.3239 0.327857 37.1554 0.12246 36.7836C-0.0829376 36.4118 0.0074372 35.8674 0.12246 35.4423C7.56812 7.80787 11.7274 0 19.5017 0C27.2759 0 31.4435 7.80573 38.8789 35.4423C38.9938 35.8674 39.0802 36.4242 38.8809 36.7836Z" fill="#FDB913"/>
<path d="M43 19.2407C42.9955 19.5078 42.9351 19.7709 42.8227 20.0124L42.6189 20.584C42.5294 20.9218 42.327 21.2178 42.0461 21.4217C41.7187 21.5609 41.3538 21.582 41.0128 21.4815C34.5353 20.0344 27.7639 20.8704 21.8197 23.8512C15.8757 26.8319 11.1156 31.7784 8.3277 37.8715C8.12389 38.3254 7.80187 39 7.07631 39C6.7858 38.9989 6.49718 38.953 6.2203 38.8639L1.24936 37.4423H1.23713C0.662386 37.2774 0 37.0524 0 36.2663C0.0212411 35.9262 0.112903 35.5944 0.269031 35.2925C3.80095 27.6289 10.0712 21.6054 17.8161 18.4361C25.5611 15.2667 34.2049 15.1871 42.0053 18.2133C42.3926 18.3578 43 18.5888 43 19.2407Z" fill="url(#paint0_linear_10084_6645)"/>
<defs>
<linearGradient id="paint0_linear_10084_6645" x1="0.00407621" y1="27.4957" x2="43" y2="27.4957" gradientUnits="userSpaceOnUse">
<stop offset="0.3" stop-color="#FDB913"/>
<stop offset="0.75" stop-color="#F7941F"/>
</linearGradient>
</defs>
</svg>
