<svg width="96" height="38" viewBox="0 0 96 38" fill="none" xmlns="http://www.w3.org/2000/svg">
<g clip-path="url(#clip0_10084_6638)">
<path d="M96 0H0V38H96V0Z" fill="#FEDE07"/>
<path d="M14.2364 36C9.32833 36 6 33.0879 6 27.6805V27.4727H8.69299V27.6116C8.69299 31.1461 10.9071 33.2268 14.2594 33.2268C16.055 33.2268 19.4669 32.3265 19.4669 28.9988C19.4669 22.551 6.65741 27.1259 6.65741 17.9061C6.65741 13.2601 10.3927 11.1816 14.1039 11.1816C18.4736 11.1816 21.442 14.0937 21.442 18.8064V19.0154H18.7509V18.8075C18.7509 15.7565 16.8958 13.9548 13.9024 13.9548C11.8073 13.9548 9.35328 14.9951 9.35328 17.7672C9.35328 23.7981 22.1627 19.57 22.1627 28.8598C22.1627 33.7815 18.1895 36 14.2383 36M37.4848 23.1057C37.0673 23.5213 36.049 23.7303 35.5096 23.7992L33.595 24.0771C30.0027 24.5617 26.6514 25.3931 26.6514 28.9988C26.6514 31.9798 28.8655 33.2268 30.8406 33.2268C32.8762 33.2268 34.6718 32.3955 35.929 30.9394C36.9463 29.6912 37.4857 28.0273 37.4857 26.2256L37.4848 23.1057ZM37.9646 35.3064C37.6642 34.0582 37.6642 31.5629 37.6642 31.5629C36.6469 34.1283 34.3129 36 30.6621 36C26.4719 36 23.9574 33.3658 23.9574 29.0677C23.9574 22.8278 28.805 22.2031 33.5355 21.5807L34.5528 21.4418C36.4674 21.1639 37.4857 20.886 37.4857 18.4596C37.4857 15.3397 35.929 13.9537 32.5777 13.9537C29.7638 13.9537 27.4892 15.3397 27.4892 18.8765V19.0843H24.7953V18.8765C24.7953 13.4002 28.567 11.1816 32.8762 11.1816C37.5452 11.1816 40.2277 13.3301 40.2277 18.3907V31.1472C40.2277 32.2565 40.3966 34.6151 40.6365 35.3064H37.9646ZM57.7772 11.8741H58.0171L51.0745 35.3064H48.1415L40.957 11.8741H44.0809L49.6378 31.7297L55.136 11.8741H57.7772ZM62.5969 5.70646C62.5954 5.12756 62.3961 4.57289 62.0426 4.16365C61.689 3.7544 61.21 3.52387 60.7101 3.5224C59.7043 3.5224 58.8243 4.46827 58.8243 5.6331C58.8255 6.2119 59.0246 6.76658 59.378 7.17585C59.7314 7.58513 60.2103 7.81571 60.7101 7.81718C61.2099 7.81571 61.6888 7.58513 62.0422 7.17585C62.3956 6.76658 62.5947 6.2119 62.596 5.6331V5.70646H62.5969ZM59.3339 11.8741H62.1478V35.3064H59.3339V11.8741ZM64.9012 3H67.7142V35.3075H64.9022L64.9012 3ZM70.4091 3H73.223V35.3075H70.4091V3ZM83.0746 36C78.1061 36 74.7778 33.0879 74.7778 27.6805V27.4727H77.4717V27.6116C77.4717 31.1461 79.7463 33.2268 83.0381 33.2268C84.8338 33.2268 88.307 32.3265 88.307 28.9988C88.307 22.551 75.4371 27.1259 75.4371 17.9061C75.4371 13.2601 79.1723 11.1816 82.8826 11.1816C87.3127 11.1816 90.2821 14.0937 90.2821 18.8064V19.0154H87.5882V18.8075C87.5882 15.7565 85.733 13.9548 82.7397 13.9548C80.5851 13.9548 78.1301 14.9951 78.1301 17.7672C78.1301 23.7981 91 19.57 91 28.8598C91 33.7815 87.0258 36 83.0746 36Z" fill="#C80C0F"/>
</g>
<defs>
<clipPath id="clip0_10084_6638">
<rect width="96" height="38" rx="10" fill="white"/>
</clipPath>
</defs>
</svg>
