<svg width="148" height="21" viewBox="0 0 148 21" fill="none" xmlns="http://www.w3.org/2000/svg">
<path d="M0.0340909 3.96236V1.09091H15.1207V3.96236H9.27628V20H5.87855V3.96236H0.0340909ZM15.8887 20V5.81818H19.1295V8.18182H19.2772C19.5358 7.36316 19.9789 6.73224 20.6068 6.28906C21.2408 5.83973 21.964 5.61506 22.7765 5.61506C22.9612 5.61506 23.1674 5.62429 23.3951 5.64275C23.629 5.65507 23.8229 5.67661 23.9768 5.70739V8.78196C23.8352 8.73272 23.6106 8.68963 23.3028 8.6527C23.0012 8.60961 22.7088 8.58807 22.4257 8.58807C21.8163 8.58807 21.2685 8.72041 20.7822 8.98508C20.3021 9.24361 19.9235 9.60369 19.6465 10.0653C19.3696 10.527 19.2311 11.0594 19.2311 11.6626V20H15.8887ZM34.7164 14.0355V5.81818H38.0587V20H34.818V17.4794H34.6702C34.3502 18.2734 33.8239 18.9228 33.0914 19.4276C32.3651 19.9323 31.4695 20.1847 30.4046 20.1847C29.4752 20.1847 28.6534 19.9785 27.9394 19.5661C27.2315 19.1475 26.6776 18.5412 26.2775 17.7472C25.8774 16.947 25.6773 15.9806 25.6773 14.848V5.81818H29.0197V14.331C29.0197 15.2296 29.2659 15.9437 29.7583 16.473C30.2507 17.0024 30.897 17.267 31.6972 17.267C32.1896 17.267 32.6667 17.147 33.1283 16.907C33.59 16.6669 33.9685 16.3099 34.264 15.8359C34.5656 15.3558 34.7164 14.7557 34.7164 14.0355ZM52.1845 9.56676L49.1376 9.89915C49.0514 9.59138 48.9006 9.30208 48.6852 9.03125C48.4759 8.76042 48.1928 8.5419 47.8358 8.37571C47.4788 8.20952 47.0417 8.12642 46.5247 8.12642C45.8291 8.12642 45.2444 8.27722 44.7704 8.57883C44.3026 8.88044 44.0718 9.27131 44.078 9.75142C44.0718 10.1638 44.2226 10.4993 44.5304 10.7578C44.8443 11.0163 45.3613 11.2287 46.0815 11.3949L48.5005 11.9119C49.8424 12.2012 50.8396 12.6598 51.492 13.2876C52.1506 13.9155 52.483 14.7372 52.4892 15.7528C52.483 16.6454 52.2214 17.4332 51.7044 18.1165C51.1935 18.7936 50.4826 19.3229 49.5716 19.7045C48.6606 20.0862 47.6142 20.277 46.4324 20.277C44.6966 20.277 43.2993 19.9138 42.2406 19.1875C41.1819 18.455 40.551 17.4363 40.3478 16.1314L43.6071 15.8175C43.7548 16.4576 44.0687 16.9408 44.5488 17.267C45.029 17.5933 45.6537 17.7564 46.4231 17.7564C47.2172 17.7564 47.8542 17.5933 48.3344 17.267C48.8206 16.9408 49.0638 16.5376 49.0638 16.0575C49.0638 15.6513 48.9068 15.3158 48.5929 15.0511C48.2851 14.7865 47.805 14.5833 47.1525 14.4418L44.7335 13.9339C43.3732 13.6508 42.3668 13.1738 41.7143 12.5028C41.0619 11.8258 40.7387 10.9702 40.7449 9.93608C40.7387 9.06203 40.9757 8.30492 41.4558 7.66477C41.9421 7.01847 42.6161 6.51989 43.4778 6.16903C44.3457 5.81203 45.346 5.63352 46.4785 5.63352C48.1405 5.63352 49.4485 5.98745 50.4025 6.69531C51.3628 7.40317 51.9567 8.36032 52.1845 9.56676ZM61.8069 5.81818V8.40341H53.6542V5.81818H61.8069ZM55.667 2.42045H59.0093V15.7344C59.0093 16.1837 59.077 16.5284 59.2124 16.7685C59.354 17.0024 59.5387 17.1624 59.7664 17.2486C59.9942 17.3348 60.2465 17.3778 60.5235 17.3778C60.7328 17.3778 60.9236 17.3625 61.096 17.3317C61.2745 17.3009 61.4099 17.2732 61.5022 17.2486L62.0654 19.8615C61.8869 19.9231 61.6315 19.9908 61.2991 20.0646C60.9729 20.1385 60.5728 20.1816 60.0988 20.1939C59.2617 20.2185 58.5077 20.0923 57.8367 19.8153C57.1658 19.5322 56.6334 19.0952 56.2394 18.5043C55.8516 17.9134 55.6608 17.1747 55.667 16.2884V2.42045ZM82.0789 1.09091H85.5043V13.4446C85.5043 14.7988 85.1842 15.9898 84.5441 17.0178C83.9101 18.0457 83.0175 18.849 81.8665 19.4276C80.7155 20 79.3705 20.2862 77.8317 20.2862C76.2867 20.2862 74.9387 20 73.7877 19.4276C72.6366 18.849 71.7441 18.0457 71.1101 17.0178C70.4761 15.9898 70.1591 14.7988 70.1591 13.4446V1.09091H73.5845V13.1584C73.5845 13.9463 73.7569 14.648 74.1016 15.2635C74.4524 15.879 74.9449 16.3622 75.5789 16.7131C76.2129 17.0578 76.9638 17.2301 77.8317 17.2301C78.6996 17.2301 79.4505 17.0578 80.0845 16.7131C80.7247 16.3622 81.2171 15.879 81.5618 15.2635C81.9065 14.648 82.0789 13.9463 82.0789 13.1584V1.09091ZM91.9021 11.6903V20H88.5598V5.81818H91.7544V8.22798H91.9205C92.2468 7.43395 92.7669 6.80303 93.4809 6.33523C94.2011 5.86742 95.0905 5.63352 96.1492 5.63352C97.1279 5.63352 97.9804 5.8428 98.7068 6.26136C99.4393 6.67992 100.006 7.28622 100.406 8.08026C100.812 8.87429 101.012 9.83759 101.006 10.9702V20H97.6634V11.4872C97.6634 10.5393 97.4172 9.79758 96.9248 9.26207C96.4385 8.72656 95.7645 8.45881 94.9028 8.45881C94.318 8.45881 93.7979 8.58807 93.3424 8.84659C92.8931 9.09896 92.5392 9.4652 92.2806 9.94531C92.0283 10.4254 91.9021 11.0071 91.9021 11.6903ZM103.883 20V5.81818H107.226V20H103.883ZM105.564 3.8054C105.035 3.8054 104.579 3.62997 104.197 3.27912C103.816 2.92211 103.625 2.49432 103.625 1.99574C103.625 1.491 103.816 1.06321 104.197 0.712357C104.579 0.35535 105.035 0.176846 105.564 0.176846C106.099 0.176846 106.555 0.35535 106.93 0.712357C107.312 1.06321 107.503 1.491 107.503 1.99574C107.503 2.49432 107.312 2.92211 106.93 3.27912C106.555 3.62997 106.099 3.8054 105.564 3.8054ZM117.224 5.81818V8.40341H109.072V5.81818H117.224ZM111.085 2.42045H114.427V15.7344C114.427 16.1837 114.495 16.5284 114.63 16.7685C114.772 17.0024 114.956 17.1624 115.184 17.2486C115.412 17.3348 115.664 17.3778 115.941 17.3778C116.15 17.3778 116.341 17.3625 116.514 17.3317C116.692 17.3009 116.827 17.2732 116.92 17.2486L117.483 19.8615C117.304 19.9231 117.049 19.9908 116.717 20.0646C116.39 20.1385 115.99 20.1816 115.516 20.1939C114.679 20.2185 113.925 20.0923 113.254 19.8153C112.583 19.5322 112.051 19.0952 111.657 18.5043C111.269 17.9134 111.078 17.1747 111.085 16.2884V2.42045ZM125.626 20.277C124.204 20.277 122.976 19.9815 121.942 19.3906C120.914 18.7936 120.123 17.9503 119.569 16.8608C119.015 15.7652 118.738 14.4756 118.738 12.9922C118.738 11.5334 119.015 10.2531 119.569 9.15128C120.129 8.04332 120.911 7.18158 121.914 6.56605C122.917 5.94437 124.096 5.63352 125.45 5.63352C126.324 5.63352 127.149 5.77509 127.925 6.05824C128.707 6.33523 129.396 6.7661 129.993 7.35085C130.596 7.93561 131.07 8.6804 131.415 9.58523C131.76 10.4839 131.932 11.5549 131.932 12.7983V13.8232H120.308V11.5703H128.728C128.722 10.9302 128.583 10.3608 128.313 9.86222C128.042 9.35748 127.663 8.96046 127.177 8.67116C126.697 8.38187 126.137 8.23722 125.497 8.23722C124.813 8.23722 124.213 8.40341 123.696 8.73579C123.179 9.06203 122.776 9.4929 122.487 10.0284C122.203 10.5578 122.059 11.1394 122.053 11.7734V13.7401C122.053 14.5649 122.203 15.2727 122.505 15.8636C122.807 16.4484 123.228 16.8977 123.77 17.2116C124.312 17.5194 124.946 17.6733 125.672 17.6733C126.158 17.6733 126.598 17.6056 126.992 17.4702C127.386 17.3286 127.728 17.1224 128.017 16.8516C128.306 16.5807 128.525 16.2453 128.673 15.8452L131.793 16.196C131.596 17.0208 131.221 17.741 130.667 18.3565C130.119 18.9659 129.417 19.4399 128.562 19.7784C127.706 20.1108 126.728 20.277 125.626 20.277ZM139.502 20.2493C138.388 20.2493 137.391 19.9631 136.511 19.3906C135.631 18.8182 134.935 17.9872 134.424 16.8977C133.913 15.8082 133.658 14.4848 133.658 12.9276C133.658 11.3518 133.916 10.0223 134.433 8.93892C134.957 7.84943 135.661 7.0277 136.548 6.47372C137.434 5.91359 138.422 5.63352 139.512 5.63352C140.342 5.63352 141.026 5.77509 141.561 6.05824C142.097 6.33523 142.521 6.67069 142.835 7.06463C143.149 7.45241 143.392 7.81865 143.565 8.16335H143.703V1.09091H147.055V20H143.768V17.7656H143.565C143.392 18.1103 143.143 18.4766 142.817 18.8643C142.491 19.246 142.06 19.5722 141.524 19.843C140.989 20.1139 140.315 20.2493 139.502 20.2493ZM140.435 17.5071C141.143 17.5071 141.746 17.3163 142.244 16.9347C142.743 16.5469 143.122 16.0083 143.38 15.3189C143.639 14.6295 143.768 13.8262 143.768 12.9091C143.768 11.992 143.639 11.1948 143.38 10.5178C143.128 9.84067 142.752 9.31439 142.254 8.93892C141.761 8.56345 141.155 8.37571 140.435 8.37571C139.69 8.37571 139.068 8.5696 138.57 8.95739C138.071 9.34517 137.696 9.88068 137.443 10.5639C137.191 11.2472 137.065 12.0289 137.065 12.9091C137.065 13.7955 137.191 14.5864 137.443 15.282C137.702 15.9714 138.08 16.5161 138.579 16.9162C139.084 17.3101 139.702 17.5071 140.435 17.5071Z" fill="#2A176F"/>
</svg>
