<svg width="110" height="42" viewBox="0 0 110 42" fill="none" xmlns="http://www.w3.org/2000/svg">
<path d="M3.24719 12.9761H7.82539C12.6412 12.9761 15.5518 10.529 15.5518 6.48803C15.5518 2.4471 12.639 0 7.82319 0H0.600586V18.613H3.24719V12.9761ZM3.24719 2.31447H7.74619C11.1342 2.31447 12.9052 3.83092 12.9052 6.48803C12.9052 9.14514 11.132 10.6616 7.74619 10.6616H3.24719V2.31226V2.31447Z" fill="#EA2427"/>
<path d="M20.5173 11.5922C20.5173 8.50846 22.2113 6.83285 24.9371 6.83285C25.1219 6.83285 25.3067 6.83285 25.5201 6.85937V4.38574C23.0583 4.38574 21.3137 5.23681 20.4139 6.8859V4.52059H17.9785V18.613H20.5195V11.5944L20.5173 11.5922Z" fill="#EA2427"/>
<path d="M33.5696 18.7722C37.776 18.7722 40.8472 15.768 40.8472 11.5657C40.8472 7.36338 37.7782 4.38574 33.5696 4.38574C29.361 4.38574 26.2656 7.36338 26.2656 11.5657C26.2656 15.768 29.361 18.7722 33.5696 18.7722ZM33.5696 6.62063C36.269 6.62063 38.2798 8.56151 38.2798 11.5657C38.2798 14.5699 36.269 16.5373 33.5696 16.5373C30.8702 16.5373 28.833 14.5699 28.833 11.5657C28.833 8.56151 30.8702 6.62063 33.5696 6.62063Z" fill="#EA2427"/>
<path d="M67.1661 18.7724C69.4937 18.7724 71.4253 17.9744 72.6969 16.4867L71.2955 14.8376C70.2637 15.9804 68.8865 16.5397 67.2475 16.5397C64.4689 16.5397 62.4845 14.8906 62.1677 12.4192H73.5461C73.5725 12.1805 73.5989 11.8599 73.5989 11.6477C73.5989 7.31277 70.7147 4.38818 66.6667 4.38818C62.6187 4.38818 59.6289 7.39235 59.6289 11.5681C59.6289 15.7439 62.6451 18.7746 67.1705 18.7746L67.1661 18.7724ZM66.6623 6.54128C69.1241 6.54128 70.8951 8.2169 71.1613 10.5822H62.1655C62.4295 8.18816 64.2291 6.54128 66.6645 6.54128H66.6623Z" fill="#EA2427"/>
<path d="M78.716 11.5922C78.716 8.50846 80.41 6.83285 83.1358 6.83285C83.3206 6.83285 83.5054 6.83285 83.7188 6.85937V4.38574C81.257 4.38574 79.5124 5.23681 78.6126 6.8859V4.52059H76.1772V18.613H78.7182V11.5944L78.716 11.5922Z" fill="#EA2427"/>
<path d="M87.2654 14.3576C87.2654 17.2026 88.8802 18.7721 91.7116 18.7721C92.849 18.7721 94.0128 18.4538 94.7806 17.7884L93.9864 15.9536C93.4562 16.378 92.7434 16.619 92.002 16.619C90.6006 16.619 89.8064 15.7679 89.8064 14.2537V6.62057H93.828V4.52053H89.8064V1.43457H87.2654V4.51832H84.8828V6.61836H87.2654V14.3554V14.3576Z" fill="#EA2427"/>
<path d="M100.87 19.5701C100.181 21.1926 99.4135 21.7497 98.1969 21.7497C97.2443 21.7497 96.3709 21.3783 95.6823 20.713L94.5977 22.6273C95.4711 23.4784 96.8461 23.9293 98.1969 23.9293C100.34 23.9293 101.954 22.9987 103.197 20.021L109.998 4.52051H107.509L102.667 15.7944L97.7723 4.52051H95.1257L101.319 18.5864L100.87 19.5701Z" fill="#EA2427"/>
<path d="M0 26.6686H5.5308V41.4794H10.241V26.6686H15.8246V22.8398H0V26.6686Z" fill="#EA2427"/>
<path d="M26.422 41.6912C31.6074 41.6912 34.8634 38.5809 34.8634 33.6624V22.8682H30.1796V33.6624C30.1796 36.1891 28.6704 37.7298 26.4484 37.7298C24.2264 37.7298 22.5852 36.1869 22.5852 33.6624V22.8682H17.875V33.6624C17.875 38.5809 21.2102 41.6912 26.422 41.6912Z" fill="#EA2427"/>
<path d="M36.9404 22.8664V41.4794H41.6506V36.2425H45.3554L48.1076 41.4794H53.4536L49.564 35.3384C51.7332 34.2486 52.9256 32.2016 52.9256 29.3566C52.9256 25.4417 50.4242 23.1383 46.0264 22.8929V16.4889C47.1902 18.0053 48.937 18.7746 50.9214 18.7746C55.0222 18.7746 58.012 15.9031 58.012 11.5681C58.012 7.23319 55.0222 4.38818 50.9214 4.38818C48.8578 4.38818 47.0582 5.1862 45.9208 6.7535V4.52082H43.4854V22.8664H36.9426H36.9404ZM48.4508 29.5136C48.4508 31.481 47.2606 32.5177 45.2234 32.5177H41.6506V26.589H45.2234C47.2606 26.589 48.4508 27.5727 48.4508 29.5136ZM50.7058 6.62086C53.4052 6.62086 55.4424 8.58827 55.4424 11.5659C55.4424 14.5436 53.4052 16.5375 50.7058 16.5375C48.0064 16.5375 45.9956 14.5701 45.9956 11.5659C45.9956 8.56175 48.0328 6.62086 50.7058 6.62086Z" fill="#EA2427"/>
<path d="M67.5509 41.4792H73.1873L65.8569 30.5767L72.7363 22.8662H67.2847L60.1941 30.9215V22.8662H55.4839V41.4792H60.1941V36.9056L62.6537 34.1667L67.5509 41.4792Z" fill="#EA2427"/>
<path d="M89.2208 37.7566H79.1404V34.0075H87.9778V30.2849H79.1404V26.5888H88.9304V22.8662H74.4302V41.4792H89.2208V37.7566Z" fill="#EA2427"/>
<path d="M99.0351 30.9768L94.5647 22.8662H89.8545L96.7075 35.6013V41.4792H101.391V35.4687L108.112 22.8662H103.402L99.0351 30.9768Z" fill="#EA2427"/>
</svg>
