<svg width="14" height="15" viewBox="0 0 14 15" fill="none" xmlns="http://www.w3.org/2000/svg">
<path d="M0 7.73061C0 7.05031 0.104985 6.39311 0.314954 5.759C0.529123 5.12069 0.827279 4.53278 1.20942 3.99526C1.59157 3.45774 2.0388 2.99791 2.55113 2.61576C2.7191 2.48138 2.89128 2.42469 3.06765 2.44569C3.24823 2.46248 3.391 2.54227 3.49599 2.68505C3.60937 2.84043 3.64507 3.0042 3.60307 3.17638C3.56528 3.34435 3.47289 3.49133 3.32591 3.61731C2.91437 3.93227 2.55533 4.30181 2.24877 4.72595C1.94642 5.15009 1.70915 5.61622 1.53698 6.12435C1.369 6.63247 1.28501 7.16789 1.28501 7.73061C1.28501 8.45711 1.41939 9.13741 1.68815 9.77151C1.95691 10.4014 2.32856 10.9557 2.80309 11.4345C3.28182 11.909 3.83824 12.2806 4.47235 12.5494C5.10645 12.8182 5.78466 12.9525 6.50695 12.9525C7.23344 12.9525 7.91164 12.8182 8.54155 12.5494C9.17146 12.2806 9.72578 11.909 10.2045 11.4345C10.6832 10.9557 11.0549 10.4014 11.3194 9.77151C11.5882 9.13741 11.7226 8.45711 11.7226 7.73061C11.7226 7.1175 11.626 6.53799 11.4328 5.99207C11.2397 5.44615 10.9667 4.95062 10.6139 4.50548C10.2612 4.05615 9.84546 3.67611 9.36673 3.36535C8.8922 3.0504 8.37148 2.82153 7.80456 2.67875V3.52913C7.80456 3.77689 7.72897 3.93017 7.57779 3.98896C7.42662 4.04775 7.25234 4.00786 7.05497 3.86928L4.94478 2.40159C4.781 2.28821 4.69911 2.15383 4.69911 1.99845C4.69911 1.84307 4.781 1.70869 4.94478 1.59531L7.06127 0.140223C7.25864 0.00584263 7.43081 -0.0319519 7.57779 0.0268396C7.72897 0.0814316 7.80456 0.23051 7.80456 0.474074V1.35595C8.53945 1.51132 9.22395 1.78218 9.85806 2.16853C10.4922 2.55487 11.0444 3.0336 11.5147 3.60472C11.9892 4.17163 12.3588 4.80784 12.6234 5.51334C12.8879 6.21463 13.0202 6.95373 13.0202 7.73061C13.0202 8.62088 12.8501 9.46076 12.51 10.2502C12.1698 11.0355 11.6995 11.7263 11.099 12.3226C10.4985 12.919 9.80557 13.3872 9.02028 13.7273C8.235 14.0675 7.39722 14.2376 6.50695 14.2376C5.61668 14.2376 4.7789 14.0675 3.99362 13.7273C3.20833 13.3872 2.51543 12.919 1.91492 12.3226C1.31861 11.7263 0.850376 11.0355 0.510225 10.2502C0.170075 9.46076 0 8.62088 0 7.73061ZM4.85659 10.2817C4.70961 10.2817 4.59413 10.2355 4.51014 10.1432C4.42615 10.0466 4.38416 9.92479 4.38416 9.77781V6.35741H4.36526L3.79835 6.78575C3.75635 6.81095 3.71646 6.83194 3.67866 6.84874C3.64507 6.86554 3.60307 6.87394 3.55268 6.87394C3.46029 6.87394 3.38261 6.84244 3.31961 6.77945C3.25662 6.71226 3.22513 6.62827 3.22513 6.52749C3.22513 6.38471 3.29442 6.26083 3.433 6.15584L4.0944 5.67081C4.20359 5.58683 4.31067 5.51964 4.41566 5.46924C4.52484 5.41465 4.64662 5.38736 4.781 5.38736C4.95318 5.38736 5.08756 5.43355 5.18414 5.52594C5.28493 5.61832 5.33532 5.7506 5.33532 5.92278V9.77781C5.33532 9.92059 5.29333 10.0403 5.20934 10.1369C5.12535 10.2334 5.00777 10.2817 4.85659 10.2817ZM7.94944 10.3195C7.66388 10.3195 7.38042 10.2439 7.09906 10.0928C6.8219 9.94159 6.63713 9.73162 6.54474 9.46286C6.51955 9.41667 6.49645 9.36837 6.47545 9.31798C6.45866 9.26339 6.45026 9.2067 6.45026 9.14791C6.45026 9.03032 6.48595 8.93794 6.55734 8.87075C6.62873 8.79936 6.72322 8.76366 6.8408 8.76366C7.02137 8.76366 7.15785 8.85815 7.25024 9.04712C7.30903 9.1941 7.39512 9.31798 7.5085 9.41877C7.62609 9.51955 7.77097 9.56994 7.94314 9.56994C8.16991 9.56994 8.34208 9.47756 8.45966 9.29278C8.57725 9.10801 8.63604 8.88964 8.63604 8.63768C8.63604 8.40671 8.57935 8.20094 8.46596 8.02037C8.35678 7.8356 8.1846 7.74321 7.94944 7.74321C7.83186 7.74321 7.72477 7.77261 7.62819 7.8314C7.5316 7.88599 7.44761 7.95948 7.37622 8.05187C7.31323 8.13165 7.25234 8.19045 7.19355 8.22824C7.13476 8.26604 7.05287 8.28493 6.94789 8.28493C6.79671 8.28493 6.68332 8.23454 6.60774 8.13375C6.53635 8.03297 6.50485 7.90909 6.51325 7.76211L6.63923 5.98577C6.65603 5.63722 6.8282 5.46294 7.15576 5.46294H8.96989C9.08327 5.46294 9.17356 5.49864 9.24075 5.57003C9.30794 5.63722 9.34154 5.72751 9.34154 5.84089C9.34154 5.95007 9.30794 6.04036 9.24075 6.11175C9.17356 6.18314 9.08327 6.21883 8.96989 6.21883H7.42032L7.31953 7.57943H7.34473C7.42452 7.41566 7.5463 7.28968 7.71007 7.20149C7.87385 7.1091 8.05862 7.06291 8.26439 7.06291C8.67593 7.06291 8.99299 7.21829 9.21555 7.52904C9.43812 7.8356 9.54941 8.19674 9.54941 8.61248C9.54941 9.10801 9.40663 9.51745 9.12107 9.8408C8.83551 10.16 8.44497 10.3195 7.94944 10.3195Z" fill="white"/>
</svg>
