<svg width="7" height="10" viewBox="0 0 7 10" fill="none" xmlns="http://www.w3.org/2000/svg">
<path d="M5.73613 9.94124C5.46873 9.94124 5.24851 9.83637 4.98635 9.5847L2.78942 7.51361C2.75796 7.48215 2.71601 7.47166 2.66882 7.47166H1.18498C0.414218 7.47166 0 7.04171 0 6.23425V4.28375C0 3.47105 0.414218 3.04634 1.18498 3.04634H2.66882C2.71601 3.04634 2.75796 3.03061 2.78942 3.0044L4.98635 0.943794C5.26948 0.671144 5.46348 0.561035 5.72565 0.561035C6.12414 0.561035 6.41252 0.875631 6.41252 1.26363V9.2701C6.41252 9.6581 6.12414 9.94124 5.73613 9.94124Z" fill="white"/>
</svg>
