<svg width="16" height="11" viewBox="0 0 16 11" fill="none" xmlns="http://www.w3.org/2000/svg">
<path d="M6.24236 9.96804C6.10894 9.96804 5.98254 9.9382 5.86315 9.87851C5.74377 9.82233 5.61912 9.73279 5.48921 9.6099L3.28768 7.52424C3.25257 7.49615 3.21219 7.48211 3.16654 7.48211H1.67077C1.28805 7.48211 0.993105 7.37677 0.785944 7.1661C0.582294 6.95543 0.480469 6.64468 0.480469 6.23387V4.27988C0.480469 3.87258 0.582294 3.5636 0.785944 3.35292C0.993105 3.14225 1.28805 3.03691 1.67077 3.03691H3.16654C3.21219 3.03691 3.25257 3.02111 3.28768 2.98951L5.48921 0.930188C5.63317 0.789739 5.75957 0.68967 5.86842 0.629979C5.98078 0.570289 6.10192 0.540443 6.23183 0.540443C6.43548 0.540443 6.60051 0.608912 6.72691 0.745849C6.85683 0.882786 6.92178 1.04957 6.92178 1.2462V9.28862C6.92178 9.48174 6.85858 9.64326 6.73218 9.77317C6.60577 9.90309 6.4425 9.96804 6.24236 9.96804ZM8.79677 7.58744C8.67037 7.50317 8.59663 7.39081 8.57556 7.25037C8.55801 7.10992 8.59839 6.9642 8.6967 6.81322C8.84066 6.60255 8.95302 6.36379 9.03378 6.09693C9.11453 5.82657 9.15491 5.54392 9.15491 5.24898C9.15491 4.95403 9.11453 4.67138 9.03378 4.40102C8.95653 4.13066 8.84417 3.89189 8.6967 3.68473C8.59488 3.53726 8.5545 3.3933 8.57556 3.25285C8.59663 3.10889 8.67037 2.99478 8.79677 2.91051C8.90913 2.83677 9.03026 2.8122 9.16018 2.83677C9.29009 2.86135 9.39368 2.92982 9.47092 3.04218C9.68511 3.32659 9.85189 3.66191 9.97127 4.04814C10.0907 4.43086 10.1503 4.83114 10.1503 5.24898C10.1503 5.66681 10.0907 6.06709 9.97127 6.44981C9.85189 6.83253 9.68511 7.1661 9.47092 7.45051C9.39368 7.56638 9.29009 7.6366 9.16018 7.66118C9.03026 7.68225 8.90913 7.65767 8.79677 7.58744ZM10.9035 8.99368C10.7806 8.91644 10.7104 8.80934 10.6928 8.67241C10.6753 8.53196 10.7121 8.39327 10.8034 8.25633C11.0808 7.84201 11.2968 7.37677 11.4512 6.86062C11.6057 6.34447 11.683 5.80726 11.683 5.24898C11.683 4.69069 11.6057 4.15348 11.4512 3.63733C11.3003 3.11767 11.0843 2.65244 10.8034 2.24162C10.7086 2.10469 10.67 1.96775 10.6876 1.83081C10.7086 1.69036 10.7806 1.58152 10.9035 1.50427C11.0229 1.42702 11.1475 1.40245 11.2774 1.43054C11.4109 1.45511 11.518 1.52709 11.5987 1.64647C11.9428 2.12751 12.2079 2.68228 12.394 3.31079C12.5836 3.93578 12.6784 4.58185 12.6784 5.24898C12.6784 5.91611 12.5836 6.56217 12.394 7.18716C12.2044 7.80865 11.9393 8.36342 11.5987 8.85148C11.518 8.97086 11.4109 9.04284 11.2774 9.06742C11.1475 9.092 11.0229 9.06742 10.9035 8.99368ZM13.026 10.421C12.9031 10.3437 12.8312 10.2349 12.8101 10.0944C12.7925 9.954 12.8276 9.81706 12.9154 9.68364C13.1823 9.27634 13.4123 8.83743 13.6054 8.36693C13.802 7.89292 13.953 7.39608 14.0583 6.87642C14.1672 6.35325 14.2216 5.81253 14.2216 5.25424C14.2216 4.68894 14.1672 4.14646 14.0583 3.6268C13.953 3.10363 13.802 2.60855 13.6054 2.14156C13.4123 1.67105 13.1823 1.2304 12.9154 0.819584C12.8276 0.686158 12.7925 0.550977 12.8101 0.41404C12.8312 0.273591 12.9031 0.162988 13.026 0.0822303C13.1419 0.00498365 13.2665 -0.0178392 13.4 0.0137617C13.5369 0.0418514 13.6458 0.120854 13.7265 0.250768C14.032 0.714248 14.2953 1.21284 14.5165 1.74654C14.7377 2.27674 14.908 2.83677 15.0274 3.42666C15.1503 4.01303 15.2118 4.62223 15.2118 5.25424C15.2118 5.88275 15.1521 6.49195 15.0327 7.08183C14.9133 7.6682 14.743 8.22824 14.5218 8.76194C14.3006 9.29565 14.0355 9.79424 13.7265 10.2577C13.6458 10.3841 13.5369 10.4614 13.4 10.4895C13.2665 10.5211 13.1419 10.4982 13.026 10.421Z" fill="white"/>
</svg>
